<?xml version="1.0" encoding="utf-8"?>
<!-- Generator: Adobe Illustrator 16.0.0, SVG Export Plug-In . SVG Version: 6.00 Build 0)  -->
<!DOCTYPE svg PUBLIC "-//W3C//DTD SVG 1.1//EN" "http://www.w3.org/Graphics/SVG/1.1/DTD/svg11.dtd">
<svg version="1.1" id="Layer_1" xmlns="http://www.w3.org/2000/svg" xmlns:xlink="http://www.w3.org/1999/xlink" x="0px" y="0px"
	 width="400px" height="400px" viewBox="0 0 400 400" enable-background="new 0 0 400 400" xml:space="preserve">
<circle fill="#FFFFFF" cx="200.721" cy="197.206" r="152.761"/>
<g>
	<path fill="#BB8A1A" d="M180.48,8.76c27.401-2.471,55.379,0.189,81.44,9.25c34.971,11.779,66.211,34.079,89.02,63.05
		c22.562,28.45,36.691,63.439,40.271,99.569c1.631,19.54,1.03,39.381-3.06,58.602c-5.7,27.58-17.59,53.858-34.569,76.34
		c-17.521,23.25-40.341,42.5-66.279,55.709c-26.9,13.73-57.08,21.103-87.301,20.791c-31.721,0.32-63.391-7.84-91.271-22.891
		c-32.359-17.449-59.5-44.42-77.21-76.642C19.26,270.26,11.53,245.5,8.87,220.199C6.48,193.65,8.59,166.48,17.06,141.11
		c11.55-36.4,34.49-68.99,64.561-92.49C109.91,26.31,144.65,12.4,180.48,8.76 M173.4,14.56c-44.46,6.3-86.319,29.22-115.46,63.38
		C36.97,102.45,22.24,132.34,16.2,164.07c-3.801,17.36-3.021,35.26-2.601,52.901c2.55,31.897,14.04,62.92,32.17,89.239
		c30.63,45.039,81.94,75.46,136.26,80.148c8.98,0.49,17.98,0.361,26.96,0.312c12.972,0.02,25.841-2.181,38.359-5.421
		c25.881-6.67,50.211-19.108,70.91-36c38.938-31.479,64.59-79.239,68.24-129.27c0.188-16.411,1.141-33.041-2.189-49.222
		c-4.99-28.72-17-56.18-34.67-79.359c-18.69-25.23-44.17-45.25-72.701-58.23C254.07,19.02,229.109,12.87,204,13.29
		C193.79,13.32,183.52,13.05,173.4,14.56 M77.97,313.061c2.7-4.791,7.11-8.25,11.04-11.98c3.87,3.119,7.16,6.859,10.75,10.279
		c-1.06,1.26-2.15,2.5-3.26,3.721c-2.46-1.358-4.69-4-7.76-3.438c1.369,2.24,2.89,4.369,4.409,6.52c-1.34,1-2.71,1.959-4.149,2.812
		c-1.55-1.183-2.8-3.183-4.79-3.541c-2.5,1.791-4.33,4.5-7.3,5.6l0.54-0.619c2.159-2.43,4.52-4.67,6.84-6.948
		c1.91,1.619,3.81,3.237,5.75,4.828c0.58-0.979,1.16-1.949,1.739-2.931c-1.51-1.6-3.01-3.209-4.51-4.819
		c1.08-1.091,2.17-2.181,3.25-3.271c1.76,1.631,3.53,3.24,5.32,4.83c0.77-0.771,1.55-1.539,2.33-2.299
		c-2.65-3.42-5.771-6.441-9.15-9.132C85.24,306.02,81.75,309.699,77.97,313.061 M308.77,301.16c1.84,0.141,3.681,0.09,5.531,0.109
		c3.049,0.84,3.83,4.44,6.27,6.121c1.63,1.309,3.779,2.24,4.66,4.26c0.789,2.459,0.761,5.49-1.16,7.439
		c-2.75,3.211-5.881,6.09-9.061,8.871c-4.109-3.73-7.891-7.802-11.9-11.642c-1.639-1.729-3.27-3.471-4.92-5.188
		C301.77,307.869,304.939,304.16,308.77,301.16 M308.67,302.67c-3.199,2.511-5.851,5.632-8.711,8.511
		c4.701,5.451,10.031,10.33,15.172,15.35c3.67-3.91,10.26-7.309,9.309-13.528c-0.25-2.882-3.51-3.58-5.43-5.101
		c-1.439-1.58-2.25-3.65-3.869-5.062C313.311,301.471,310.471,301.061,308.67,302.67 M98.96,316.471c3.02-0.183,6.05-0.17,9.08,0
		C105.02,316.83,101.97,316.841,98.96,316.471 M103.4,322.41c2-0.58,4.141,0.222,5.19,2.052c1.6,5.34-3.51,11.879-9.11,11.038
		C94.33,332,98.76,324.23,103.4,322.41 M104.29,323.382c-3.24,0.657-5.07,3.979-6.261,6.789c-0.97,2.291,1.431,5.051,3.891,4.198
		c2.89-1.059,5.06-3.688,6.12-6.528C109.08,325.561,106.74,322.712,104.29,323.382 M268.65,334.302c-1.83-3.5,3.17-4.49,5.279-6
		c3.27,4.479,5.34,9.709,8.67,14.129c2.562,0.91,4.859-1.51,7.189-2.312c0.801,1.621,2.78,3.49,1.78,5.4
		c-3.791,2.881-8.121,4.961-12.319,7.18C275.91,346.449,271.93,340.57,268.65,334.302 M269.061,332.15
		c2.959,6.65,6.89,12.869,10.83,18.98c3.818-1.92,7.479-4.132,11.129-6.343c-0.549-1.118-1.108-2.237-1.68-3.34
		c-2.09,1.121-4.101,2.42-6.32,3.301c-1.17-0.311-1.438-1.75-2.119-2.59c-2.319-4.1-4.61-8.221-7.1-12.229
		C272.221,330.65,270.641,331.4,269.061,332.15 M120.71,330.43c5.56-1.101,12.68,0.188,14.89,6.108
		c1.04,3.302,0.94,6.83-0.07,10.121c-0.34,1.431-1.649,2.32-2.56,3.392c2.31-4.472,4.16-10.33,0.771-14.771
		c-2.681-4.09-7.9-4.379-12.29-4.789L120.71,330.43 M139.99,337.591c0.42-0.011,1.26-0.029,1.68-0.039
		c3.7,1.379,7.35,2.91,11.16,3.979c1,0.32,1.989,0.65,2.989,0.98c-0.079,1.84-0.34,3.67-1.26,5.301c-1.46-0.23-2.92-0.51-4.39-0.451
		c-1.59,1.361-1.95,3.59-2.7,5.461c-1.02,3.449-2.17,6.859-3.76,10.101c-2.08-0.57-5.141-0.359-6.351-2.312
		c0.03-3.539,1.49-7.02,3.11-10.119c0.55-0.819,1.1-1.631,1.66-2.43c-1.42,4.01-2.82,8.029-4.14,12.07
		c1.68,0.67,3.359,1.34,5.039,2.01c2.25-5.42,4.061-11.01,6.131-16.49c1.649,0.34,3.3,0.66,4.949,0.99
		c0.21-1.09,0.431-2.17,0.641-3.25c-4.51-1.801-9.09-3.461-13.76-4.812c-0.391,0.609-1.171,1.83-1.561,2.449
		c1.43,0.972,2.88,1.933,4.271,2.972c-0.11,0.301-0.311,0.899-0.421,1.198c-1.579-1.02-3.17-2.01-4.77-2.987
		C139.01,340.671,139.5,339.132,139.99,337.591 M99,341.421c2.58-0.181,5.18-0.261,7.75,0.041
		C104.21,342.061,101.56,341.68,99,341.421 M267.35,348.212c1.801,0.198,3.59,0.42,5.381,0.68c-0.6,4.59-2.86,9.58-7.61,11.08
		c-3.681,0.99-8.341,1.108-11.119-1.933c3.891,1.361,8.49,2.65,12.278,0.291c3.171-1.721,4.65-5.17,5.341-8.541
		c-1.039-0.1-2.091-0.198-3.129-0.278c-0.791,1.2-1.58,2.391-2.392,3.58C266.48,351.449,266.9,349.83,267.35,348.212L267.35,348.212
		z"/>
	<path fill="#00318A" d="M173.4,14.56C183.52,13.05,193.79,13.32,204,13.29c25.108-0.42,50.069,5.73,72.938,15.88
		c28.531,12.98,54.011,33,72.701,58.23c17.67,23.18,29.68,50.64,34.67,79.36c3.33,16.18,2.379,32.81,2.189,49.221
		c-3.65,50.029-29.302,97.789-68.24,129.271c-20.699,16.891-45.029,29.329-70.91,36c-12.52,3.239-25.389,5.438-38.359,5.42
		c-8.979,0.051-17.979,0.18-26.96-0.312c-54.319-4.689-105.63-35.11-136.26-80.149c-18.13-26.319-29.62-57.342-32.17-89.239
		c-0.42-17.642-1.2-35.541,2.601-52.901c6.04-31.73,20.77-61.62,41.739-86.13C87.08,43.78,128.94,20.86,173.4,14.56 M191.36,21.34
		c0,13.12-0.029,26.23,0.011,39.351c8.819,0.51,17.689,0.67,26.511,0.03c0.719-3.5,0.658-7.101,0.02-10.61
		c-3.811-0.4-7.641-0.53-11.461-0.59c-0.84-9.38,0.351-18.82-0.66-28.19C200.97,21.21,196.16,21.21,191.36,21.34 M154.12,26.62
		c-0.25,2.54,0.069,5.08,0.64,7.55c2.17,10.301,3.8,20.721,6.37,30.94c8.27-1.1,16.54-2.65,24.58-4.89
		c-0.36-2.9-0.971-5.75-1.721-8.57c-1.199,0.09-2.399,0.26-3.579,0.5c-2.771-0.08-5.53-0.14-8.301-0.311
		c0.17-0.989,0.33-1.979,0.5-2.96c1.48-0.56,3.061-1.06,4.17-2.25c1.721-0.33,3.44-0.6,5.171-0.869
		c0.069-3.221-0.471-6.421-1.79-9.37c-1.631,0.33-3.261,0.68-4.891,1.029c-2.359-0.13-4.78-0.27-6.92-1.359
		c1.79-1.15,3.79-1.971,5.43-3.351c1.96-0.359,3.921-0.819,5.801-1.51c-0.92-2.74-0.431-6.57-2.65-8.53
		C169.28,23.65,161.82,25.86,154.12,26.62 M233.199,28.14c-5.488,2.449-7.16,9.51-5.189,14.8c1.75,3.89,5.529,6.17,8.49,9.04
		c-0.66,1.95-1.931,3.569-3.551,4.819c-1.08-2.05-2.13-4.119-3.13-6.22c-2.811,0.4-5.53,1.26-8.079,2.48
		c0.698,2.489,1.438,5.06,3.118,7.09c4.021,5.27,11.73,6.68,17.761,4.51c5.061-1.8,8.311-7.36,7.61-12.64
		c-0.6-3.021-2.291-5.811-4.58-7.851c2.66-0.699,5.289-1.58,7.73-2.87C255.439,30.77,241.93,23.21,233.199,28.14 M127.01,37.19
		c1.01,3.46,2.8,6.6,4.43,9.79c-0.68,1.16-0.76,2.89-2.04,3.569c-1.199,0.141-2.409,0.04-3.609-0.01
		c-1.7-3.42-3.11-6.979-4.91-10.35c-3.97,1.53-8.07,2.97-11.44,5.66c3.16,7.01,6.511,13.93,9.84,20.859
		c2.21,4.57,4,9.36,6.771,13.641c4-1.17,7.74-3.07,11.26-5.261c-1.26-3.449-3.02-6.659-4.66-9.92c0.16-1.279,0.33-2.55,0.511-3.83
		c1.38-0.619,2.77-1.26,4.13-1.92c2.06,4.181,3.79,8.53,5.989,12.65c4.15-0.93,7.86-3.09,11.521-5.16
		c-4.98-11.8-10.95-23.149-16.271-34.8C134.34,32.9,130.69,35.17,127.01,37.19 M267.039,41c-4.64,9.761-9.97,19.19-14.408,29.04
		c7.119,4.4,14.719,8.021,22.358,11.391c1.642-2.561,3.011-5.29,3.82-8.221c-2.721-1.43-5.5-2.75-8.229-4.14
		c0.061-1.58,0.159-3.15,0.278-4.72c2.181,0.46,4.371,0.92,6.562,1.34c1.221,0.64,2.438,1.27,3.68,1.89
		c1.881-2.53,3.351-5.359,4.062-8.45c-2.48-1.409-5.011-2.729-7.562-4.02c-0.109-1.05-0.209-2.11-0.299-3.17
		c1.979,0.25,3.959,0.49,5.949,0.74c1.5,0.779,3.01,1.52,4.551,2.229c1.719-2.63,3.309-5.38,4.08-8.46
		c-6.99-3.51-13.861-7.28-20.971-10.51C268.779,36.58,268.16,39.28,267.039,41 M89.11,60.21C79.53,63.48,73.3,74.84,76.54,84.61
		c1.979,5.65,5.89,10.729,11.08,13.78c10.729,5.85,26.77-0.17,29.05-12.74l1.109,0.21c0.23-3.38,1.95-8.44-1.119-10.75
		c-0.19-0.46-0.57-1.4-0.771-1.86c-2.92,0.33-5.83,0.87-8.62,1.811c0.63,4.819,0.7,10.859-4.479,13.239
		c-1.16-1.149-3.5-1.05-4.62,0.11c-3.73-1.47-6.98-4.13-8.86-7.7c-1.89-3.149-1.689-7.66,1.23-10.149c3.27,0.01,6.55-0.28,9.71-1.15
		c0.3,0.04,0.91,0.13,1.21,0.17c0.62-3.27,1.279-6.569,1.08-9.91C98.09,59.22,93.45,58.79,89.11,60.21 M306.73,68.72
		c-8.989,4.909-18.34,9.159-27.18,14.34c1.889,2.12,3.639,4.8,6.469,5.7c1.74-0.431,3.291-1.36,4.9-2.11
		c1.688,0.33,3.721,0.13,5.051,1.42c1.699,1.49,1.059,3.979,1.209,5.97c-0.299,1.36-1.82,3-0.57,4.29c2.521,3,5.49,5.66,8.892,7.641
		c2.959-8.91,5.949-17.801,8.778-26.75c1.701-5.53,4.07-10.881,5.103-16.61C314.881,64.01,310.881,66.54,306.73,68.72 M196.29,66.19
		c-21.92,0.35-43.66,6.58-62.69,17.43c-27.74,15.79-49.52,41.8-60.02,71.97c-6.891,19.261-8.841,40.101-6.591,60.382
		c3.33,28.358,16.04,55.59,35.841,76.188c20.689,22.199,49.33,36.681,79.38,40.609c23.171,2.941,47.159,0.17,68.779-8.809
		c27.392-11.211,50.74-31.861,65.431-57.531c18.26-31.562,22.43-70.721,11.77-105.521c-9.039-30.34-29.528-56.939-56.18-73.93
		C249.641,72.62,222.859,65.25,196.29,66.19 M41.32,141.3C33,143.67,27.16,152.42,28.11,161.01c0.62,6.96,5.49,13.289,12.03,15.729
		c7.03,2.75,15.61,0.63,20.58-5.04c5.88-6.29,6.271-16.729,1.13-23.58C57.37,141.8,48.68,139.06,41.32,141.3 M348.32,141.28
		c-8.041,2.25-14.1,10.33-13.35,18.76c-0.08,10.58,10.52,19.37,20.889,17.75c9.611-0.87,17.41-10.16,16.371-19.81
		C372.029,146.37,359.26,137.67,348.32,141.28 M37.67,225.619c-2.37-0.1-5.54-0.229-6.59,2.433c-1.24,3.42-2.53,6.817-4.021,10.147
		c-1.16,2.531,1.021,4.65,2.71,6.23c-0.31,1.77-0.95,3.561-0.59,5.381c0.63,1.899,2.55,2.819,4,4.02c2.18,1.5,3.92,3.551,6.11,5.039
		c2.189,1.191,4.52-0.17,6.64-0.83c1.91,1.222,4.311,2.881,6.58,1.441c3.05-1.972,6.08-3.971,9.229-5.791
		c2.48-1.51,1.771-4.709,1.58-7.119c1.87-1.211,4.2-2.91,3.601-5.49c-0.98-3.68-2.04-7.33-2.86-11.041
		c-0.7-2.549-3.71-2.828-5.85-3.369c-0.86-2.159-1.8-5.051-4.59-5.159c-3.891-0.062-7.75-0.529-11.63-0.671
		C39.42,220.859,38.59,223.721,37.67,225.619 M347.02,222.029c-1.799,0.82-1.969,3-2.58,4.641c-2.289,0.552-5.569,0.67-6.229,3.472
		c-0.818,3.709-1.898,7.358-2.818,11.049c-0.44,2.59,1.83,4.281,3.59,5.721c-0.141,2.07-0.86,4.619,0.9,6.24
		c1.859,1.539,4.139,2.43,6.09,3.84c2.09,1.34,4.16,3.48,6.889,3.01c1.33-0.489,2.361-1.51,3.48-2.35
		c2.09,1.299,4.881,2.729,7.15,0.93c2.698-2.319,5.438-4.608,8.25-6.801c2.34-1.83,1.198-4.979,0.67-7.379
		c1.909-1.43,3.971-3.721,2.77-6.281c-1.51-3.35-2.721-6.817-4.09-10.229c-1.17-2.541-4.18-2.353-6.521-2.33
		c-0.76-1.791-1.45-4.23-3.67-4.621c-2.659-0.299-5.301,0.451-7.95,0.43C350.971,221.49,348.84,221.061,347.02,222.029
		 M308.77,301.16c-3.83,3-7,6.709-10.58,9.972c-0.91,0.84-1.809,1.688-2.698,2.559c-1.181,1.191-2.392,2.35-3.601,3.51
		c2.09,5.66,8.879,9.09,8.771,15.5c-0.632-0.08-1.9-0.229-2.541-0.299c-3.619-3.721-6.261-8.27-9.511-12.301
		c-2.448,0.871-4.438,2.57-6.409,4.211c2.961,4.459,5.891,9.09,9.95,12.639c0.181,0.34,0.55,1,0.74,1.34
		c4.42,3.201,12.299,1.861,13.879-3.938c2.142-0.4,2.16-5.359,0.051-5.82c-0.319-1.549-1.221-2.879-2.149-4.108
		c-0.789-2.632-2.08-5.279-1.562-8.101c4.011,3.84,7.791,7.91,11.9,11.642c3.18-2.781,6.311-5.66,9.061-8.871
		c1.92-1.949,1.949-4.98,1.16-7.439c-0.881-2.02-3.031-2.951-4.66-4.26c-2.438-1.681-3.221-5.281-6.27-6.121
		C314.061,299.07,309.141,299.08,308.77,301.16 M77.97,313.061c-1.68,1.559-3.24,3.24-4.79,4.93c1.41,1.48,2.84,2.949,4.271,4.42
		l-0.54,0.619c2.97-1.1,4.8-3.809,7.3-5.6c1.99,0.358,3.24,2.358,4.79,3.541l-0.53,0.309c0.91,0.562,1.82,1.121,2.73,1.683
		c-0.91,3.6-2.25,7.539-0.19,11.02l0.45-1.061c2.58,6.479,11.02,9.801,17.1,6.211c0.72,0.108,2.141,0.33,2.851,0.438
		c0.17,3.939,0.659,8.43,4.46,10.609c4.449,4.608,12.81,4.791,17.1-0.129c0.91-1.07,2.22-1.961,2.56-3.392
		c1.301-1.778,3.091-3.198,5.24-1.83c-0.17,1.882-0.279,3.771-0.3,5.66c-1.62,3.101-3.08,6.58-3.11,10.119
		c1.21,1.951,4.271,1.74,6.351,2.312c1.59-3.24,2.74-6.65,3.76-10.101c1.98-2.461,4.62-4.149,7.69-4.91l-0.601-0.1
		c0.92-1.631,1.18-3.461,1.26-5.301c-1-0.33-1.989-0.66-2.989-0.98c-2.49-3.41-7.23-4.029-11.16-3.979
		c-0.42,0.01-1.26,0.028-1.681,0.039c-1.489-0.271-2.949-0.629-4.39-1.052c-2.21-5.92-9.33-7.209-14.89-6.108
		c-1.51,0-2.9,0.75-4.3,1.221c-0.061-2.82-0.131-5.729-1.48-8.281c-0.16,0.433-0.479,1.302-0.63,1.74
		c-1.48-3.139-3.63-6.279-7.2-7.17c-3.13-0.68-6.85-0.979-9.64,0.941c-1.24-0.271-2.49-0.541-3.73-0.812c0.92-1,1.84-2,2.771-2.99
		c1.109-1.221,2.2-2.461,3.26-3.721c-3.59-3.42-6.88-7.16-10.75-10.279C85.08,304.811,80.67,308.27,77.97,313.061 M98.96,316.471
		c3.01,0.369,6.06,0.358,9.08,0C105.01,316.302,101.98,316.289,98.96,316.471 M268.65,334.302
		c3.279,6.27,7.261,12.147,10.601,18.397c4.199-2.219,8.528-4.299,12.319-7.18c1-1.91-0.979-3.779-1.78-5.4
		c-2.33,0.802-4.629,3.222-7.189,2.312c-3.33-4.42-5.399-9.65-8.67-14.129C271.82,329.811,266.82,330.802,268.65,334.302
		 M247.65,346.99c-0.121,3.472,1.271,7.181,4.271,9.129c0.649,0.683,1.34,1.32,2.08,1.92c2.778,3.041,7.438,2.923,11.119,1.933
		c4.75-1.5,7.012-6.49,7.61-11.08c-1.791-0.26-3.58-0.48-5.381-0.68c-0.449,1.618-0.869,3.237-1.25,4.879
		c-0.24,0.35-0.719,1.061-0.959,1.41c-1.75-0.529-3.551-0.91-5.24-1.591c-2.041-1.68-2.6-4.43-3.52-6.77
		c0.959-1.291,1.85-2.66,3.067-3.711c2.201,0.031,4.33,0.66,6.451,1.188c1.34-1.608,2.4-3.43,2.58-5.549
		c-2.67-1.291-5.451-2.721-8.49-2.49C253.939,336.02,248.539,340.99,247.65,346.99 M99,341.421c2.56,0.26,5.21,0.641,7.75,0.041
		C104.18,341.16,101.58,341.24,99,341.421 M158.77,343.462l0.78,0.198c-0.62,2.029-1.19,4.08-1.59,6.16
		c-1.69,2.17-2.46,4.799-1.76,7.521c-0.921,3.121-1.87,6.278-1.83,9.58c-0.17,1.711,2.81,2.141,3.54,0.76
		c1.29,0.5,2.64,0.891,4.01,1.141c1.92,2.33,6.07,2.039,8.22,0.16c3.28-2.729,3.83-7.02,3.16-11.01c0.1-0.32,0.29-0.961,0.39-1.271
		c0.38-0.16,1.141-0.479,1.53-0.639c1.58-3.76-0.14-8.711-4.17-10.031C167.52,343.421,163.01,343.02,158.77,343.462 M187.3,345.869
		c-2.92,5.302-5.36,10.843-8.18,16.191c-1.44,2.85-3.221,5.639-3.601,8.879c0.25,1.961,4.74,1.941,4.73-0.129
		c1.25-1.531,2.479-3.08,3.729-4.611c3.09,0.32,3.74,3.711,4.87,6.031c2.36,0.23,4.72,0.379,7.101,0.48
		c-1.011-4.961-2.86-9.691-4.271-14.541C190.37,354.02,189.5,349.68,187.3,345.869 M216.369,347.439
		c-1.351,2.521-0.068,5.371,0.28,7.99c1.181,4.891,0.459,10.27,3.14,14.75l0.069,0.979l0.57,0.75
		c3.93,0.789,8.031-0.721,11.66-2.198c1.051-0.212,2.09-0.462,3.131-0.74c-0.271-1.98-0.561-3.951-0.891-5.92
		c-2.25-0.5-4.552-0.49-6.83-0.461c-0.58-2.91-0.851-5.869-1.131-8.812c-0.341-1.289,0.051-3.549-1.761-3.779
		c-0.147-1.141-0.289-2.27-0.43-3.409C221.66,345.311,218.68,346.07,216.369,347.439 M199.23,348.119
		c-0.08,3.381-0.479,6.91,0.87,10.121c0.03,2.049,0.101,4.109,0.24,6.16c-1.47,2.629-0.581,5.779-0.271,8.59
		c5.37,0.529,10.75-0.188,16.071-0.951c0.129-2.059,0.16-4.108,0.101-6.157c-2.642-0.132-5.271-0.23-7.91-0.302
		c-0.09-5.84,0.399-11.711-0.439-17.51C205.02,347.539,202.09,347.552,199.23,348.119 M216.09,96.42
		c2.08,2.49,2.949,5.87,5.59,7.931c5.99,5.81,14.801,6.199,22.6,7.31c1.632,3.32,4.75,5.36,7.541,7.62
		c-1.971,5.01-5.659,9.01-8.659,13.39c-1.791-1.159-3.529-3.87-5.92-2.729c-3.302,1.58-5.109,5.46-4.351,9.03
		c2.17,0.189,4.351,0.239,6.521,0.1c-0.041,1.65-0.101,3.29-0.08,4.94c0.1,2.029,0.35,4.039,0.59,6.06
		c-3.289-1.92-7.119-5.08-11.119-3.25c-4.441,2.26-4.281,8.3-3.08,12.44c0.689,3.109,3.309,5.149,6.08,6.39
		c3-0.12,5.35-1.99,7.539-3.83c0.67,1.67,1.33,3.34,1.938,5.04c-0.049,3.07-0.129,6.61-2.6,8.83c-3.08,3.32-7.879,3.28-12.039,3.52
		c-0.91,5.86,3.5,10.36,4.199,15.92c1.608,9.891,3.041,20.102,8.09,28.94c2.73,5.789,8.051,10.4,14.43,11.59
		c4.882,1,10.603-0.438,13.552-4.688c2.729-4.132,2.698-9.57,1.221-14.15c-2.99-8.58-10.941-14.08-14.682-22.23
		c-2.189-4.779-2.039-10.739,1.03-15.109c4.15-6.12,10.459-10.22,15.75-15.25c2.619-2.55,5.14-5.61,5.65-9.351
		c0.647-6.43-6.17-12.54-12.512-10.63c-3.318,0.811-4.779,4.16-6.279,6.87c-0.629,1.05-1.279,2.101-1.93,3.13
		c0-2.96,0.061-5.939,0.629-8.85c0.94-1.42,1.961-2.78,3.11-4.05c7.529-6.48,20.689-4.891,26.17,3.56
		c2.05,5.19,2.062,11.33-0.961,16.16c-4.938,8.04-13.719,12.33-20.479,18.56c-2.211,1.971-3.67,4.58-4.92,7.221
		c4.709-3.391,9.979-6.57,16.039-6.17c4.68,0.529,8.67,3.489,11.34,7.26c2.59,5.89,0.66,12.729-4.189,16.791l-0.75,0.77
		c0.619-3.869,2.05-8.47-0.871-11.77c-3.34-5.01-11.459-5.3-15.17-0.601c-1.93,2.141-1.93,5.181-1.897,7.881
		c4.619,6.479,10.93,12.17,12.799,20.221c2.051,6.608-0.48,14.67-6.779,17.99c-7.471,4.01-16.541,2.42-24.09-0.562
		c-0.561-0.32-1.68-0.949-2.24-1.27c-2.11-1.353-4.221-2.701-6.42-3.92c1.01,6.159,4.209,12.059,9.5,15.528
		c4.98,3.461,11.32,3.261,17,2.039c-1.471,1.892-3.03,3.722-4.35,5.73c-7.16,9.92-6.771,22.67-6.041,34.291
		c0.391,3.309-2.9,4.319-5.49,4.809c-2.35,0.211-3.07,2.67-4.188,4.33l-0.609-0.67l-0.48-0.539c-0.461-1.27-0.87-2.561-1.28-3.84
		c-0.689-0.07-2.06-0.211-2.75-0.281c-3.109-0.209-4.529,2.592-5.72,4.951c-0.52,0.42-1.569,1.25-2.09,1.67
		c-0.141-2.461-0.26-4.91-0.371-7.359c-1.92,0.14-3.85,0.289-5.75,0.591c-1.698,0.188-3.219,1-4.647,1.879
		c-0.791,1.819-1.392,3.721-2.121,5.58c-0.32-0.5-0.949-1.49-1.271-1.98c0.021-4.738-2.93-11.17,1.921-14.469
		c5.629-3.642,12.68-2.291,19.01-2.941c3.039-5.09,5.75-10.738,5.59-16.799c-0.15-3.42-1.189-7.16-3.98-9.371
		c-3.198-1.26-6.868-0.568-10.059-1.908c-2.83-2.012-3.291-5.961-5.811-8.221c-2.462-0.871-5.132-0.779-7.701-0.801
		c-6.379,0.801-13.42,3.791-16.26,9.93c-1.739,3.98,1.711,7.762,5.211,9.182c1.729,0.771,3.52,1.38,5.288,2.05
		c-0.809,0.371-1.639,0.721-2.459,1.069c-3.291,1.382-6.93,2.58-9.199,5.5c-3.7,4.681-3.65,11.119-6.88,16.052
		c-2.16,3.079-6.461,2.079-9.551,3.409c-1.79,1.761-1.939,4.521-2.87,6.761c-0.619-2.431-1.229-4.871-1.819-7.302
		c-2.061-0.038-4.11-0.09-6.16-0.02c-2.49,1.439-4.41,3.66-5.15,6.469c-0.189,0.521-0.58,1.551-0.77,2.07
		c-0.271-0.43-0.811-1.289-1.08-1.719c0.08-2.33,0.3-4.65,0.53-6.961c-2.551,0.03-5.101,0.03-7.641,0.221
		c-0.54,0.34-1.63,1.02-2.18,1.369c-2.15,0.971-1.01,5.391-3.74,4.881l-0.16-0.67c-0.29-4.01-0.92-8-1.109-12.021
		c-0.21-2.141,1.12-4.239,3.109-5c7.551-2.871,16.301,1.609,23.5-2.569c7.63-4.603,9.5-14.121,11.341-22.15
		c-2.971-2.15-7.461-3.99-7.431-8.311c-0.46-3.41,1.09-6.75,3.73-8.879c8.989-7.972,21.279-10.312,31.14-16.871
		c3.26-2.101,6.08-5.91,4.881-9.97c-0.791-3.891-4.521-5.801-7.801-7.262c0.291,2.871,1.08,5.781,0.561,8.67
		c-2.2,3.16-6.6,2.951-9.92,4.15c-0.711-1.06-1.43-2.119-2.13-3.181c-1.68-2.569-3.08-5.288-4.54-7.979
		c-6.069,7.51-13.46,14.67-23.199,16.871c-2-1.51-3.83-3.441-6.28-4.201c-6.7-0.979-14.59,3.711-14.431,11.09
		c-0.6,0.16-1.789,0.461-2.39,0.621l-0.04-0.859c-0.13-2.409-0.33-4.811-0.54-7.211c-2.42,0.73-4.77,1.689-7.06,2.761
		c0.29-2.32,0.66-4.629,1.06-6.931c-1.34,0.312-2.68,0.631-4,1.021c-0.71,0.381-2.12,1.141-2.819,1.52
		c0.529-2.698,1.649-5.219,3.039-7.578c-1.93,0.181-3.859,0.31-5.729,0.828L131.55,215c0.59-3.961,4.27-6.5,7.81-7.688
		c7.12-1.701,14.98,0.399,21.67-3.201c5.391-2.898,10.551-6.229,15.921-9.179c6.409-3.801,13.13-7.08,19.18-11.46
		c-4.25-0.311-8.54-0.631-12.61-1.971c-0.83-1.51-1.689-3-2.56-4.479c-2.04,2.27-4.09,4.67-6.9,6c-2.88,1.47-6.2,1.399-9.35,1.5
		c-1.8-1.311-3.53-2.69-5.13-4.23c2.75-0.84,7.63,0.24,8.25-3.56c1.01-3.311-2.051-5.61-4.67-6.8c-4.48-1.771-9.19-2.82-13.87-3.891
		c-0.011,11.8-0.08,23.601,0.069,35.399c-1.13,0.18-2.26,0.36-3.38,0.521c-0.76-12.211,0.011-24.461-0.34-36.69
		c-1.43-0.15-2.87-0.29-4.29-0.46c-1.8-0.24-3.85-0.49-5.09-1.96c-1.04-2.19-1.69-4.53-2.6-6.771c-1.32-2.5,1.59-4.899,0.6-7.43
		c-0.33-1.71-0.95-3.63,0.15-5.2c1.239-2.479,4.33-2.84,6.8-2.63c1.53,0.03,3.06,0.09,4.59,0.14c0-0.71,0.01-2.14,0.01-2.85
		c-1.53-0.09-3.06-0.17-4.58-0.271c-2.229-0.1-4.43-0.5-6.58-1.069c1.301-0.9,2.721-1.59,4.181-2.181
		c-1.03-0.77-2.07-1.52-3.03-2.369c-3.36-4.631-5.59-10.36-4.67-16.16c0.51-5.36,4.22-9.58,7.81-13.28
		c7.75-4.14,17.53,0.19,21.75,7.4c3.45,7.819,1.4,17.76-5.43,23.069c-2.09,1.94-5.45,2.76-6.39,5.71c0.34,1.63,0.33,3.46,1.29,4.891
		c2.319,1.68,5.199,2.29,7.88,3.199c3.689,1.46,7.56,2.75,10.88,4.98c3.85,3.479,7.92,6.84,10.939,11.11
		c2.08,2.93,2.061,6.68,2.641,10.1c4.58-0.79,7.29-5.21,7.62-9.57c0.01-2.439-1.37-5.09,0.199-7.31
		c3.061-5.62,6.761-11.19,7.46-17.71c-4.739-2.17-10.35-4.42-11.899-9.97l-0.37-0.86c2.17,1.19,4.06,3,6.51,3.6
		c2.13,0.261,4.19-0.56,6.181-1.22c5.869-1.41,9.738-8.56,6.689-14.02c-1.711-3.551-6.151-2.74-9.371-2.851
		c2.67-4.13,7.891-4.68,12.371-4.62c1.84-0.029,3.689-0.069,5.539-0.109C213.48,104.4,214.25,100.22,216.09,96.42 M143.13,112.6
		c-0.92,1.27-1.96,2.47-2.66,3.88c-0.82,2.13,0.64,4.14,1.4,6.04c2.529,1.96,4.92,4.229,5.55,7.52c5.39-2.6,9.56-9.49,6.79-15.319
		C152.12,110.64,146.63,109.92,143.13,112.6 M223.43,119.05c2.381,2.9,6.701,6.091,10.51,4.021c-1.93-1.58-3.858-3.271-4.6-5.75
		C227.311,117.59,223.92,116.19,223.43,119.05 M231.74,117.18c-0.329,2.17,0.869,3.68,3.039,3.92c0.552-1.4,1.103-2.79,1.642-4.19
		C234.859,116.99,233.301,117.08,231.74,117.18 M137.07,143.99c-0.119,1.69-0.22,3.38-0.27,5.08c3.43,0.44,6.91,0.41,10.33-0.13
		C144.54,146.17,141.28,142.71,137.07,143.99 M138.14,151.45c-2.04,0.6-1.149,3.05-1.479,4.61c3.54,1.189,7.52,0.109,10.569-1.86
		C144.42,152.72,141.37,151.41,138.14,151.45 M138,158.93c0.01,0.79,0.029,2.39,0.04,3.189c2.75,0.01,5.479-0.479,8.05-1.5
		C143.82,158.8,140.82,157.58,138,158.93L138,158.93z"/>
	<path fill="#2B2F36" d="M191.36,21.34c4.801-0.13,9.61-0.13,14.419-0.01c1.011,9.37-0.18,18.811,0.66,28.19
		c3.82,0.06,7.65,0.189,11.461,0.59c0.64,3.51,0.699,7.11-0.02,10.61c-8.82,0.64-17.691,0.479-26.511-0.03
		C191.33,47.57,191.36,34.46,191.36,21.34 M192.29,22.05c-0.011,12.681-0.021,25.351,0,38.03c8.31,0.601,16.671,0.32,24.988,0.141
		c0.142-2.53,0.103-5.07-0.379-7.551c0.101-0.439,0.312-1.31,0.41-1.739c-4.08-0.101-8.16-0.091-12.229-0.091
		c-0.552-9.489,0.311-19.02-0.381-28.489c-0.33-0.17-0.97-0.53-1.3-0.7C199.69,21.71,195.98,21.67,192.29,22.05 M167.82,34.09
		c1.96-0.55,3.95-1.02,5.96-1.38c-1.64,1.38-3.64,2.2-5.43,3.351c2.141,1.09,4.561,1.229,6.92,1.359c-2.14,0.44-4.27,0.87-6.41,1.32
		C168.51,37.19,168.16,35.64,167.82,34.09 M131.44,46.98c0.46,0.979,0.9,1.97,1.351,2.95c-1.9,1.01-3.82,1.989-5.75,2.949
		c-0.42-0.779-0.84-1.56-1.25-2.34c1.2,0.05,2.41,0.15,3.609,0.01C130.68,49.87,130.76,48.14,131.44,46.98 M277.16,49.83
		c2.061,0.88,4.1,1.82,6.09,2.851c-1.99-0.25-3.972-0.49-5.949-0.74c0.09,1.06,0.188,2.12,0.299,3.17
		c-0.811-0.41-1.608-0.83-2.399-1.26C275.85,52.51,276.5,51.17,277.16,49.83 M290.92,86.65c1.02-0.49,2.039-0.96,3.061-1.43
		c1.64,1.329,3.271,2.68,4.89,4.04c-0.539,1.6-1.091,3.199-1.689,4.779c-0.149-1.99,0.49-4.479-1.209-5.97
		C294.641,86.78,292.609,86.98,290.92,86.65 M88.74,311.641c3.069-0.562,5.3,2.08,7.76,3.438c-0.931,0.99-1.851,1.99-2.771,2.99
		c1.24,0.271,2.49,0.539,3.73,0.812c-4.62,3.1-6.61,8.608-6,14.039l-0.45,1.061c-2.06-3.479-0.72-7.42,0.19-11.02
		c-0.91-0.562-1.82-1.121-2.73-1.683L89,320.97c1.439-0.853,2.81-1.812,4.149-2.812C91.63,316.01,90.11,313.882,88.74,311.641
		 M247.65,346.99c0.89-6,6.289-10.971,12.34-11.41c3.039-0.229,5.82,1.199,8.49,2.49c-0.18,2.119-1.24,3.939-2.58,5.549
		c-2.121-0.528-4.25-1.157-6.45-1.188c-1.22,1.051-2.109,2.42-3.068,3.711c0.92,2.34,1.479,5.09,3.52,6.77
		c1.689,0.681,3.49,1.062,5.24,1.591c-2.399,0-5.551,0.909-7.121-1.511c-1.938-2.791-3.84-7.149-1.17-10.08
		c2.211-2.621,5.98-1.051,8.92-1.121c0.531-0.979,1.062-1.948,1.601-2.92c-2.879-0.969-5.908-2.799-9.021-1.76
		c-4.899,1.041-9.399,5.641-8.84,10.891c0,2.882,1.279,5.539,2.41,8.119C248.92,354.171,247.529,350.462,247.65,346.99
		 M158.77,343.462c4.24-0.441,8.75-0.041,12.28,2.567c-3.81-0.889-7.71-1.35-11.5-2.369L158.77,343.462 M216.369,347.439
		c2.311-1.369,5.291-2.129,7.811-0.85c-2.42,0.541-4.85,1.01-7.279,1.489c0.369,7.439,2.312,14.681,2.89,22.101
		c-2.681-4.48-1.959-9.859-3.14-14.75C216.301,352.811,215.02,349.962,216.369,347.439 M199.23,348.119
		c2.86-0.567,5.79-0.58,8.661-0.049c0.84,5.799,0.351,11.67,0.439,17.51c2.641,0.07,5.27,0.17,7.909,0.302
		c0.062,2.049,0.029,4.1-0.1,6.157c-5.32,0.763-10.701,1.48-16.071,0.951c-0.31-2.811-1.199-5.961,0.271-8.59l0.91-0.471
		c0.028,2.319,0.061,4.641,0.17,6.961c0.699,2.85,4.58,1.24,6.51,0.619c2.189-0.08,4.371-0.15,6.57-0.129l1.17,0.049
		c-0.119-1.629-0.23-3.25-0.33-4.859c-2.601-0.051-5.199-0.07-7.789-0.09c-0.062-5.881-0.062-11.781-0.781-17.631
		c-2.219-0.029-4.43-0.021-6.649,0.041c-0.021,3.108-0.021,6.229-0.021,9.35C198.75,355.029,199.15,351.5,199.23,348.119
		 M164.77,349.382c1.83,0.129,4.41,1.219,3.88,3.479c0.2,2.392-2.89,1.66-4.37,2.07C164.42,353.07,164.59,351.221,164.77,349.382
		L164.77,349.382z"/>
	<path fill="#9E8644" d="M192.29,22.05c3.689-0.38,7.399-0.34,11.109-0.399c-0.069,1.04-0.131,2.09-0.18,3.14
		c-2.861-1.08-5.921-1.09-8.911-0.819c-0.05,11.31,0.01,22.63-0.05,33.939l0.04,0.94c6.989,0.42,14.181,1.18,21.05-0.57
		c0.531-1.87,1.062-3.73,1.551-5.61c0.48,2.48,0.521,5.021,0.379,7.551c-8.317,0.18-16.679,0.46-24.988-0.141
		C192.27,47.4,192.28,34.73,192.29,22.05L192.29,22.05z"/>
	<path fill="#A29165" d="M203.4,21.65c0.33,0.17,0.97,0.53,1.3,0.7c0.69,9.47-0.171,19,0.381,28.489
		c4.069,0,8.149-0.01,12.229,0.091c-0.1,0.43-0.311,1.3-0.41,1.739c-0.489,1.88-1.02,3.74-1.551,5.61c-0.17-1.73-0.33-3.47-0.5-5.2
		c-3.93-0.21-7.869-0.28-11.799-0.29c-0.32-9.33-0.353-18.68,0.17-28C203.27,23.74,203.33,22.69,203.4,21.65L203.4,21.65z"/>
	<path fill="#A48C4C" d="M154.12,26.62c7.699-0.76,15.159-2.97,22.81-3.95c2.22,1.96,1.73,5.79,2.65,8.53
		c-1.88,0.69-3.841,1.15-5.801,1.51c-2.01,0.36-4,0.83-5.96,1.38c0.341,1.551,0.69,3.101,1.04,4.65c2.141-0.45,4.271-0.88,6.41-1.32
		c1.63-0.35,3.26-0.699,4.891-1.029c1.319,2.949,1.859,6.149,1.79,9.37c-1.73,0.27-3.45,0.539-5.171,0.869
		c-2.05,0.36-4.079,0.811-6.1,1.311c0.28,1.92,0.56,3.84,0.84,5.75c3.01-0.18,5.96-0.83,8.891-1.54c1.18-0.24,2.38-0.41,3.579-0.5
		c0.75,2.82,1.36,5.67,1.721,8.57c-8.04,2.239-16.311,3.79-24.58,4.89c-2.57-10.22-4.2-20.64-6.37-30.94
		C154.19,31.7,153.87,29.16,154.12,26.62 M156.29,28.67c0.13,2.051,0.37,4.101,0.819,6.11c2,9.24,3.551,18.57,5.7,27.78
		c6.48-0.65,12.86-2.141,19.22-3.53c2.211-0.51,0.461-3.36,0.551-4.84c-4.16,0.27-8.17,1.56-12.33,1.85
		c-0.73-3.24-1.41-6.49-1.95-9.76c3.83-0.86,7.67-1.66,11.49-2.57c-0.3-1.54-0.61-3.09-0.92-4.64c-3.91,0.4-7.75,1.18-11.63,1.75
		c-0.79-2.82-1.301-5.72-1.351-8.65c3.72-0.689,7.42-1.489,11.101-2.399c-0.32-1.57-0.66-3.141-1.011-4.7
		C169.36,25.98,162.86,27.52,156.29,28.67 M267.039,41c1.121-1.72,1.739-4.42,3.871-5.06c7.108,3.229,13.979,7,20.971,10.51
		c-0.771,3.08-2.361,5.83-4.08,8.46c-1.541-0.71-3.051-1.45-4.551-2.229c-1.99-1.03-4.029-1.971-6.09-2.851
		c-0.66,1.34-1.312,2.681-1.961,4.021c0.791,0.43,1.59,0.85,2.399,1.26c2.551,1.29,5.08,2.61,7.562,4.02
		c-0.711,3.091-2.181,5.92-4.062,8.45c-1.24-0.62-2.459-1.25-3.68-1.89c-2.17-1.16-4.351-2.28-6.562-3.351
		c-0.938,1.79-1.868,3.601-2.77,5.41c0.82,0.44,1.649,0.88,2.49,1.32c2.729,1.39,5.51,2.71,8.229,4.14
		c-0.811,2.931-2.18,5.66-3.82,8.221c-7.641-3.37-15.239-6.99-22.358-11.391C257.07,60.19,262.4,50.76,267.039,41 M271.051,38.29
		c-5.312,10.221-10.65,20.431-15.621,30.82c5.971,3.68,12.391,6.55,18.609,9.77c0.729-1.479,1.41-2.989,2.021-4.529
		c-3.479-1.86-6.961-3.721-10.479-5.521c1.028-3.24,2.631-6.25,4.52-9.069c3.562,1.63,6.99,3.55,10.631,5.01
		c0.64-1.51,1.289-3.021,1.939-4.53c-3.33-1.84-6.722-3.55-10.07-5.33c1-2.72,2.271-5.33,3.689-7.85c3.729,1.42,7.2,3.39,10.83,5.02
		c0.721-1.51,1.342-3.06,1.819-4.66C283.01,44.32,276.99,41.38,271.051,38.29 M306.73,68.72c4.15-2.181,8.15-4.71,12.65-6.11
		c-1.031,5.729-3.4,11.08-5.103,16.61c-2.829,8.949-5.819,17.84-8.778,26.75c-3.4-1.98-6.369-4.641-8.892-7.641
		c-1.25-1.29,0.271-2.93,0.57-4.29c0.6-1.58,1.15-3.18,1.689-4.779c-1.619-1.36-3.25-2.711-4.89-4.04
		c-1.021,0.47-2.041,0.939-3.061,1.43c-1.609,0.75-3.16,1.68-4.9,2.11c-2.83-0.9-4.58-3.58-6.469-5.7
		C288.391,77.88,297.74,73.63,306.73,68.72 M309.631,69.59c-8.801,4.71-17.66,9.28-26.541,13.811c0.961,1.21,1.99,2.36,3.07,3.47
		c2.688-1.14,5.33-2.39,7.909-3.76c2.459,1.689,4.681,3.7,6.689,5.91c-0.9,2.59-1.76,5.18-2.641,7.76c1.909,2.05,3.979,4,6.521,5.27
		c3.601-11.819,8.021-23.39,11.359-35.279C313.811,67.55,311.67,68.47,309.631,69.59 M159.55,343.66
		c3.79,1.021,7.69,1.48,11.5,2.369c4.03,1.32,5.75,6.271,4.17,10.031c-0.39,0.16-1.15,0.479-1.53,0.639
		c0.74-2.688,1.431-6.299-1.13-8.26c-3.62-2.4-8.1-2.76-12.28-3.42c-1.489,6.961-3.72,13.77-4.6,20.85
		c4.24,0.99,8.61,3.191,13.03,2.111c4-1.67,3.149-6.67,4.59-10.01c0.67,3.99,0.12,8.278-3.16,11.01c-2.74-0.141-5.479-0.1-8.22-0.16
		c-1.37-0.25-2.72-0.641-4.01-1.141c-1.101-0.521-2.301-1.16-3.54-0.76c-0.04-3.302,0.909-6.459,1.83-9.58
		c0.729-2.472,1.279-4.99,1.76-7.521C158.36,347.74,158.93,345.689,159.55,343.66L159.55,343.66z"/>
	<path fill="#FFFFFA" d="M194.31,23.97c2.99-0.271,6.05-0.261,8.911,0.819c-0.521,9.32-0.49,18.67-0.17,28
		c3.93,0.01,7.869,0.08,11.799,0.29c0.17,1.73,0.33,3.47,0.5,5.2c-7.02-0.42-14.061-0.14-21.09-0.37
		C194.32,46.6,194.26,35.28,194.31,23.97 M156.29,28.67c6.569-1.149,13.069-2.689,19.689-3.6c0.351,1.56,0.69,3.13,1.01,4.7
		c-3.68,0.91-7.38,1.71-11.1,2.399c0.05,2.931,0.561,5.83,1.35,8.65c3.881-0.57,7.721-1.35,11.631-1.75
		c0.31,1.55,0.619,3.1,0.92,4.64c-3.82,0.91-7.66,1.71-11.49,2.57c0.54,3.27,1.22,6.52,1.95,9.76c4.16-0.29,8.17-1.58,12.33-1.85
		c-0.091,1.479,1.659,4.33-0.551,4.84c-6.359,1.39-12.739,2.88-19.22,3.53c-2.149-9.21-3.7-18.54-5.7-27.78
		C156.66,32.77,156.42,30.72,156.29,28.67 M233.43,30.48c6.621-4.08,16.73-0.13,18.18,7.76c-1.34,0.54-2.688,1.04-4.069,1.49
		c-1.09-2.561-2.101-6.11-5.5-6.17c-3.511-0.851-5.689,3.439-4.029,6.229c1.938,3.36,5.74,5.061,8.051,8.141
		c3.219,3.659,2.359,9.77-1.291,12.83c-3.969,3.52-10.119,3.39-14.639,1.06c-3.051-1.58-4.762-4.7-6.021-7.75
		c1.382-0.18,2.812-0.92,4.211-0.521c1.75,2.16,3.24,5.5,6.57,5.181c3.57,0.189,5.779-4.46,3.76-7.25
		c-2.84-3.641-7.621-5.851-9.041-10.51C228.881,37.15,229.83,32.56,233.43,30.48 M271.051,38.29c5.938,3.09,11.959,6.03,17.889,9.13
		c-0.479,1.601-1.1,3.15-1.819,4.66c-3.629-1.63-7.101-3.6-10.83-5.02c-1.42,2.52-2.689,5.13-3.689,7.85
		c3.351,1.78,6.74,3.49,10.07,5.33c-0.65,1.51-1.301,3.021-1.939,4.53c-3.641-1.46-7.069-3.38-10.631-5.01
		c-1.889,2.819-3.49,5.829-4.52,9.069c3.52,1.8,7,3.66,10.479,5.521c-0.61,1.54-1.291,3.05-2.021,4.529
		c-6.22-3.22-12.64-6.09-18.609-9.77C260.4,58.72,265.74,48.51,271.051,38.29 M80.33,70.33c3.739-7.1,12.26-10.149,19.91-8.649
		c-0.131,1.67-0.28,3.34-0.421,5.01c-3.64,0.05-7.779-0.19-10.68,2.43c-3.25,2.67-4.33,7.47-2.42,11.24
		c2.36,4.93,6.7,9.62,12.36,10.36c3.62,0.56,7.399-1.271,9.18-4.471c1.78-2.72,1.28-6.1,1.72-9.16c0.95-1.529,3.24-0.68,4.771-1.069
		c0.21,3.89,0.479,7.95-0.971,11.649c-2.399,6.37-9.06,10.591-15.77,10.73C84.26,99.75,72.78,82.19,80.33,70.33 M309.631,69.59
		c2.039-1.119,4.18-2.04,6.369-2.819c-3.34,11.89-7.761,23.46-11.359,35.279c-2.541-1.27-4.611-3.22-6.521-5.27
		c0.881-2.58,1.739-5.17,2.641-7.76c-2.01-2.21-4.23-4.221-6.689-5.91c-2.579,1.37-5.221,2.62-7.909,3.76
		c-1.08-1.109-2.109-2.26-3.07-3.47C291.971,78.87,300.83,74.3,309.631,69.59 M297.801,81.07c1.379,1.26,2.818,2.45,4.299,3.59
		c0.961-2.189,1.689-4.46,2.17-6.8C302.01,78.71,299.85,79.8,297.801,81.07L297.801,81.07z"/>
	<path fill="#A28C51" d="M233.199,28.14c8.729-4.931,22.239,2.63,20.182,13.159c-2.611,0.091-5.211,0.24-7.82,0.391
		c-0.649-1.851-1.319-3.68-1.99-5.521c-1.25-0.06-2.51-0.12-3.76-0.17c-0.311,3.95,3.299,5.9,5.84,8.17
		c2.289,2.04,3.98,4.83,4.58,7.851c0.699,5.279-2.551,10.84-7.61,12.64c-6.029,2.17-13.738,0.76-17.761-4.51
		c-1.68-2.03-2.42-4.601-3.118-7.09c2.549-1.221,5.27-2.08,8.079-2.48c1,2.101,2.05,4.17,3.13,6.22c1.95,0.04,3.7-0.71,5.17-1.97
		c-0.529-0.96-1.05-1.92-1.619-2.85c-2.961-2.87-6.74-5.15-8.49-9.04C226.039,37.65,227.711,30.59,233.199,28.14 M233.43,30.48
		c-3.6,2.08-4.549,6.67-3.82,10.49c1.42,4.659,6.201,6.869,9.041,10.51c2.021,2.79-0.188,7.439-3.76,7.25
		c-3.33,0.319-4.82-3.021-6.57-5.181c-1.399-0.399-2.829,0.341-4.211,0.521c1.261,3.05,2.972,6.17,6.021,7.75
		c4.52,2.33,10.67,2.46,14.639-1.06c3.65-3.061,4.51-9.171,1.291-12.83c-2.311-3.08-6.11-4.78-8.051-8.141
		c-1.66-2.79,0.52-7.08,4.029-6.229c3.399,0.06,4.41,3.609,5.5,6.17c1.381-0.45,2.729-0.95,4.069-1.49
		C250.16,30.35,240.051,26.4,233.43,30.48L233.43,30.48z"/>
	<path fill="#A48C49" d="M127.01,37.19c3.68-2.021,7.33-4.29,11.52-5.08c5.32,11.65,11.29,23,16.271,34.8
		c-3.66,2.07-7.37,4.23-11.521,5.16c-2.199-4.12-3.93-8.47-5.989-12.65c-2.32-0.83-4.391,0.811-6.41,1.69
		c0.58,1.36,1.149,2.72,1.77,4.06c1.641,3.261,3.4,6.471,4.66,9.92c-3.52,2.19-7.26,4.091-11.26,5.261
		c-2.771-4.28-4.561-9.07-6.771-13.641c-3.329-6.93-6.68-13.85-9.84-20.859c3.37-2.69,7.471-4.13,11.44-5.66
		c1.8,3.37,3.21,6.93,4.91,10.35c0.41,0.78,0.83,1.561,1.25,2.34c1.93-0.96,3.85-1.939,5.75-2.949
		c-0.45-0.98-0.891-1.971-1.351-2.95C129.81,43.79,128.02,40.65,127.01,37.19 M129.81,38.12c1.48,4.42,3.87,8.46,5.48,12.83
		c-2.98,1.74-6.101,3.2-9.32,4.42c-2.31-3.99-4.02-8.29-6.21-12.34c-2.61,0.94-5.12,2.12-7.59,3.37
		c4.62,10.64,9.87,21.02,14.92,31.479c2.57-1.069,5.07-2.3,7.439-3.75c-1.949-4.689-4.35-9.18-6.289-13.88
		c3.1-1.63,6.26-3.18,9.56-4.37c2.45,4.49,4.14,9.391,7,13.66c2.47-1.1,4.89-2.29,7.229-3.66c-4.779-10.46-9.63-20.92-14.979-31.1
		C134.57,35.74,132.15,36.85,129.81,38.12L129.81,38.12z"/>
	<path fill="#FFFFFC" d="M129.81,38.12c2.34-1.27,4.76-2.38,7.24-3.34c5.35,10.18,10.2,20.64,14.979,31.1
		c-2.34,1.37-4.76,2.561-7.229,3.66c-2.86-4.27-4.55-9.17-7-13.66c-3.3,1.19-6.46,2.74-9.56,4.37c1.939,4.7,4.34,9.19,6.289,13.88
		c-2.369,1.45-4.869,2.681-7.439,3.75c-5.05-10.46-10.3-20.84-14.92-31.479c2.47-1.25,4.979-2.43,7.59-3.37
		c2.19,4.05,3.9,8.35,6.21,12.34c3.22-1.22,6.34-2.68,9.32-4.42C133.68,46.58,131.29,42.54,129.81,38.12L129.81,38.12z"/>
	<path fill="#03317F" d="M239.811,36c1.25,0.05,2.51,0.11,3.76,0.17c0.671,1.841,1.341,3.67,1.99,5.521
		c2.609-0.15,5.209-0.3,7.82-0.391c-2.441,1.29-5.07,2.171-7.73,2.87C243.109,41.9,239.5,39.95,239.811,36L239.811,36z"/>
	<path fill="#374041" d="M170.68,47.94c2.021-0.5,4.05-0.95,6.1-1.311c-1.109,1.19-2.689,1.69-4.17,2.25
		c-0.17,0.98-0.33,1.971-0.5,2.96c2.771,0.171,5.53,0.23,8.301,0.311c-2.931,0.71-5.881,1.36-8.891,1.54
		C171.24,51.78,170.96,49.86,170.68,47.94L170.68,47.94z"/>
	<path fill="#424740" d="M236.5,51.98c0.569,0.93,1.09,1.89,1.619,2.85c-1.47,1.26-3.22,2.01-5.17,1.97
		C234.57,55.55,235.84,53.93,236.5,51.98L236.5,51.98z"/>
	<path fill="#E1C278" d="M194.26,57.91c7.029,0.23,14.07-0.05,21.09,0.37c-6.869,1.75-14.061,0.99-21.05,0.57L194.26,57.91
		L194.26,57.91z"/>
	<path fill="#A48C4D" d="M89.11,60.21c4.341-1.42,8.98-0.989,13.431-0.54c0.2,3.341-0.46,6.641-1.08,9.91
		c-0.3-0.04-0.91-0.13-1.21-0.17c-3.28-0.58-6.9-1.12-9.71,1.15c-2.92,2.489-3.12,7-1.23,10.149c1.88,3.57,5.13,6.23,8.86,7.7
		c1.399,0.84,3.33,1.05,4.62-0.11c5.18-2.38,5.109-8.42,4.479-13.239c2.79-0.94,5.7-1.48,8.62-1.811c0.2,0.46,0.58,1.4,0.771,1.86
		c0.33,3.5,0.359,7.04,0.01,10.54c-2.28,12.57-18.32,18.59-29.05,12.74c-5.19-3.051-9.101-8.13-11.08-13.78
		C73.3,74.84,79.53,63.48,89.11,60.21 M80.33,70.33C72.78,82.19,84.26,99.75,98.01,98.4c6.71-0.14,13.37-4.36,15.77-10.73
		c1.45-3.699,1.181-7.76,0.971-11.649c-1.53,0.39-3.82-0.46-4.771,1.069c-0.439,3.061,0.061,6.44-1.72,9.16
		c-1.78,3.2-5.56,5.03-9.18,4.471c-5.66-0.74-10-5.431-12.36-10.36c-1.91-3.771-0.83-8.57,2.42-11.24c2.9-2.62,7.04-2.38,10.68-2.43
		c0.141-1.67,0.29-3.34,0.421-5.01C92.59,60.18,84.07,63.23,80.33,70.33 M216.9,348.08c2.431-0.479,4.859-0.948,7.279-1.489
		c0.141,1.141,0.281,2.27,0.43,3.409c0.521,4.841,1.121,9.689,2.371,14.4c2.459-0.371,4.92-0.791,7.351-1.35
		c0.33,1.969,0.619,3.938,0.891,5.92c-1.041,0.278-2.08,0.528-3.131,0.74c-4.08,0.459-8.18,0.729-12.23,1.448l-0.069-0.979
		C219.211,362.76,217.27,355.52,216.9,348.08 M217.789,348.93c1.012,7.031,2.11,14.041,3.301,21.041
		c4.371-0.361,8.68-1.191,12.971-2.062c-0.281-1.131-0.57-2.26-0.85-3.381c-2.371,0.4-4.73,0.801-7.103,1.16
		c-1.539-5.84-1.77-11.92-3.18-17.779C221.211,348.24,219.5,348.57,217.789,348.93L217.789,348.93z"/>
	<path fill="#323C41" d="M130.88,61.11c2.02-0.88,4.09-2.521,6.41-1.69c-1.36,0.66-2.75,1.301-4.13,1.92
		c-0.181,1.28-0.351,2.551-0.511,3.83C132.03,63.83,131.46,62.47,130.88,61.11L130.88,61.11z"/>
	<path fill="#2B3B48" d="M268.09,67.75c0.899-1.81,1.83-3.62,2.77-5.41c2.211,1.07,4.392,2.19,6.562,3.351
		c-2.189-0.42-4.381-0.88-6.562-1.34c-0.118,1.569-0.219,3.14-0.278,4.72C269.74,68.63,268.91,68.19,268.09,67.75L268.09,67.75z"/>
	<path fill="#BA8A1D" d="M196.29,66.19c26.568-0.94,53.351,6.43,75.72,20.79c26.65,16.99,47.141,43.59,56.18,73.93
		c10.66,34.8,6.49,73.959-11.77,105.521c-14.689,25.67-38.039,46.319-65.43,57.531c-21.621,8.979-45.609,11.75-68.78,8.809
		c-30.05-3.93-58.69-18.41-79.38-40.609c-19.801-20.6-32.511-47.83-35.84-76.188c-2.25-20.281-0.301-41.121,6.59-60.382
		c10.5-30.17,32.279-56.18,60.02-71.97C152.63,72.77,174.37,66.54,196.29,66.19 M186.33,71.2c-15.891,1.561-31.42,6.28-45.61,13.58
		c-27.94,14.27-50.26,39.09-61.52,68.37c-10.04,25.86-11.431,54.93-4,81.65c7.64,27.789,24.96,52.779,48.25,69.738
		c22.51,16.611,50.579,25.552,78.55,24.951c26.881-0.25,53.59-9.278,75.141-25.35c23.01-16.972,40.17-41.75,47.719-69.341
		c7.552-27.211,5.99-56.9-4.58-83.101c-10.51-26.41-30.079-49.05-54.579-63.42C242,74.25,213.699,68.2,186.33,71.2 M295.49,313.689
		c3.48,3.191,6.261,7.041,9.181,10.73c0.93,1.229,1.83,2.561,2.149,4.108c0.011,1.941-0.01,3.871-0.051,5.82
		c-1.58,5.801-9.459,7.141-13.879,3.938c2.809,0.32,5.779,1.451,8.549,0.281c4.15-1.471,6.511-7.121,3.951-10.899
		c-2.701-4.449-6.061-8.449-9.361-12.449c-0.93,0.869-1.85,1.76-2.76,2.647c2.812,4.343,6.5,8.093,9.08,12.593
		c1.301,2.618-2.799,5.448-4.77,3.18c-3.591-3.73-6.132-8.32-9.601-12.16c-1.461,1.109-2.91,2.219-4.35,3.35
		c2.809,4.052,6.1,7.802,8.52,12.119c-4.061-3.549-6.989-8.18-9.951-12.639c1.972-1.641,3.962-3.34,6.41-4.211
		c3.25,4.031,5.892,8.58,9.511,12.301c0.641,0.07,1.909,0.219,2.541,0.299c0.108-6.41-6.681-9.84-8.771-15.5
		C293.1,316.039,294.311,314.882,295.49,313.689 M187.3,345.869c2.2,3.812,3.07,8.15,4.38,12.302c1.41,4.85,3.26,9.579,4.271,14.541
		c-2.381-0.103-4.74-0.25-7.101-0.48c-1.13-2.32-1.78-5.711-4.87-6.031c-1.25,1.531-2.479,3.08-3.729,4.611
		c-1.57-0.16-3.16-0.1-4.73,0.129c0.38-3.24,2.16-6.029,3.601-8.879C181.94,356.712,184.38,351.171,187.3,345.869 M187.21,348.789
		c-3.73,6.98-7.65,13.941-10.41,21.371c0.78,0.021,2.33,0.052,3.1,0.07c0.841-1.611,1.681-3.221,2.5-4.83
		c1.71,0.23,3.41,0.5,5.11,0.812c0.56,1.6,1.14,3.198,1.72,4.799c1.75,0.188,3.511,0.34,5.28,0.451
		C192.51,363.789,190.33,356.08,187.21,348.789L187.21,348.789z"/>
	<path fill="#2A3843" d="M90.54,70.56c2.81-2.271,6.43-1.73,9.71-1.15C97.09,70.28,93.81,70.57,90.54,70.56L90.54,70.56z"/>
	<path fill="#1D2F44" d="M116.66,75.11c3.069,2.31,1.35,7.37,1.119,10.75l-1.109-0.21C117.02,82.15,116.99,78.61,116.66,75.11
		L116.66,75.11z"/>
	<path fill="#B3944A" d="M297.801,81.07c2.049-1.271,4.209-2.36,6.469-3.21c-0.479,2.34-1.209,4.61-2.17,6.8
		C300.619,83.52,299.18,82.33,297.801,81.07L297.801,81.07z"/>
	<path fill="#514E34" d="M98.17,88.41c1.12-1.16,3.46-1.26,4.62-0.11C101.5,89.46,99.57,89.25,98.17,88.41L98.17,88.41z"/>
	<path fill="#596DB1" d="M207.891,108.71c-1.44-5.85,3.639-9.91,8.199-12.29c-1.84,3.801-2.609,7.98-2.66,12.181
		C211.58,108.64,209.73,108.68,207.891,108.71 M194.83,113.34l0.689-0.01c3.221,0.11,7.66-0.7,9.371,2.851
		c3.049,5.46-0.82,12.609-6.689,14.02c1.869-3.26,4.06-7.08,2.51-10.92c-0.73-2.5-3.65-2.74-5.701-3.53
		C194.96,115.15,194.87,113.94,194.83,113.34L194.83,113.34z"/>
	<path fill="#586EB1" d="M128.85,113.69c1.41-4.93,5.18-9.25,10.09-10.91c-3.59,3.7-7.3,7.92-7.81,13.28
		c-0.92,5.8,1.31,11.529,4.67,16.16C129.3,128.85,127.07,120.41,128.85,113.69 M155.98,292.4c2.54-0.189,5.09-0.189,7.641-0.221
		c-0.23,2.311-0.45,4.631-0.53,6.961c-0.57-0.361-1.72-1.091-2.29-1.461C160.08,295.07,159.2,292.391,155.98,292.4L155.98,292.4z"/>
	<path fill="#D3D3D6" d="M160.69,110.18c3.551,0.31,5.16,3.869,6.44,6.72c2.13,5.82,1.189,12.72-2.57,17.68
		c-2.49,3.55-6.29,5.82-10.06,7.8c-1.771-1.3-3.71-2.359-5.63-3.42c0.939-2.949,4.3-3.77,6.39-5.71
		C162.09,127.94,164.14,118,160.69,110.18 M286.09,187.94c4.188,1.45,7.08,5.62,7.08,10.05c0.438,6.271-4.101,12.021-9.789,14.241
		c-0.25-2.551-0.592-5.09-1.48-7.5C286.75,200.67,288.68,193.83,286.09,187.94 M197.37,273.42c2.27-2.92,5.908-4.118,9.199-5.5
		c2.709,1.33,5.48,2.511,8.271,3.66c-4.141,2.101-9.17,3.26-11.971,7.279c-3.239,4.451-3.199,10.352-6.05,14.971
		c-2.18,3.539-6.79,2.601-10.109,4.01c-1.311,1.99-1.681,4.462-2.641,6.632c-2.21-1.341-4.25-2.941-6-4.83
		c0.931-2.24,1.08-5,2.87-6.761c3.09-1.329,7.391-0.329,9.551-3.409C193.72,284.539,193.67,278.1,197.37,273.42L197.37,273.42z"/>
	<path fill="#596DB2" d="M143.13,112.6c3.5-2.681,8.99-1.96,11.08,2.12c2.77,5.829-1.4,12.72-6.79,15.319
		c-0.63-3.29-3.021-5.56-5.55-7.52c2.93-0.2,7.5,0.17,7.77-3.86C150.33,114.72,146.17,113.27,143.13,112.6L143.13,112.6z"/>
	<path fill="#D2D3D9" d="M143.13,112.6c3.04,0.67,7.2,2.12,6.51,6.06c-0.27,4.03-4.84,3.66-7.77,3.86
		c-0.761-1.9-2.221-3.91-1.4-6.04C141.17,115.07,142.21,113.87,143.13,112.6L143.13,112.6z"/>
	<path fill="#CDD3E0" d="M223.43,119.05c0.49-2.859,3.881-1.46,5.91-1.729c0.74,2.479,2.67,4.17,4.6,5.75
		C230.131,125.14,225.811,121.95,223.43,119.05L223.43,119.05z"/>
	<path fill="#B4C8EB" d="M231.74,117.18c1.562-0.101,3.119-0.19,4.681-0.271c-0.539,1.4-1.09,2.79-1.642,4.19
		C232.609,120.86,231.41,119.35,231.74,117.18L231.74,117.18z"/>
	<path fill="#D3D3D7" d="M251.82,119.28c1.931,1.75,4.9,3.02,5.521,5.73c-1.289,3.289-3.74,5.949-5.449,9.01
		c-1.66-0.46-3.291-1-4.961-1.37c-0.66,0.87-1.141,1.84-1.43,2.91c-2.73-2.33-4.73,1.609-6.09,3.51
		c-2.171,0.14-4.351,0.09-6.521-0.1c-0.76-3.57,1.049-7.45,4.35-9.03c2.392-1.141,4.13,1.57,5.921,2.729
		C246.16,128.29,249.85,124.29,251.82,119.28 M219.211,296.6c1.43-0.879,2.949-1.689,4.647-1.879
		c0.681,0.118,2.052,0.368,2.73,0.489c0.75,1.431,1.51,2.869,2.291,4.289c-3.392,0.881-4.66,4.16-6.041,6.99
		C220.18,303.869,219.971,300.029,219.211,296.6L219.211,296.6z"/>
	<path fill="#5A6DB2" d="M185.08,133.83c-0.431-1.77,0.21-3.5,0.8-5.149c1.55,5.55,7.16,7.8,11.899,9.97
		c-0.699,6.52-4.399,12.09-7.46,17.71c-1.569,2.22-0.189,4.87-0.199,7.31c-0.33,4.36-3.04,8.78-7.62,9.57
		c-0.58-3.42-0.561-7.17-2.641-10.1c-3.02-4.271-7.09-7.63-10.939-11.11c4.71,0.37,9.38,1.19,14.1,1.44
		c3.08-3.87,5.681-8.091,7.971-12.471C188.71,138.94,185.52,137.18,185.08,133.83 M263.369,144.25
		c6.342-1.91,13.159,4.2,12.512,10.63c-0.512,3.74-3.031,6.801-5.65,9.351c-5.291,5.03-11.6,9.13-15.75,15.25
		c-3.069,4.37-3.221,10.33-1.03,15.109c3.739,8.15,11.69,13.65,14.682,22.23c1.479,4.58,1.51,10.02-1.221,14.15
		c-2.949,4.25-8.671,5.688-13.552,4.688c-6.379-1.188-11.698-5.801-14.43-11.59c1.609,1.379,3.301,2.688,5.062,3.9
		c4.479,2.528,10.379,3.85,15.1,1.229c3.791-2.1,4.92-7.049,3.68-10.969c-1.789-6.15-6.809-10.49-10.52-15.472
		c-4.869-6.18-8.08-14.819-5.021-22.51c4.039-9.16,13.359-14.02,19.601-21.399c1.561-1.69,2.08-3.98,2.16-6.221
		c-1.052-3.3-4.371-5.55-7.812-4.33c-1.4,0.891-2.77,1.83-4.09,2.82C258.59,148.41,260.051,145.06,263.369,144.25 M141.35,164.81
		c1.42,0.17,2.86,0.31,4.29,0.46c0.351,12.229-0.42,24.479,0.34,36.69c1.12-0.16,2.25-0.342,3.38-0.521
		c2.021-0.49,4-1.18,5.87-2.089c5.29-2.971,10.061-6.761,15.13-10.07c4.301-2.729,8.851-5.06,13.16-7.78
		c4.07,1.34,8.36,1.66,12.61,1.971c-6.05,4.38-12.771,7.659-19.18,11.46c-5.37,2.949-10.53,6.28-15.921,9.179
		c-6.689,3.602-14.55,1.5-21.67,3.201c-3.54,1.188-7.22,3.729-7.81,7.688l-0.3,1.119c-1.66-0.83-0.57-2.869-0.391-4.229
		c1.131-5.211,6.48-7.371,10.58-9.841C141.45,189.64,141.55,177.23,141.35,164.81 M211.26,204.949
		c3.279,1.461,7.01,3.371,7.801,7.262c1.199,4.06-1.621,7.869-4.881,9.97c-9.859,6.561-22.15,8.899-31.14,16.87
		c-2.641,2.13-4.19,5.47-3.73,8.88c-0.03,4.319,4.46,6.159,7.43,8.311c-1.84,8.029-3.71,17.549-11.34,22.15
		c-7.199,4.18-15.949-0.302-23.5,2.569c-1.989,0.761-3.319,2.859-3.109,5c0.189,4.021,0.819,8.011,1.109,12.021
		c-1.25-1.351-2.02-3.041-1.899-4.91c-0.04-4.42-0.98-9.49,1.99-13.24c2.1-1.438,4.489-2.41,6.96-3.01
		c5.75-0.08,13.029,2.549,17.489-2.41c3.431-4.631,4.601-10.641,4.87-16.291c-1.18-3.26-5.609-4.619-6.39-8.279
		c-1.37-7.02,3.359-13.229,8-17.92c6.16-5.778,13.12-10.959,20.979-14.149c3.32-1.199,7.72-0.99,9.92-4.15
		C212.34,210.73,211.551,207.82,211.26,204.949 M214.789,245.689c2.569,0.021,5.239-0.07,7.701,0.801
		c2.52,2.26,2.979,6.209,5.811,8.221c3.188,1.34,6.859,0.648,10.059,1.908c2.791,2.211,3.83,5.951,3.98,9.371
		c0.16,6.061-2.551,11.709-5.59,16.799c-6.33,0.65-13.381-0.699-19.01,2.941c-4.851,3.299-1.9,9.729-1.921,14.469
		c-2.45-4.318-2.649-10.219-0.319-14.609c4.09-4.959,11.229-4.18,16.949-5.188c1.819-0.09,2.102-2.15,2.5-3.541
		c0.512-2.92,0.471-5.959-0.029-8.879c-0.279-1.281-0.601-2.541-0.92-3.801c-1.601-0.511-3.211-1.011-4.801-1.562
		c-5.41-2.119-9.671-6.559-12.25-11.688C216.15,249.211,215.461,247.449,214.789,245.689L214.789,245.689z"/>
	<path fill="#EA0E16" d="M251.891,134.02c4.021,1.3,7.31-2.16,10.439-4.09c-0.75,4.34-3.392,8.52-7.9,9.63
		c-1.25-0.17-2.5-0.351-3.75-0.561c-1.799-1.04-3.469-2.26-5.18-3.439c0.289-1.07,0.77-2.04,1.43-2.91
		C248.6,133.02,250.23,133.56,251.891,134.02L251.891,134.02z"/>
	<path fill="#536EB5" d="M141.23,137.84c1.521,0.101,3.05,0.181,4.58,0.271c0,0.71-0.01,2.14-0.01,2.85
		c-1.53-0.05-3.06-0.109-4.59-0.14C141.21,140.07,141.22,138.58,141.23,137.84L141.23,137.84z"/>
	<path fill="#5A6EAE" d="M148.87,138.96c1.92,1.061,3.859,2.12,5.63,3.42c1.3,1.46,2.42,3.07,3.54,4.67
		c-2.681-0.909-5.561-1.52-7.88-3.199C149.2,142.42,149.21,140.59,148.87,138.96L148.87,138.96z"/>
	<path fill="#D7D3D5" d="M250.68,139c1.25,0.21,2.5,0.391,3.75,0.561c1.521,0.5,2.98,1.17,4.471,1.79
		c-1.149,1.27-2.17,2.63-3.11,4.05c-1.578-0.771-3.209-1.45-4.609-2.51C250.721,141.65,250.779,140.3,250.68,139L250.68,139z"/>
	<path fill="#FDF7FB" d="M41.32,141.3c7.36-2.239,16.051,0.5,20.53,6.82c5.141,6.851,4.75,17.29-1.13,23.58
		c-4.97,5.67-13.55,7.79-20.58,5.04c-6.54-2.44-11.41-8.77-12.03-15.729C27.16,152.42,33,143.67,41.32,141.3 M38.41,145.28
		c1.109,0.52,2.159,1.71,3.5,1.38c3.859-0.77,7.76-1.31,11.649-1.89C48.89,142.02,42.98,142.64,38.41,145.28 M33.37,150.06
		c6.39,3.109,12.46,6.79,18.68,10.22c0.39-1.7,0.76-3.4,1.12-5.11c-4.84-3.909-10.34-7-16.32-8.8
		C35.66,147.57,34.5,148.8,33.37,150.06 M43.73,147.15c1.54,1.27,3.09,3.12,5.32,2.76c3.49-0.17,6.99-0.33,10.49-0.5
		c-0.83-1.01-1.73-1.92-2.721-2.76C52.49,145.73,48.02,146.27,43.73,147.15 M49.76,150.99c1.36,1.2,2.71,2.45,4.33,3.3
		c2.67,0.221,5.35,0.021,8.02-0.069c-0.449-1.051-0.899-2.091-1.359-3.12C57.12,150.45,53.4,150.45,49.76,150.99 M30.88,156.74
		c5.87,3.96,12.29,7.2,19.09,9.23c0.18-1.631,2.14-3.9,0.3-5.141c-5.51-3.78-11.439-6.99-17.59-9.62
		C31.84,152.97,31.24,154.82,30.88,156.74 M59.62,155.2c-0.5,6.73-3.25,12.85-6.511,18.64c7.271-2.479,10.75-10.699,9.681-17.939
		C61.73,155.66,60.68,155.43,59.62,155.2 M47.96,172.01c0.569,0.439,1.7,1.3,2.27,1.739c5.57-4.29,7.48-11.54,8.23-18.2
		c-0.931-0.05-2.79-0.14-3.72-0.189C52.99,161.11,50.81,166.72,47.96,172.01 M30.49,158.31c0.27,2.399-0.141,5.529,2.13,7.109
		c4.13,3.21,9.109,5.221,14.279,5.95c0.75-1.43,1.49-2.87,2.221-4.31C42.67,164.66,36.62,161.4,30.49,158.31 M33.53,167.98
		c-0.46,1.38,0,1.91,1.4,1.58C35.41,168.17,34.94,167.64,33.53,167.98 M36.3,169.43c0.13,3.02,2.75,4.369,5.32,5.04
		C41.68,171.32,39.09,169.84,36.3,169.43 M41.84,171.78c0.71,1.14,1.31,2.4,2.33,3.33c1.77,0.689,3.71,0.229,5.54,0.11
		C48.04,172.47,44.85,171.7,41.84,171.78L41.84,171.78z"/>
	<path fill="#FDF8FD" d="M348.32,141.28c10.939-3.61,23.709,5.09,23.91,16.7c1.039,9.649-6.76,18.939-16.371,19.81
		c-10.368,1.62-20.969-7.17-20.889-17.75C334.221,151.61,340.279,143.53,348.32,141.28 M345.141,145.27
		c1.139,0.569,2.26,1.74,3.66,1.38c3.869-0.76,7.77-1.32,11.68-1.89C355.73,142.05,349.789,142.69,345.141,145.27 M340.23,150.08
		c6.379,3.13,12.439,6.851,18.709,10.17c0.34-1.64,1.351-3.279,1.041-4.989c-4.61-4.15-10.311-6.881-16.141-8.881
		C342.609,147.58,341.41,148.81,340.23,150.08 M350.609,147.13c1.361,1.091,2.591,2.811,4.511,2.771
		c3.739-0.07,7.479-0.351,11.229-0.32c-0.779-1-1.539-2.01-2.469-2.85C359.51,145.66,354.949,146.26,350.609,147.13 M356.68,150.99
		c1.35,1.22,2.66,2.58,4.34,3.36c2.66,0.149,5.32-0.03,7.98-0.15c-0.431-1-0.859-2.01-1.279-3.01
		C364.09,150.42,360.34,150.42,356.68,150.99 M339.109,151.78c-0.76,1.59-1.09,3.32-1.438,5.03c5.82,3.819,12.119,6.87,18.68,9.18
		c0.68-1.36,1.34-2.729,1.99-4.1c-4.65-3.67-9.939-6.46-15.199-9.131C341.83,152.39,340.49,151.08,339.109,151.78 M361.07,156.96
		c-1.631,5.19-3.729,10.21-6.221,15.051c0.58,0.46,1.721,1.38,2.301,1.84c5.48-4.521,7.779-11.78,7.859-18.681
		C363.65,155.56,361.439,155.1,361.07,156.96 M366.43,155.06c-0.58,7.02-3.07,13.689-7.391,19.26
		c7.381-2.32,12.03-10.5,10.541-18.04C368.859,155.28,367.459,155.45,366.43,155.06 M337.539,158.46c0.11,2.19-0.34,4.92,1.471,6.57
		c3.91,3.38,8.9,5.29,13.92,6.29c1.812-0.51,2.121-2.84,3.07-4.24C349.6,164.73,343.619,161.48,337.539,158.46 M340.391,168.08
		c-0.399,1.391,0.09,1.891,1.479,1.51C342.279,168.18,341.779,167.67,340.391,168.08 M343.26,169.48c0.141,3.02,2.6,4.47,5.279,5.01
		C348.471,171.42,346.061,169.84,343.26,169.48 M348.75,171.67c0.66,1.15,1.188,2.431,2.149,3.391c1.601,0.62,3.369,0.43,5.06,0.55
		C355.551,172.18,351.459,171.84,348.75,171.67L348.75,171.67z"/>
	<path fill="#C6363B" d="M38.41,145.28c4.569-2.64,10.479-3.26,15.149-0.51c-3.89,0.58-7.79,1.12-11.649,1.89
		C40.57,146.99,39.52,145.8,38.41,145.28L38.41,145.28z"/>
	<path fill="#C63136" d="M345.141,145.27c4.648-2.58,10.59-3.221,15.34-0.51c-3.91,0.569-7.811,1.13-11.68,1.89
		C347.4,147.01,346.279,145.84,345.141,145.27L345.141,145.27z"/>
	<path fill="#576DB5" d="M137.07,143.99c4.21-1.28,7.471,2.18,10.061,4.95c-3.42,0.54-6.9,0.57-10.33,0.13
		C136.85,147.37,136.95,145.68,137.07,143.99L137.07,143.99z"/>
	<path fill="#D2D3D8" d="M239.33,144.01c1.869,0.05,3.75,0.09,5.619,0.14c0.319,3.54,0.62,7.07,0.899,10.61
		c-3.51-1.78-7.811-5.641-11.709-2.61c-4.451,3.03-3.08,9.02-2.34,13.5c-2.771-1.24-5.391-3.28-6.08-6.39
		c-1.201-4.141-1.361-10.181,3.08-12.44c4-1.83,7.83,1.33,11.119,3.25C239.68,148.05,239.43,146.04,239.33,144.01 M241.279,166.86
		c0.16,0.42,0.48,1.26,0.642,1.68c1.18-0.46,2.369-0.92,3.561-1.37c1.92,3.98,2.84,9.36-0.42,12.9c-2.99,3.6-8.021,3.58-12.25,4.22
		c-0.6,6.01,3.449,11.01,4.181,16.811c1.35,9.18,3.239,18.34,7,26.871c-1.761-1.211-3.451-2.521-5.062-3.9
		c-5.049-8.84-6.479-19.051-8.09-28.94c-0.699-5.56-5.109-10.06-4.199-15.92c4.16-0.239,8.959-0.199,12.039-3.52
		C241.15,173.47,241.23,169.93,241.279,166.86L241.279,166.86z"/>
	<path fill="#D2D3D7" d="M285.07,144.91c4.98,1.74,7.521,7.05,7.33,12.08c0.289,5.9-3.17,11.17-7.319,15.05
		c-3.351,3-6.961,5.681-10.33,8.641c-6.062-0.4-11.33,2.779-16.039,6.17c1.25-2.641,2.709-5.25,4.92-7.221
		c6.76-6.229,15.539-10.52,20.479-18.56C287.131,156.24,287.119,150.1,285.07,144.91 M263.211,201.01
		c0.879-2.511,2.108-5.351,5.049-5.91c3.721-1.41,7.35,1.199,8.77,4.569c-2.079,0.54-4.618,0.511-6.09,2.32
		c-1.789,1.92-1.739,5.1,0.181,6.91c4.25,4.92,8.909,9.879,10.67,16.33c1.721,5.469,1.03,12.119-3.359,16.18
		c-5.33,5.66-13.979,5.91-21.061,4.129c-4.5-1.27-9.359-2.938-12.229-6.879c7.549,2.98,16.619,4.57,24.09,0.562
		c6.299-3.32,8.83-11.382,6.779-17.99C274.141,213.18,267.83,207.49,263.211,201.01 M172.03,223.48
		c9.74-2.201,17.131-9.361,23.2-16.871c1.46,2.69,2.86,5.41,4.54,7.979c-6.729,5.23-12.859,12-21.649,13.642
		c-2.28-1.601-4.391-3.76-7.17-4.4c-4.4-0.029-9.051,1.892-11.761,5.42c-1.26,2.961-2.76,5.83-4.06,8.779
		c-0.38,5.66-0.18,11.361-0.14,17.031c-0.131,3.319,3.939,5.399,2.88,8.858c-0.75,4.261-1.13,8.57-0.92,12.9
		c-2.471,0.6-4.86,1.57-6.96,3.01c-2.181-0.84-4.221-2.141-4.971-4.471c2.271-1.101,5.271-1.851,6.19-4.521
		c0.5-2.618-0.42-5.301,0.12-7.909c0.479-2.449,0.72-4.939,0.739-7.431c-1.05-1.131-3.029-1.84-3-3.619
		c-0.31-6.961,0.141-13.932-0.14-20.891c0.6-0.16,1.79-0.461,2.39-0.621c-0.159-7.379,7.73-12.068,14.431-11.09
		C168.2,220.039,170.03,221.971,172.03,223.48 M198.53,255.619c2.84-6.139,9.881-9.129,16.26-9.93c0.672,1.76,1.36,3.521,2.16,5.24
		c-3.959,1.791-8.271,3.43-11.08,6.92c-1.591,1.938-1.658,4.58-2.129,6.95C200.24,263.381,196.79,259.6,198.53,255.619
		 M153.8,293.77c0.55-0.351,1.64-1.029,2.18-1.369c3.221-0.01,4.101,2.67,4.82,5.279c-1.43,1.891-2.771,3.829-4.12,5.77
		C153.2,301.52,153.99,297.09,153.8,293.77 M164.94,298.789c0.74-2.809,2.66-5.028,5.15-6.469c2.01,1.34,3.479,3.27,4.93,5.17
		c-2.2,2.299-3.77,5.09-5.149,7.93C167.66,303.68,165.97,301.41,164.94,298.789 M232.07,299.82c1.189-2.359,2.609-5.16,5.72-4.951
		c1.33,1.381,2.7,2.73,4.03,4.121l0.48,0.539c-2.16,2.01-3.881,4.4-5.49,6.861C234.789,304.539,233.33,302.221,232.07,299.82
		L232.07,299.82z"/>
	<path fill="#EF0C14" d="M33.37,150.06c1.13-1.261,2.29-2.49,3.479-3.69c5.98,1.8,11.48,4.891,16.32,8.8
		c-0.36,1.71-0.73,3.41-1.12,5.11C45.83,156.85,39.76,153.17,33.37,150.06 M337.539,158.46c6.08,3.021,12.061,6.271,18.461,8.62
		c-0.949,1.4-1.261,3.73-3.07,4.24c-5.02-1-10.01-2.91-13.92-6.29C337.199,163.38,337.65,160.65,337.539,158.46L337.539,158.46z"/>
	<path fill="#E31219" d="M43.73,147.15c4.29-0.88,8.761-1.42,13.09-0.5c0.99,0.84,1.891,1.75,2.721,2.76c-3.5,0.17-7,0.33-10.49,0.5
		C46.82,150.27,45.27,148.42,43.73,147.15L43.73,147.15z"/>
	<path fill="#EF0D14" d="M340.23,150.08c1.181-1.27,2.379-2.5,3.609-3.7c5.83,2,11.529,4.73,16.141,8.881
		c0.31,1.71-0.701,3.35-1.041,4.989C352.67,156.93,346.609,153.21,340.23,150.08L340.23,150.08z"/>
	<path fill="#DC151B" d="M350.609,147.13c4.341-0.869,8.9-1.47,13.271-0.399c0.93,0.84,1.688,1.85,2.469,2.85
		c-3.75-0.03-7.49,0.25-11.229,0.32C353.199,149.94,351.971,148.22,350.609,147.13L350.609,147.13z"/>
	<path fill="#D3D3D8" d="M261.18,148.3c3.439-1.22,6.76,1.03,7.812,4.33c-3.15,1.36-5.73,3.65-7.91,6.25
		C261.32,155.36,261.41,151.83,261.18,148.3L261.18,148.3z"/>
	<path fill="#E1131A" d="M49.76,150.99c3.64-0.54,7.36-0.54,10.99,0.11c0.46,1.029,0.91,2.069,1.359,3.12
		c-2.67,0.09-5.35,0.29-8.02,0.069C52.47,153.44,51.12,152.19,49.76,150.99L49.76,150.99z"/>
	<path fill="#566DB5" d="M138.14,151.45c3.23-0.04,6.28,1.271,9.09,2.75c-3.05,1.97-7.029,3.05-10.569,1.86
		C136.99,154.5,136.1,152.05,138.14,151.45L138.14,151.45z"/>
	<path fill="#E21219" d="M356.68,150.99c3.66-0.57,7.41-0.57,11.041,0.2c0.42,1,0.85,2.01,1.279,3.01c-2.66,0.12-5.32,0.3-7.98,0.15
		C359.34,153.57,358.029,152.21,356.68,150.99L356.68,150.99z"/>
	<path fill="#F10B13" d="M30.88,156.74c0.36-1.92,0.96-3.77,1.8-5.53c6.15,2.63,12.08,5.84,17.59,9.62
		c1.84,1.24-0.12,3.51-0.3,5.141C43.17,163.94,36.75,160.7,30.88,156.74 M44.46,236.43c2.72-1.949,7.06,0.18,7.1,3.541
		c0.33,3.438-3.859,6.229-6.85,4.358C41.67,242.85,41.33,238,44.46,236.43 M51.91,244.48c3.64,0.229,8.39,1.709,9.64,5.528
		c-0.95,2.529-3.96,3.101-5.91,4.66c-2.03,1.052-3.76,3.32-6.24,3.029c-3.189-2.689-1.76-7.41-1.279-10.959
		c1.819,0.85,3.359,2.129,4.909,3.379C52.65,248.24,52.24,246.369,51.91,244.48L51.91,244.48z"/>
	<path fill="#F10C13" d="M339.109,151.78c1.382-0.7,2.722,0.61,4.031,0.98c5.26,2.67,10.549,5.46,15.199,9.13
		c-0.65,1.37-1.312,2.739-1.99,4.1c-6.561-2.31-12.858-5.36-18.68-9.18C338.02,155.1,338.35,153.37,339.109,151.78 M31.35,249
		c-0.08-4.67,6.54-5.108,10.09-5.369c-0.649,1.908-1.41,3.779-2.1,5.681c1.64-1.031,3.22-2.16,4.81-3.271
		c1.24,3.062,1.04,6.73-0.35,9.701c-0.83,1.84-3.54,1.459-4.66,0.119C36.72,253.369,33.6,251.641,31.35,249L31.35,249z"/>
	<path fill="#E11219" d="M59.62,155.2c1.06,0.23,2.109,0.46,3.17,0.7c1.069,7.24-2.41,15.46-9.681,17.939
		C56.37,168.05,59.12,161.93,59.62,155.2L59.62,155.2z"/>
	<path fill="#EB0F16" d="M361.07,156.96c0.369-1.859,2.58-1.399,3.939-1.79c-0.08,6.9-2.379,14.16-7.859,18.681
		c-0.58-0.46-1.721-1.38-2.301-1.84C357.34,167.17,359.439,162.15,361.07,156.96L361.07,156.96z"/>
	<path fill="#E41118" d="M366.43,155.06c1.029,0.39,2.43,0.22,3.15,1.22c1.489,7.54-3.16,15.72-10.541,18.04
		C363.359,168.75,365.85,162.08,366.43,155.06L366.43,155.06z"/>
	<path fill="#E90F16" d="M47.96,172.01c2.85-5.29,5.03-10.9,6.78-16.65c0.93,0.05,2.789,0.14,3.72,0.189
		c-0.75,6.66-2.66,13.91-8.23,18.2C49.66,173.31,48.53,172.45,47.96,172.01L47.96,172.01z"/>
	<path fill="#556DB6" d="M138,158.93c2.819-1.351,5.819-0.131,8.09,1.689c-2.57,1.021-5.3,1.51-8.05,1.5
		C138.03,161.32,138.01,159.72,138,158.93L138,158.93z"/>
	<path fill="#F00C14" d="M30.49,158.31c6.13,3.09,12.18,6.35,18.63,8.75c-0.73,1.439-1.471,2.88-2.221,4.31
		c-5.17-0.729-10.149-2.74-14.279-5.95C30.35,163.84,30.76,160.71,30.49,158.31 M360.891,243.67c3.109,0.109,6.351,0.619,8.93,2.48
		c1.83,0.85,1.22,3.561-0.28,4.43c-2.209,1.76-4.431,3.51-6.529,5.41c-1.129,1.391-3.99,1.439-4.619-0.461
		c-1.141-2.639-1.17-5.6-1.111-8.42c2.16-1.01,3.74,1.41,5.58,2.149C362.209,247.391,361.49,245.551,360.891,243.67L360.891,243.67z
		"/>
	<path fill="#D1D3D8" d="M149.29,166.04c4.68,1.07,9.39,2.12,13.87,3.891c0.399,0.92,0.79,1.859,1.17,2.79
		c-3.051-0.62-6.11-1.171-9.181-1.65c-0.31,9.42-0.229,18.86,0.08,28.28c-1.87,0.91-3.85,1.599-5.87,2.089
		C149.21,189.64,149.28,177.84,149.29,166.04L149.29,166.04z"/>
	<path fill="#BC7D80" d="M33.53,167.98c1.41-0.34,1.881,0.189,1.4,1.58C33.53,169.89,33.07,169.36,33.53,167.98L33.53,167.98z"/>
	<path fill="#C86D70" d="M340.391,168.08c1.389-0.41,1.889,0.101,1.479,1.51C340.48,169.97,339.99,169.47,340.391,168.08
		L340.391,168.08z"/>
	<path fill="#C33539" d="M36.3,169.43c2.79,0.409,5.38,1.89,5.32,5.04C39.05,173.8,36.43,172.45,36.3,169.43L36.3,169.43z"/>
	<path fill="#566DAF" d="M163.16,169.93c2.619,1.189,5.68,3.489,4.67,6.8c-0.62,3.8-5.5,2.72-8.25,3.56
		c1.689-1.22,3.819-2.029,5.029-3.81c0.25-1.25-0.069-2.521-0.279-3.76C163.95,171.79,163.56,170.85,163.16,169.93L163.16,169.93z"
		/>
	<path fill="#CE3439" d="M343.26,169.48c2.801,0.359,5.211,1.939,5.279,5.01C345.859,173.95,343.4,172.5,343.26,169.48
		L343.26,169.48z"/>
	<path fill="#CC2B30" d="M41.84,171.78c3.01-0.08,6.2,0.69,7.87,3.44c-1.83,0.119-3.771,0.579-5.54-0.11
		C43.15,174.18,42.55,172.92,41.84,171.78L41.84,171.78z"/>
	<path fill="#CA1D23" d="M348.75,171.67c2.709,0.17,6.801,0.511,7.209,3.94c-1.689-0.12-3.459,0.07-5.06-0.55
		C349.939,174.1,349.41,172.82,348.75,171.67L348.75,171.67z"/>
	<path fill="#CDD3DF" d="M174.06,183.02c2.811-1.33,4.86-3.73,6.9-6c0.87,1.479,1.729,2.97,2.56,4.479
		c-4.31,2.721-8.859,5.05-13.16,7.78c-1.84-1.64-3.689-3.27-5.649-4.76C167.86,184.42,171.18,184.49,174.06,183.02L174.06,183.02z"
		/>
	<path fill="#5A6DB1" d="M265.109,193.13c3.711-4.699,11.83-4.409,15.17,0.601c2.921,3.3,1.49,7.9,0.871,11.77
		c-1.131,1.029-2.659,1.41-4.01,2.039c-0.01-2.629,0.148-5.26-0.111-7.869c-1.42-3.37-5.049-5.979-8.77-4.569
		c-2.939,0.56-4.17,3.399-5.049,5.91C263.18,198.31,263.18,195.27,265.109,193.13 M138.35,219.77c1.32-0.39,2.66-0.709,4-1.021
		c-0.399,2.301-0.77,4.609-1.06,6.931c2.29-1.07,4.64-2.029,7.06-2.761c0.21,2.4,0.41,4.802,0.54,7.211
		c-1.01-1.069-2.02-2.141-3.04-3.2c-0.439,9.02-0.01,18.061-0.1,27.08c-0.19,1.471,0.13,3.5-1.53,4.239
		c-2.04,0.779-4.26,0.851-6.4,1.15c-0.06-1.471-0.13-2.939-0.199-4.41c1.189-0.451,2.39-0.891,3.59-1.32
		c0.569-7.209,0.09-14.459,0.29-21.688C141.9,227.609,139.17,223.92,138.35,219.77L138.35,219.77z"/>
	<path fill="#6C81B9" d="M132.84,214.539c1.87-0.52,3.8-0.647,5.729-0.828c-1.39,2.359-2.51,4.879-3.04,7.578l-0.31,1.201
		C134.29,219.869,134.24,216.971,132.84,214.539L132.84,214.539z"/>
	<path fill="#FFF3F9" d="M37.67,225.619c0.92-1.897,1.75-4.76,4.32-4.779c3.88,0.142,7.739,0.609,11.63,0.671
		c2.79,0.108,3.729,3,4.59,5.159c2.14,0.541,5.149,0.82,5.85,3.369c0.82,3.711,1.88,7.361,2.86,11.041
		c0.6,2.58-1.73,4.279-3.601,5.49c0.19,2.41,0.9,5.609-1.579,7.119c-3.15,1.82-6.181,3.819-9.23,5.791
		c-2.27,1.438-4.67-0.222-6.58-1.441c-2.12,0.66-4.45,2.021-6.64,0.83c-2.19-1.488-3.931-3.539-6.11-5.039
		c-1.45-1.199-3.37-2.119-4-4.02c-0.36-1.82,0.28-3.611,0.59-5.381c-1.689-1.58-3.87-3.699-2.71-6.23
		c1.49-3.33,2.78-6.729,4.021-10.148C32.13,225.391,35.3,225.52,37.67,225.619 M40.4,224.48c-0.56,3.459,2.13,6.389,3.99,9.028
		c2.43,0.761,1.97-3.35,3.09-4.721c0.73,1.691,1.141,3.49,1.601,5.281c2.84-1.021,4.569-3.721,5.87-6.301
		c0.909-1.271,0.51-3.359-1.101-3.81c-2.79-0.791-5.76-0.352-8.62-0.649C43.58,223.34,41.35,222.65,40.4,224.48 M30.63,235.68
		c-0.62,1.791-2.2,3.75-1.03,5.659c3.2,2.15,7.12-0.039,10.51-0.629c-0.46-1.989-2.1-3.229-3.43-4.631c1.68-0.18,3.8,1,5.15-0.399
		c-1.021-3.562-3.48-6.761-6.86-8.351C32.3,229.359,32,232.85,30.63,235.68 M52.56,237.17c1.86,0.08,3.73,0.109,5.59,0.181
		c-1.27,1.42-4.819,1.92-3.859,4.311c2.37,1.312,4.96,2.32,7.67,2.57c1.62,0.01,3.149-1.41,2.609-3.08
		c-0.899-3.391-1.739-6.801-2.659-10.189c-0.32-1.461-2.57-2.121-3.721-1.172C55.64,231.57,53.26,234.029,52.56,237.17
		 M44.46,236.43c-3.13,1.569-2.79,6.42,0.25,7.899c2.99,1.869,7.18-0.92,6.85-4.358C51.52,236.609,47.18,234.48,44.46,236.43
		 M31.35,249c2.25,2.642,5.37,4.369,7.79,6.859c1.12,1.34,3.83,1.721,4.66-0.119c1.39-2.971,1.59-6.641,0.35-9.701
		c-1.59,1.111-3.17,2.24-4.81,3.271c0.689-1.9,1.45-3.771,2.1-5.681C37.89,243.891,31.27,244.33,31.35,249 M51.91,244.48
		c0.33,1.889,0.739,3.76,1.119,5.639c-1.55-1.25-3.09-2.529-4.909-3.379c-0.48,3.549-1.91,8.271,1.279,10.959
		c2.48,0.291,4.21-1.979,6.24-3.029c1.95-1.561,4.96-2.131,5.91-4.66C60.3,246.189,55.55,244.711,51.91,244.48L51.91,244.48z"/>
	<path fill="#FFF2F4" d="M347.02,222.029c1.82-0.969,3.951-0.539,5.931-0.66c2.649,0.021,5.29-0.729,7.95-0.43
		c2.22,0.391,2.91,2.83,3.67,4.621c2.341-0.021,5.351-0.211,6.521,2.33c1.369,3.409,2.58,6.879,4.09,10.229
		c1.201,2.562-0.859,4.853-2.77,6.281c0.528,2.399,1.67,5.549-0.671,7.379c-2.811,2.191-5.551,4.48-8.25,6.801
		c-2.27,1.801-5.061,0.369-7.149-0.93c-1.119,0.84-2.15,1.859-3.48,2.35c-2.729,0.472-4.799-1.67-6.889-3.01
		c-1.951-1.41-4.23-2.301-6.09-3.84c-1.762-1.621-1.041-4.17-0.9-6.24c-1.76-1.438-4.03-3.131-3.59-5.721
		c0.92-3.689,2-7.34,2.818-11.049c0.66-2.802,3.94-2.92,6.229-3.472C345.051,225.029,345.221,222.85,347.02,222.029 M352.01,223.551
		c-1.699,0.109-4.09-0.2-4.93,1.71c-0.181,3.938,3.051,6.961,5.959,9.131c0.592-1.861,1.061-3.761,1.58-5.642
		c0.69,1.609,1.262,3.271,1.971,4.869c1.971,0.32,2.561-2.18,3.6-3.389c1.222-1.961,3.031-5.301,0.4-6.92
		C357.73,223.09,354.869,223.59,352.01,223.551 M365.43,228.32c-2.471,2.01-4.26,4.84-5.049,7.938
		c1.949-0.01,3.897-0.108,5.85-0.141c-1.28,1.471-4.18,2.182-3.92,4.5c3.521,1,8.729,3.451,11.18-0.59
		c-1.551-3.389-2.811-6.889-4.149-10.359C368.959,227.939,366.801,227.211,365.43,228.32 M340.061,232.189
		c-0.451,3.93-3.021,7.66-1.971,11.66c3.899,0.95,7.631-0.91,10.859-2.91c-1.56-1.32-3.261-2.439-4.97-3.549
		c2.021-0.07,4.049-0.121,6.07-0.281c-1.211-3.021-3.312-5.799-6.17-7.398C342.051,228.551,340.1,230.301,340.061,232.189
		 M353.34,236.18c-2.939,1.229-3.539,5.59-0.98,7.561c2.521,2.529,7.382,0.721,7.562-2.859
		C360.641,237.33,356.43,234.5,353.34,236.18 M347.67,244.76c-2.892,1.09-6.82,2.358-6.851,6.1c3.209,2.211,6.521,4.271,9.771,6.43
		c1.391,1.07,3.221,0.15,3.791-1.379c0.729-3.029,0.27-6.18-0.24-9.211c-1.811,0.98-3.41,2.271-5.061,3.48
		c0.479-1.812,1.051-3.591,1.6-5.369C349.689,244.609,348.641,244.279,347.67,244.76 M360.891,243.67
		c0.601,1.881,1.318,3.722,1.969,5.591c-1.84-0.74-3.42-3.16-5.58-2.15c-0.059,2.82-0.028,5.781,1.111,8.42
		c0.629,1.9,3.49,1.852,4.619,0.461c2.1-1.9,4.32-3.65,6.529-5.41c1.5-0.869,2.11-3.58,0.28-4.43
		C367.24,244.289,364,243.779,360.891,243.67L360.891,243.67z"/>
	<path fill="#F20B13" d="M40.4,224.48c0.95-1.83,3.181-1.142,4.83-1.17c2.86,0.299,5.83-0.142,8.62,0.649
		c1.61,0.449,2.01,2.539,1.101,3.81c-1.301,2.58-3.03,5.28-5.87,6.301c-0.46-1.791-0.87-3.59-1.601-5.281
		c-1.12,1.371-0.66,5.48-3.09,4.721C42.53,230.869,39.84,227.939,40.4,224.48 M30.63,235.68c1.37-2.83,1.67-6.32,4.34-8.351
		c3.38,1.59,5.84,4.789,6.86,8.351c-1.351,1.399-3.471,0.221-5.15,0.399c1.33,1.4,2.97,2.642,3.43,4.631
		c-3.39,0.59-7.31,2.779-10.51,0.629C28.43,239.43,30.01,237.471,30.63,235.68 M365.43,228.32c1.371-1.109,3.529-0.381,3.91,1.35
		c1.34,3.472,2.6,6.972,4.149,10.359c-2.45,4.041-7.659,1.59-11.18,0.59c-0.26-2.317,2.64-3.029,3.92-4.5
		c-1.951,0.031-3.899,0.131-5.85,0.142C361.17,233.16,362.959,230.33,365.43,228.32 M52.56,237.17c0.7-3.141,3.08-5.6,5.63-7.381
		c1.15-0.949,3.4-0.289,3.721,1.172c0.92,3.39,1.76,6.8,2.659,10.189c0.54,1.67-0.989,3.09-2.609,3.08
		c-2.71-0.25-5.3-1.26-7.67-2.57c-0.96-2.391,2.59-2.891,3.859-4.311C56.29,237.279,54.42,237.25,52.56,237.17 M340.061,232.189
		c0.039-1.89,1.99-3.64,3.82-2.479c2.859,1.601,4.959,4.379,6.17,7.398c-2.021,0.16-4.051,0.211-6.07,0.281
		c1.709,1.108,3.41,2.229,4.97,3.549c-3.229,2-6.959,3.86-10.859,2.91C337.039,239.85,339.609,236.119,340.061,232.189
		 M353.34,236.18c3.09-1.681,7.301,1.149,6.58,4.7c-0.181,3.58-5.039,5.39-7.562,2.859C349.801,241.77,350.4,237.41,353.34,236.18
		 M347.67,244.76c0.971-0.48,2.02-0.15,3.01,0.051c-0.549,1.778-1.119,3.559-1.6,5.369c1.649-1.209,3.25-2.5,5.061-3.48
		c0.51,3.031,0.969,6.182,0.24,9.211c-0.57,1.529-2.4,2.449-3.791,1.379c-3.25-2.158-6.562-4.219-9.771-6.43
		C340.85,247.119,344.779,245.85,347.67,244.76L347.67,244.76z"/>
	<path fill="#F30B12" d="M352.01,223.551c2.859,0.039,5.721-0.461,8.58-0.239c2.631,1.619,0.82,4.959-0.4,6.92
		c-1.039,1.209-1.629,3.709-3.6,3.389c-0.709-1.6-1.279-3.26-1.971-4.869c-0.521,1.881-0.988,3.779-1.58,5.642
		c-2.908-2.17-6.14-5.191-5.959-9.131C347.92,223.35,350.311,223.66,352.01,223.551L352.01,223.551z"/>
	<path fill="#043083" d="M145.85,226.93c1.021,1.061,2.03,2.131,3.04,3.2l0.04,0.859c0.28,6.959-0.17,13.93,0.14,20.891
		c-0.029,1.779,1.95,2.488,3,3.619c-0.02,2.49-0.26,4.98-0.739,7.431c-0.54,2.608,0.38,5.291-0.12,7.909
		c-0.92,2.671-3.92,3.421-6.19,4.521c-2.97-0.93-5.399-2.799-6.81-5.609c2.189,0.551,4.37,1.439,6.649,1.359
		c2.98-0.799,3.86-5.439,1.37-7.26c-2.62-1.351-5.67-1.369-8.54-1.681c0.04-0.698,0.101-2.08,0.13-2.77
		c2.141-0.301,4.36-0.371,6.4-1.15c1.66-0.739,1.34-2.77,1.53-4.239C145.84,244.99,145.41,235.949,145.85,226.93L145.85,226.93z"/>
	<path fill="#CFD3DE" d="M236.48,233.471c2.199,1.219,4.31,2.567,6.42,3.92c-0.461,4.147,1.65,7.869,3.08,11.608
		C240.689,245.529,237.49,239.631,236.48,233.471L236.48,233.471z"/>
	<path fill="#D2D3D6" d="M258.631,256.77c3.379-0.09,6.76-0.299,10.129-0.601c-8.109,8.431-11.32,20.392-10.629,31.881
		c0,3.31,0.959,6.72,0.068,9.979c-1.318,2.371-4.56,2.191-6.83,3.141c-0.789,1.33-1.591,2.65-2.39,3.972
		c-2.051-1.621-4.061-3.281-6.069-4.941c1.118-1.66,1.84-4.119,4.188-4.33c2.59-0.488,5.881-1.5,5.49-4.809
		C251.859,279.439,251.471,266.689,258.631,256.77L258.631,256.77z"/>
	<path fill="#586DB3" d="M137.69,262.17c2.87,0.312,5.92,0.33,8.54,1.681c2.49,1.819,1.61,6.461-1.37,7.26
		c-2.279,0.08-4.46-0.809-6.649-1.359c-0.12-2.369,0.939-4.5,2.229-6.41C139.52,262.949,138.6,262.561,137.69,262.17L137.69,262.17z
		"/>
	<path fill="#C8CDE1" d="M229.199,262.619c1.59,0.551,3.2,1.051,4.801,1.562c0.319,1.26,0.641,2.52,0.92,3.801
		C232.74,266.51,230.49,264.99,229.199,262.619L229.199,262.619z"/>
	<path fill="#586EAF" d="M170.09,292.32c2.05-0.07,4.1-0.021,6.16,0.02c0.59,2.431,1.2,4.871,1.819,7.302
		c-1.079-0.632-2.1-1.353-3.05-2.15C173.57,295.59,172.1,293.66,170.09,292.32L170.09,292.32z"/>
	<path fill="#4C68A4" d="M223.859,294.721c1.9-0.302,3.83-0.451,5.75-0.591c0.111,2.449,0.23,4.898,0.371,7.359
		c-0.28-0.5-0.83-1.49-1.1-1.99c-0.781-1.42-1.541-2.858-2.291-4.289C225.91,295.09,224.539,294.84,223.859,294.721L223.859,294.721
		z"/>
	<path fill="#5A72AE" d="M237.789,294.869c0.69,0.07,2.061,0.211,2.75,0.281c0.41,1.279,0.819,2.57,1.28,3.84
		C240.49,297.6,239.119,296.25,237.789,294.869L237.789,294.869z"/>
	<path fill="#2A3A46" d="M308.77,301.16c0.371-2.08,5.291-2.09,5.531,0.109C312.449,301.25,310.609,301.301,308.77,301.16
		L308.77,301.16z"/>
	<path fill="#FFFFF8" d="M308.67,302.67c1.801-1.608,4.641-1.198,6.471,0.17c1.619,1.41,2.43,3.48,3.869,5.062
		c1.92,1.521,5.18,2.219,5.43,5.101c0.951,6.221-5.639,9.618-9.309,13.528c-5.141-5.02-10.471-9.897-15.172-15.35
		C302.82,308.302,305.471,305.18,308.67,302.67 M305.77,309.08c1.472,1.841,3.16,3.49,5.08,4.859
		c1.211-1.719,3.221-4.139,1.33-6.129C310.209,305.461,307.551,307.779,305.77,309.08 M314.949,313.49
		c-0.421,0.459-1.261,1.392-1.681,1.859l-0.729-0.529c0.86,2.23,2.521,3.959,4.391,5.392c1.34-1.58,3.59-3.673,1.871-5.83
		C317.939,312.962,316.289,313.43,314.949,313.49 M77.97,313.061c3.78-3.361,7.271-7.041,11.05-10.392
		c3.38,2.689,6.5,5.712,9.15,9.132c-0.78,0.76-1.561,1.528-2.33,2.299c-1.79-1.59-3.561-3.199-5.32-4.83
		c-1.08,1.09-2.17,2.18-3.25,3.271c1.5,1.61,3,3.221,4.51,4.819c-0.579,0.98-1.159,1.951-1.739,2.931
		c-1.94-1.591-3.84-3.21-5.75-4.828c-2.32,2.278-4.681,4.52-6.84,6.948c-1.431-1.471-2.86-2.938-4.271-4.42
		C74.73,316.302,76.29,314.619,77.97,313.061 M160.28,345.02c4.181,0.66,8.66,1.02,12.28,3.42c2.561,1.961,1.87,5.57,1.13,8.26
		c-0.1,0.312-0.29,0.951-0.39,1.271c-1.44,3.34-0.59,8.34-4.59,10.01c-4.42,1.08-8.79-1.121-13.03-2.111
		C156.56,358.789,158.79,351.98,160.28,345.02 M164.77,349.382c-0.18,1.84-0.35,3.688-0.49,5.549c1.48-0.41,4.57,0.32,4.37-2.07
		C169.18,350.6,166.6,349.51,164.77,349.382 M162.97,357.75c-0.74,2.08-1.16,4.25-1.31,6.462c1.8-0.15,4.229,0.448,5.229-1.552
		c0.17-1.35-0.229-2.67-0.41-3.979C165.31,358.369,164.14,358.061,162.97,357.75L162.97,357.75z"/>
	<path fill="#A69A77" d="M305.77,309.08c1.781-1.301,4.439-3.619,6.41-1.27c1.891,1.99-0.119,4.41-1.33,6.129
		C308.93,312.57,307.24,310.921,305.77,309.08 M307.6,309.07c0.971,1.16,2.021,2.24,3.16,3.23c0.34-0.57,1.029-1.73,1.371-2.301
		c-0.32-0.591-0.961-1.771-1.271-2.359C309.76,308.1,308.68,308.58,307.6,309.07L307.6,309.07z"/>
	<path fill="#323B38" d="M307.6,309.07c1.08-0.49,2.16-0.971,3.26-1.43c0.312,0.59,0.951,1.77,1.271,2.359
		c-0.342,0.569-1.031,1.729-1.371,2.301C309.619,311.311,308.57,310.23,307.6,309.07L307.6,309.07z"/>
	<path fill="#143362" d="M295.49,313.689c0.892-0.869,1.789-1.719,2.699-2.559c1.65,1.719,3.281,3.459,4.92,5.188
		c-0.52,2.82,0.771,5.469,1.562,8.101C301.75,320.73,298.971,316.882,295.49,313.689L295.49,313.689z"/>
	<path fill="#9B916E" d="M314.949,313.49c1.34-0.061,2.989-0.528,3.852,0.892c1.719,2.157-0.531,4.25-1.871,5.83
		c-1.869-1.433-3.529-3.16-4.391-5.392l0.729,0.529c1.32,0.951,2.611,1.93,3.91,2.92c0.359-1,0.721-2.01,1.09-3
		C317.17,314.66,316.061,314.061,314.949,313.49L314.949,313.49z"/>
	<path fill="#3B4342" d="M313.27,315.35c0.42-0.469,1.26-1.4,1.681-1.859c1.11,0.57,2.221,1.17,3.319,1.779
		c-0.369,0.99-0.729,2-1.09,3C315.881,317.279,314.59,316.302,313.27,315.35L313.27,315.35z"/>
	<path fill="#FFFFF4" d="M293.27,317.869c0.91-0.889,1.83-1.778,2.76-2.647c3.302,4,6.66,8,9.361,12.449
		c2.56,3.778,0.199,9.43-3.951,10.899c-2.77,1.17-5.739,0.039-8.549-0.281c-0.19-0.34-0.561-1-0.74-1.34
		c-2.42-4.317-5.711-8.067-8.52-12.119c1.438-1.131,2.889-2.239,4.35-3.35c3.47,3.84,6.011,8.43,9.601,12.16
		c1.971,2.27,6.069-0.562,4.77-3.18C299.77,325.962,296.08,322.212,293.27,317.869L293.27,317.869z"/>
	<path fill="#FFFFF6" d="M97.46,318.882c2.79-1.92,6.51-1.621,9.64-0.941c3.57,0.891,5.72,4.031,7.2,7.17
		c1.05,5.4-1.49,10.73-5.74,14.021c-6.08,3.59-14.52,0.27-17.1-6.211C90.85,327.49,92.84,321.98,97.46,318.882 M103.4,322.41
		c-4.64,1.82-9.069,9.59-3.92,13.09c5.601,0.841,10.71-5.698,9.11-11.038C107.54,322.632,105.4,321.83,103.4,322.41L103.4,322.41z"
		/>
	<path fill="#023185" d="M104.29,323.382c2.449-0.67,4.79,2.18,3.75,4.459c-1.061,2.84-3.23,5.471-6.12,6.528
		c-2.46,0.853-4.86-1.907-3.891-4.198C99.22,327.359,101.05,324.039,104.29,323.382L104.29,323.382z"/>
	<path fill="#28334A" d="M114.3,325.109c0.15-0.438,0.47-1.309,0.63-1.74c1.35,2.552,1.42,5.461,1.48,8.281
		c1.399-0.471,2.79-1.221,4.3-1.221l0.74,0.061c-2.87,2.17-6.03,4.41-7.271,7.959c-1.76,3.91-0.31,8.23,1.69,11.73
		c-3.801-2.18-4.29-6.67-4.46-10.609c-0.71-0.108-2.131-0.33-2.851-0.438C112.81,335.841,115.35,330.51,114.3,325.109L114.3,325.109
		z"/>
	<path fill="#2F3C42" d="M306.82,328.529c2.109,0.461,2.091,5.42-0.051,5.82C306.811,332.4,306.83,330.471,306.82,328.529
		L306.82,328.529z"/>
	<path fill="#FFFFF7" d="M269.061,332.15c1.58-0.75,3.16-1.5,4.74-2.221c2.488,4.01,4.779,8.131,7.1,12.229
		c0.681,0.84,0.949,2.279,2.119,2.59c2.222-0.881,4.23-2.18,6.32-3.301c0.57,1.103,1.131,2.222,1.68,3.34
		c-3.649,2.211-7.311,4.423-11.129,6.343C275.949,345.02,272.02,338.802,269.061,332.15 M140.99,338.58
		c4.67,1.351,9.25,3.011,13.76,4.812c-0.21,1.08-0.431,2.16-0.641,3.25c-1.649-0.33-3.3-0.65-4.949-0.99
		c-2.07,5.48-3.881,11.07-6.131,16.49c-1.68-0.67-3.359-1.34-5.039-2.01c1.319-4.041,2.72-8.062,4.14-12.07
		c0.39-0.961,0.78-1.91,1.149-2.861c0.11-0.299,0.311-0.897,0.421-1.198c-1.391-1.039-2.841-2-4.271-2.972
		C139.82,340.41,140.6,339.189,140.99,338.58L140.99,338.58z"/>
	<path fill="#FFFFF3" d="M121.45,330.49c4.39,0.41,9.609,0.699,12.289,4.789c3.391,4.441,1.54,10.301-0.77,14.771
		c-4.29,4.92-12.65,4.737-17.1,0.129c-2-3.5-3.45-7.82-1.69-11.73C115.42,334.9,118.58,332.66,121.45,330.49 M123.48,336.391
		c-3.31,2.59-6.029,8.58-2.35,11.858c5.229,1.812,9.34-4.608,8.55-9.25C130.23,335.779,125.48,334.119,123.48,336.391
		 M258.35,337.109c3.111-1.039,6.142,0.791,9.021,1.76c-0.539,0.972-1.068,1.941-1.601,2.92c-2.938,0.07-6.709-1.5-8.92,1.121
		c-2.67,2.931-0.77,7.289,1.17,10.08c1.57,2.42,4.722,1.511,7.121,1.511c0.24-0.351,0.719-1.062,0.959-1.41
		c0.812-1.189,1.601-2.379,2.392-3.58c1.038,0.08,2.09,0.18,3.129,0.278c-0.689,3.371-2.17,6.82-5.341,8.541
		c-3.788,2.359-8.389,1.07-12.278-0.291c-0.74-0.6-1.431-1.237-2.08-1.92c-1.131-2.58-2.41-5.237-2.41-8.118
		C248.949,342.75,253.449,338.15,258.35,337.109L258.35,337.109z"/>
	<path fill="#06317B" d="M123.48,336.391c2-2.271,6.75-0.611,6.2,2.608c0.79,4.642-3.32,11.062-8.55,9.25
		C117.45,344.971,120.17,338.98,123.48,336.391L123.48,336.391z"/>
	<path fill="#374654" d="M135.6,336.539c1.44,0.423,2.9,0.781,4.391,1.052c-0.49,1.541-0.979,3.08-1.48,4.621
		c1.6,0.979,3.19,1.969,4.77,2.987c-0.369,0.951-0.76,1.9-1.149,2.861c-0.561,0.799-1.11,1.609-1.66,2.43
		c0.021-1.891,0.13-3.778,0.3-5.66c-2.149-1.368-3.939,0.052-5.24,1.83C136.54,343.369,136.64,339.841,135.6,336.539L135.6,336.539z
		"/>
	<path fill="#253C58" d="M141.67,337.552c3.93-0.052,8.67,0.567,11.16,3.979C149.02,340.462,145.37,338.93,141.67,337.552
		L141.67,337.552z"/>
	<path fill="#2A3E55" d="M150.17,347.359c1.47-0.059,2.93,0.221,4.39,0.451l0.601,0.1c-3.07,0.761-5.71,2.449-7.69,4.91
		C148.22,350.949,148.58,348.721,150.17,347.359L150.17,347.359z"/>
	<path fill="#FFFFF5" d="M217.789,348.93c1.711-0.359,3.422-0.689,5.141-1.021c1.41,5.859,1.641,11.939,3.18,17.779
		c2.371-0.359,4.73-0.76,7.103-1.16c0.279,1.121,0.567,2.25,0.85,3.381c-4.291,0.869-8.6,1.699-12.971,2.062
		C219.9,362.971,218.801,355.962,217.789,348.93 M187.21,348.789c3.12,7.291,5.3,15,7.3,22.673c-1.77-0.111-3.53-0.263-5.28-0.451
		c-0.58-1.601-1.16-3.199-1.72-4.799c-1.7-0.312-3.4-0.58-5.11-0.812c-0.819,1.609-1.659,3.219-2.5,4.83
		c-0.77-0.02-2.319-0.051-3.1-0.07C179.56,362.73,183.48,355.77,187.21,348.789 M185.09,360.24c-1.69,0.42-1.16,3.379,0.62,2.99
		C187.35,362.85,186.69,359.98,185.09,360.24L185.09,360.24z"/>
	<path fill="#C2B388" d="M200.12,348.891c2.22-0.062,4.431-0.07,6.649-0.041c0.722,5.85,0.722,11.75,0.781,17.631
		c2.59,0.021,5.188,0.039,7.789,0.09c0.1,1.609,0.211,3.23,0.33,4.859l-1.17-0.049c-0.23-0.83-0.681-2.5-0.91-3.33
		c-2.391-0.183-4.779-0.34-7.17-0.49c-0.199-5.861-0.279-11.711-0.529-17.561c-1.621,0.02-3.229,0.038-4.83,0.069
		c-0.01,4.619,0.181,9.24,0.189,13.859l-0.91,0.471c-0.142-2.051-0.21-4.111-0.24-6.16C200.1,355.119,200.1,352,200.12,348.891
		L200.12,348.891z"/>
	<path fill="#3E4B53" d="M156.2,357.341c-0.7-2.722,0.069-5.351,1.76-7.521C157.48,352.35,156.93,354.869,156.2,357.341
		L156.2,357.341z"/>
	<path fill="#FFFFF9" d="M201.061,350.07c1.601-0.031,3.209-0.051,4.83-0.07c0.25,5.851,0.33,11.699,0.529,17.562
		c2.391,0.15,4.779,0.309,7.17,0.49c0.229,0.83,0.68,2.5,0.91,3.33c-2.199-0.021-4.381,0.049-6.57,0.129
		c-2.15-0.351-4.32-0.812-6.51-0.619c-0.109-2.32-0.142-4.642-0.17-6.961C201.24,359.311,201.051,354.689,201.061,350.07
		L201.061,350.07z"/>
	<path fill="#293E58" d="M224.609,350c1.812,0.23,1.42,2.49,1.761,3.779c0.28,2.941,0.551,5.9,1.131,8.812
		c2.278-0.029,4.58-0.039,6.83,0.461c-2.431,0.559-4.892,0.979-7.351,1.35C225.73,359.689,225.131,354.841,224.609,350L224.609,350z
		"/>
	<path fill="#A0936B" d="M162.97,357.75c1.17,0.312,2.34,0.619,3.51,0.931c0.181,1.311,0.58,2.631,0.41,3.979
		c-1,2-3.43,1.4-5.229,1.552C161.81,362,162.23,359.83,162.97,357.75 M163.86,358.882c-0.369,1.43-0.729,2.858-1.069,4.309
		c2.12,0.451,3.31-1.09,3.63-2.969C165.78,359.891,164.5,359.221,163.86,358.882L163.86,358.882z"/>
	<path fill="#363A31" d="M163.86,358.882c0.641,0.34,1.92,1.01,2.561,1.34c-0.32,1.879-1.51,3.42-3.63,2.969
		C163.13,361.74,163.49,360.311,163.86,358.882L163.86,358.882z"/>
	<path fill="#AB955C" d="M185.09,360.24c1.6-0.26,2.26,2.609,0.62,2.99C183.93,363.619,183.4,360.66,185.09,360.24L185.09,360.24z"
		/>
	<path fill="#464B44" d="M154.37,366.921c1.239-0.4,2.439,0.239,3.54,0.76C157.18,369.061,154.2,368.632,154.37,366.921
		L154.37,366.921z"/>
	<path fill="#3B4544" d="M161.92,368.82c2.74,0.062,5.479,0.021,8.22,0.16C167.99,370.859,163.84,371.15,161.92,368.82
		L161.92,368.82z"/>
	<path fill="#2C3F56" d="M219.859,371.16c4.052-0.721,8.15-0.989,12.23-1.448c-3.629,1.479-7.73,2.987-11.66,2.198L219.859,371.16
		L219.859,371.16z"/>
	<path fill="#2F3D49" d="M175.52,370.939c1.57-0.229,3.16-0.289,4.73-0.129C180.26,372.882,175.77,372.9,175.52,370.939
		L175.52,370.939z"/>
	<path fill="#B0A789" d="M201.42,370.891c2.188-0.191,4.358,0.27,6.51,0.619C206,372.132,202.119,373.74,201.42,370.891
		L201.42,370.891z"/>
</g>
</svg>
