<?xml version="1.0" encoding="utf-8"?>
<!-- Generator: Adobe Illustrator 22.0.0, SVG Export Plug-In . SVG Version: 6.00 Build 0)  -->
<svg version="1.1" id="Layer_1" xmlns="http://www.w3.org/2000/svg" xmlns:xlink="http://www.w3.org/1999/xlink" x="0px" y="0px"
	 viewBox="0 0 20.312 21.125" enable-background="new 0 0 20.312 21.125" xml:space="preserve">
<path fill-rule="evenodd" clip-rule="evenodd" fill="#FFFFFF" d="M19.503,20.672c-0.032-0.195-0.058-0.381-0.087-0.587
	c-1.17,0.911-2.338,0.879-3.21-0.07c-0.767-0.83-0.767-2.283-0.003-3.14c0.837-0.939,2.033-0.975,3.249-0.048
	c0-0.744,0-1.443,0-2.175c0.243,0,0.43,0,0.685,0c0.013,0.187,0.035,0.372,0.035,0.559c0.004,1.635-0.006,3.265,0.017,4.9
	C20.195,20.579,20.093,20.849,19.503,20.672z M19.483,18.437c-0.013-0.923-0.68-1.667-1.487-1.654
	c-0.976,0.019-1.668,0.718-1.655,1.684c0.013,0.937,0.737,1.671,1.636,1.651C18.874,20.098,19.49,19.412,19.483,18.437z"/>
<path fill-rule="evenodd" clip-rule="evenodd" fill="#FFFFFF" d="M0.33,14.729c0.293,0,0.502,0,0.762,0c0,1.007,0,1.979,0,3.124
	c0.603-0.658,1.098-1.2,1.592-1.738c0.29-0.321,0.577-0.642,0.871-0.963c0.452-0.49,0.454-0.487,1.273-0.394
	c-0.816,0.888-1.592,1.734-2.412,2.623c0.877,1.081,1.745,2.151,2.646,3.262c-0.526,0.16-0.842,0.051-1.134-0.331
	c-0.619-0.81-1.286-1.581-1.919-2.354c-1.225,0.58-0.84,1.693-0.928,2.717c-0.226,0.013-0.446,0.025-0.682,0.038
	c-0.029-0.163-0.066-0.275-0.066-0.392C0.33,18.479,0.33,16.635,0.33,14.729z"/>
<path fill-rule="evenodd" clip-rule="evenodd" fill="#FFFFFF" d="M12.781,20.752c-1.316-0.019-2.33-1.032-2.311-2.309
	c0.017-1.271,1.078-2.31,2.347-2.31c1.246,0,2.257,1.098,2.222,2.405C15.004,19.815,14.028,20.774,12.781,20.752z M14.327,18.443
	c-0.01-0.956-0.711-1.668-1.621-1.643c-0.876,0.022-1.527,0.744-1.524,1.688c0.003,0.917,0.696,1.636,1.573,1.636
	C13.679,20.124,14.333,19.422,14.327,18.443z"/>
<path fill-rule="evenodd" clip-rule="evenodd" fill="#FFFFFF" d="M6.524,20.649c-0.521,0.151-0.746,0.071-0.734-0.455
	c0.027-1.292,0.01-2.585,0.01-3.916c0.249,0,0.452,0,0.697,0c0.018,0.228,0.036,0.452,0.05,0.632
	c0.351-0.225,0.661-0.52,1.028-0.645c1.11-0.382,2.112,0.312,2.219,1.559c0.074,0.837,0.042,1.687,0.015,2.53
	c-0.005,0.125-0.233,0.302-0.387,0.34c-0.075,0.02-0.309-0.211-0.316-0.337c-0.034-0.725-0.011-1.452-0.027-2.177
	c-0.018-0.904-0.397-1.366-1.104-1.386c-0.72-0.017-1.425,0.66-1.446,1.427C6.506,19.023,6.524,19.825,6.524,20.649z"/>
<path fill-rule="evenodd" clip-rule="evenodd" fill="#131313" d="M10.255,5.044c0.417-2.288,1.093-3.096,2.768-3.165
	c0,0.899,0.064,1.806-0.034,2.694c-0.037,0.341-0.38,0.755-0.697,0.944c-1.288,0.765-2.64,0.802-3.972,0.09
	C7.765,5.312,7.456,4.852,7.489,4.172c0.039-0.757,0.01-1.519,0.01-2.274C9.069,1.861,9.858,2.766,10.255,5.044z M8.676,4.383
	c0.212-0.357,0.418-0.556,0.409-0.742c-0.008-0.145-0.293-0.387-0.446-0.38C8.48,3.269,8.211,3.524,8.212,3.67
	C8.214,3.856,8.437,4.041,8.676,4.383z M11.84,3.025c-0.199,0.308-0.432,0.516-0.395,0.646C11.501,3.864,11.75,4,11.917,4.161
	c0.144-0.18,0.373-0.346,0.402-0.542C12.339,3.484,12.08,3.308,11.84,3.025z"/>
<g>
	<path fill-rule="evenodd" clip-rule="evenodd" fill="#FFFFFF" d="M13.679,10.307c-1.981-0.273-2.246-1.682-2.174-3.313
		c-0.478,0.072-0.603,0.329-0.619,0.707c-0.085,1.86,0.887,3.016,2.845,3.295c0.01,0.192,0.021,0.398,0.03,0.599
		c-2.715,0.337-5.074,0.023-6.429-2.631c-0.359-0.705-0.499-1.575-0.54-2.38C6.71,4.998,6.751,3.402,6.784,1.81
		c0.005-0.24,0.168-0.591,0.364-0.696c2.07-1.113,4.163-1.119,6.236,0c0.172,0.091,0.362,0.345,0.364,0.523
		c0.02,2.832,0.008,5.662,0.002,8.492C13.75,10.164,13.723,10.2,13.679,10.307z M10.255,5.044C9.858,2.766,9.069,1.861,7.499,1.898
		c0,0.755,0.029,1.517-0.01,2.274c-0.034,0.68,0.276,1.14,0.831,1.435c1.333,0.712,2.684,0.675,3.972-0.09
		c0.317-0.189,0.66-0.603,0.697-0.944c0.098-0.888,0.034-1.795,0.034-2.694C11.349,1.948,10.672,2.756,10.255,5.044z"/>
	<path fill-rule="evenodd" clip-rule="evenodd" fill="#FFFFFF" d="M8.676,4.383C8.437,4.041,8.214,3.856,8.212,3.67
		C8.211,3.524,8.48,3.269,8.639,3.261c0.152-0.007,0.438,0.235,0.446,0.38C9.094,3.827,8.888,4.026,8.676,4.383z"/>
	<path fill-rule="evenodd" clip-rule="evenodd" fill="#FFFFFF" d="M11.84,3.025c0.24,0.282,0.499,0.459,0.479,0.593
		c-0.029,0.196-0.259,0.362-0.402,0.542C11.75,4,11.501,3.864,11.445,3.671C11.408,3.542,11.641,3.333,11.84,3.025z"/>
</g>
</svg>
