<?xml version="1.0" encoding="utf-8"?>
<!-- Generator: Adobe Illustrator 22.0.0, SVG Export Plug-In . SVG Version: 6.00 Build 0)  -->
<svg version="1.1" id="Layer_1" xmlns="http://www.w3.org/2000/svg" xmlns:xlink="http://www.w3.org/1999/xlink" x="0px" y="0px"
	 viewBox="0 0 29.2 11.7" style="enable-background:new 0 0 29.2 11.7;" xml:space="preserve">
<style type="text/css">
	.st0{fill:#FFFFFF;}
	.st1{fill:#131313;}
</style>
<g>
	<path class="st0" d="M28.5,8.8c0-0.2-0.1-0.4-0.1-0.6c-1.2,0.9-2.3,0.9-3.2-0.1c-0.8-0.8-0.8-2.3,0-3.1c0.8-0.9,2-1,3.2,0
		c0-0.7,0-1.4,0-2.2c0.2,0,0.4,0,0.7,0c0,0.2,0,0.4,0,0.6c0,1.6,0,3.3,0,4.9C29.2,8.7,29.1,9,28.5,8.8z M28.5,6.6
		c0-0.9-0.7-1.7-1.5-1.7c-1,0-1.7,0.7-1.7,1.7c0,0.9,0.7,1.7,1.6,1.7C27.9,8.3,28.5,7.6,28.5,6.6z"/>
	<path class="st0" d="M9.3,2.9c0.3,0,0.5,0,0.8,0c0,1,0,2,0,3.1c0.6-0.7,1.1-1.2,1.6-1.7c0.3-0.3,0.6-0.6,0.9-1
		C13,2.8,13,2.8,13.8,2.9c-0.8,0.9-1.6,1.7-2.4,2.6c0.9,1.1,1.7,2.2,2.6,3.3c-0.5,0.2-0.8,0.1-1.1-0.3c-0.6-0.8-1.3-1.6-1.9-2.4
		c-1.2,0.6-0.8,1.7-0.9,2.7c-0.2,0-0.4,0-0.7,0c0-0.2-0.1-0.3-0.1-0.4C9.3,6.6,9.3,4.8,9.3,2.9z"/>
	<path class="st0" d="M21.8,8.9c-1.3,0-2.3-1-2.3-2.3s1.1-2.3,2.3-2.3c1.2,0,2.3,1.1,2.2,2.4C24,8,23,8.9,21.8,8.9z M23.3,6.6
		c0-1-0.7-1.7-1.6-1.6c-0.9,0-1.5,0.7-1.5,1.7c0,0.9,0.7,1.6,1.6,1.6C22.7,8.3,23.3,7.6,23.3,6.6z"/>
	<path class="st0" d="M15.5,8.8C15,9,14.8,8.9,14.8,8.3c0-1.3,0-2.6,0-3.9c0.2,0,0.5,0,0.7,0c0,0.2,0,0.5,0.1,0.6
		c0.4-0.2,0.7-0.5,1-0.6C17.7,4,18.7,4.7,18.8,6c0.1,0.8,0,1.7,0,2.5c0,0.1-0.2,0.3-0.4,0.3c-0.1,0-0.3-0.2-0.3-0.3
		c0-0.7,0-1.5,0-2.2c0-0.9-0.4-1.4-1.1-1.4s-1.4,0.7-1.4,1.4C15.5,7.2,15.5,8,15.5,8.8z"/>
</g>
<g>
	<path class="st1" d="M3.7,5c0.4-2.3,1.1-3.1,2.8-3.2c0,0.9,0.1,1.8,0,2.7c0,0.3-0.4,0.8-0.7,0.9c-1.3,0.8-2.6,0.8-4,0.1
		C1.3,5.2,0.9,4.8,1,4.1c0-0.8,0-1.5,0-2.3C2.6,1.8,3.3,2.7,3.7,5z M2.2,4.3c0.2-0.4,0.4-0.6,0.4-0.7c0-0.1-0.3-0.4-0.4-0.4
		C2,3.2,1.7,3.4,1.7,3.6S1.9,4,2.2,4.3z M5.3,2.9C5.1,3.2,4.9,3.5,4.9,3.6C5,3.8,5.2,3.9,5.4,4.1c0.1-0.2,0.4-0.3,0.4-0.5
		S5.6,3.2,5.3,2.9z"/>
	<g>
		<path class="st0" d="M7.2,10.2C5.2,9.9,4.9,8.5,5,6.9C4.5,7,4.4,7.2,4.4,7.6c-0.1,1.9,0.9,3,2.8,3.3c0,0.2,0,0.4,0,0.6
			c-2.7,0.3-5.1,0-6.4-2.6C0.5,8.2,0.3,7.3,0.3,6.5c-0.1-1.6,0-3.2,0-4.8c0-0.2,0.2-0.6,0.4-0.7c2.1-1.1,4.2-1.1,6.2,0
			C7,1.1,7.2,1.4,7.2,1.5c0,2.8,0,5.7,0,8.5C7.2,10.1,7.2,10.1,7.2,10.2z M3.7,5C3.3,2.7,2.6,1.8,1,1.8c0,0.8,0,1.5,0,2.3
			c0,0.7,0.3,1.1,0.8,1.4c1.3,0.7,2.7,0.7,4-0.1c0.3-0.2,0.7-0.6,0.7-0.9c0.1-0.9,0-1.8,0-2.7C4.8,1.9,4.2,2.7,3.7,5z"/>
		<path class="st0" d="M2.2,4.3C1.9,4,1.7,3.8,1.7,3.6c0-0.1,0.3-0.4,0.4-0.4c0.2,0,0.4,0.2,0.4,0.4C2.6,3.7,2.4,3.9,2.2,4.3z"/>
		<path class="st0" d="M5.3,2.9c0.2,0.3,0.5,0.5,0.5,0.6c0,0.2-0.3,0.4-0.4,0.5C5.2,3.9,5,3.8,4.9,3.6C4.9,3.5,5.1,3.2,5.3,2.9z"/>
	</g>
</g>
</svg>
