<svg xmlns="http://www.w3.org/2000/svg" width="207.65" height="54.368" viewBox="0 0 207.65 54.368">
  <g id="Group_53" data-name="Group 53" transform="translate(-124 -22)">
    <g id="Group_51" data-name="Group 51">
      <path id="Path_91" data-name="Path 91" d="M144.589,153.8a27.189,27.189,0,0,1,19.021-25.93,27.176,27.176,0,1,0,0,51.861A27.187,27.187,0,0,1,144.589,153.8Z" transform="translate(-4.304 -104.628)" fill="#a3d7bc"/>
      <path id="Path_92" data-name="Path 92" d="M258.15,126.63a27.2,27.2,0,0,0-8.15,1.245,27.185,27.185,0,0,1,0,51.862,27.179,27.179,0,1,0,8.15-53.1Z" transform="translate(-90.69 -104.63)" fill="#6ccad3"/>
      <ellipse id="Ellipse_23" data-name="Ellipse 23" cx="19.025" cy="25.931" rx="19.025" ry="25.931" transform="translate(140.285 23.245)" fill="#6ccad3"/>
      <path id="Path_93" data-name="Path 93" d="M197.139,190.7h.032a1.19,1.19,0,0,1,.685-.5,17.615,17.615,0,0,1-11.084-16.339c0-.168,0-.337,0-.5,0-.339.026-.673.055-1.007q.078-.9.241-1.767a9.534,9.534,0,0,0,1.326,1.767,9.383,9.383,0,0,0,1.111,1.007,9.6,9.6,0,0,0,12.857-1.007c.189-.2.371-.4.543-.618l.464.618.751,1.007.252.334.252-.334.754-1.007.58-.786a9.555,9.555,0,0,0,.667.786,9.868,9.868,0,0,0,1.111,1.007,9.575,9.575,0,0,0,12.836-1.007,9.741,9.741,0,0,0,1.132-1.451c.087-.139.171-.276.252-.418v1.863h-.07c.029.334.046.667.055,1.007v.5a17.615,17.615,0,0,1-11.084,16.339,1.19,1.19,0,0,1,.685.5h.186a1.143,1.143,0,0,1,1.41-.456,18.61,18.61,0,0,0,9.822-16.379v-.5h0V167.9a9.285,9.285,0,0,0,0-4.3v-7.834h-2.011V153h-.5v2.765h-2.13V153h-.5v2.765h-2.138V153h-.5v2.765h-6.528a18.494,18.494,0,0,0-8.56,0H193.3V153h-.514v2.765h-2.136V153h-.5v2.765H188.01V153h-.5v2.765H185.75V173.36h0v.5a18.613,18.613,0,0,0,9.865,16.42,1.161,1.161,0,0,1,1.494.421Zm7.228-18.683-.87-1.146a10.047,10.047,0,0,0,.662-1.233l.2-.331.9,1.506Zm17.586-15.242v4.251a9.645,9.645,0,0,0-4.97-4.251Zm-9.328.435a8.247,8.247,0,0,1,.972-.061,8.583,8.583,0,0,1,8.356,10.637v.035a8.35,8.35,0,0,1-.566,1.59,8.617,8.617,0,0,1-11.824,3.952,8.7,8.7,0,0,1-1.494-1.007,8.6,8.6,0,0,1,2.9-14.8,8.453,8.453,0,0,1,1.654-.354Zm-12.433-.435a17.447,17.447,0,0,1,8.333,0,10.482,10.482,0,0,1,1.021.29,9.665,9.665,0,0,0-5.063,5.664,9.648,9.648,0,0,0-5.153-5.707A6.6,6.6,0,0,1,200.191,156.772Zm-13.428,0h5.223a9.653,9.653,0,0,0-5.223,4.729Zm8.609.374c.258,0,.511.017.76.041a8.491,8.491,0,0,1,1.726.331,8.6,8.6,0,1,1-2.487-.371Z" transform="translate(-45.082 -123.348)" fill="#030303"/>
      <path id="Path_94" data-name="Path 94" d="M206.329,178.688a2.359,2.359,0,0,0,0-4.718,2.234,2.234,0,0,0-.368.038,2.4,2.4,0,0,0-1.99,2.321,2.292,2.292,0,0,0,.142.775A2.35,2.35,0,0,0,206.329,178.688Zm-.5-3.876a1.013,1.013,0,1,1-.911,1.451.975.975,0,0,1-.1-.429,1.013,1.013,0,0,1,1.013-1.021Z" transform="translate(-58.015 -138.234)" fill="#030303"/>
      <path id="Path_95" data-name="Path 95" d="M267.162,178.688a2.359,2.359,0,1,0-1.67-.69A2.359,2.359,0,0,0,267.162,178.688Zm.5-3.876a1.01,1.01,0,1,1-.717.3A1.013,1.013,0,0,1,267.667,174.811Z" transform="translate(-101.195 -138.234)" fill="#030303"/>
      <path id="Path_96" data-name="Path 96" d="M212.2,281.565H201.466a1.161,1.161,0,0,0-1.979,0h-.032a1.161,1.161,0,0,0-1.979,0h-.186a1.19,1.19,0,0,0-.685-.5,1.161,1.161,0,0,0-1.253.453c0,.017-.029.032-.041.049h-.125a17.563,17.563,0,0,1-10.184,0h-.125c0-.017-.029-.032-.041-.049a1.161,1.161,0,0,0-.949-.493,1.178,1.178,0,0,0-.989.543h-.035a1.161,1.161,0,0,0-1.494-.421,1.2,1.2,0,0,0-.485.421H180.7a1.161,1.161,0,0,0-1.979,0H167.985a2.263,2.263,0,1,0,0,4.523h10.643a1.175,1.175,0,0,0,2.147,0h.017a1.161,1.161,0,0,0,2.08.125,1.161,1.161,0,0,0,2.078-.125h10.266a1.175,1.175,0,0,0,2.147,0h.009a1.161,1.161,0,0,0,2.077.125,1.161,1.161,0,0,0,2.077-.125H212.19a2.263,2.263,0,1,0,0-4.523Zm-33.69,3.52H167.965a1.259,1.259,0,0,1,0-2.516h10.547Zm1.857-2.516v3.038a.676.676,0,0,1-1.352,0v-3.4a.67.67,0,0,1,.485-.638h.383a.67.67,0,0,1,.485.638Zm2.165,0v3.038a.676.676,0,0,1-1.352,0v-3.4a.67.67,0,0,1,.485-.638h.383a.67.67,0,0,1,.485.638Zm2.011-.084v3.122a.676.676,0,0,1-1.352,0v-3.4a.7.7,0,0,1,.032-.191.673.673,0,0,1,.453-.447h.383a.67.67,0,0,1,.485.638ZM195.1,285.1H185.058v-2.458a18.491,18.491,0,0,0,10.054,0Zm1.854-2.516v3.038a.676.676,0,0,1-1.352,0V282.2a.67.67,0,0,1,.485-.638h.383a.673.673,0,0,1,.453.447.6.6,0,0,1,.032.191Zm2.167,0v3.038a.679.679,0,0,1-1.355,0V282.2a.673.673,0,0,1,.485-.638.625.625,0,0,1,.191-.038.581.581,0,0,1,.191.038.673.673,0,0,1,.487.638Zm2.011,0v3.038a.679.679,0,0,1-1.355,0V282.2a.673.673,0,0,1,.485-.638.625.625,0,0,1,.192-.038.581.581,0,0,1,.192.038.673.673,0,0,1,.487.638Zm11.058,2.516H201.646V282.58H212.2a1.259,1.259,0,0,1,0,2.516Z" transform="translate(-30.807 -214.216)" fill="#030303"/>
    </g>
    <g id="Group_52" data-name="Group 52" transform="translate(37 212)">
      <path id="Path_108" data-name="Path 108" d="M25.476,206.49H31.8L21.787,218.685l10.577,14.229H25.744L17.313,221.03h-.074v11.878H12.09V206.49h5.149v11.146h.074Z" transform="translate(166.405 -382.567)" fill="#fff"/>
      <path id="Path_109" data-name="Path 109" d="M57.956,225.084h.069a5.138,5.138,0,0,1,4.485-2.134c4.622,0,5.955,3.257,5.955,7.251V240.71h-4.9v-9.122c0-2.071.105-4.743-2.635-4.743-2.909,0-2.941,3.257-2.941,5.328v8.511H53.05V223.5h4.906Z" transform="translate(147.031 -390.353)" fill="#fff"/>
      <path id="Path_110" data-name="Path 110" d="M104.771,232.1c0,5.328-3.647,9.149-9.043,9.149s-9.038-3.821-9.038-9.149,3.689-9.175,9.038-9.175S104.771,226.735,104.771,232.1Zm-13.106,0c0,2.314,1.544,4.8,4.063,4.8s4.068-2.487,4.068-4.8-1.544-4.833-4.068-4.833S91.665,229.713,91.665,232.1Z" transform="translate(131.119 -390.339)" fill="#fff"/>
      <path id="Path_111" data-name="Path 111" d="M135.7,228.344h-.069A5.75,5.75,0,0,1,131,230.521c-5.049,0-7.9-4.59-7.9-9.254,0-4.553,2.909-9.07,7.847-9.07a6.071,6.071,0,0,1,4.7,2.134h.053V200.25H140.6v29.707H135.7Zm.49-7c0-2.314-1.539-4.8-4.063-4.8s-4.063,2.487-4.063,4.8,1.544,4.833,4.063,4.833,4.058-2.519,4.058-4.833Z" transform="translate(113.897 -379.616)" fill="#fff"/>
      <path id="Path_112" data-name="Path 112" d="M168.368,207.674a2.9,2.9,0,1,1-.852-2.055A2.909,2.909,0,0,1,168.368,207.674Zm-.453,24.421h-4.906V214.9h4.906Z" transform="translate(95.237 -381.754)" fill="#fff"/>
      <path id="Path_113" data-name="Path 113" d="M183.545,229.569h-4.906V216.5H177v-4.121h1.65v-5.043c0-4.216,1.75-7.9,6.482-7.9a5.022,5.022,0,0,1,2.345.559v4.379a4.39,4.39,0,0,0-2-.6c-2.171,0-1.924,2.84-1.924,4.242v4.364h3.921v4.132h-3.921Z" transform="translate(88.402 -379.228)" fill="#fff"/>
      <path id="Path_114" data-name="Path 114" d="M195.4,224h5.586l4.1,9.776,4.4-9.776h5.465l-12.511,26.35h-5.4l5.681-11.8Z" transform="translate(79.698 -390.85)" fill="#fff"/>
    </g>
  </g>
</svg>
