<svg xmlns="http://www.w3.org/2000/svg" viewBox="0 0 243.5 273.8"><g id="Layer_2" data-name="Layer 2"><g id="Layer_1-2" data-name="Layer 1"><path d="M56.18,93.66A93.7,93.7,0,0,1,121.75,4.29a93.66,93.66,0,1,0,0,178.74A93.71,93.71,0,0,1,56.18,93.66Z" style="fill:#a3d7bc"/><path d="M149.84,0a93.49,93.49,0,0,0-28.09,4.29,93.69,93.69,0,0,1,0,178.74A93.67,93.67,0,1,0,149.84,0Z" style="fill:#96d9ee"/><ellipse cx="121.75" cy="93.66" rx="65.57" ry="89.37" style="fill:#6ccad3"/><path d="M96.72,156.28h.11a4.13,4.13,0,0,1,2.36-1.72A60.74,60.74,0,0,1,61,98.25c0-.58,0-1.16,0-1.74,0-1.16.09-2.31.19-3.46Q61.5,90,62.06,87a32.86,32.86,0,0,0,4.57,6.09,32.25,32.25,0,0,0,3.83,3.46,33.15,33.15,0,0,0,44.24-3.46c.65-.69,1.28-1.4,1.87-2.14l1.6,2.14,2.6,3.46.86,1.16.87-1.16,2.6-3.46,2-2.71a32.92,32.92,0,0,0,2.3,2.71,33.9,33.9,0,0,0,3.83,3.46,32.92,32.92,0,0,0,40.41,0,32.25,32.25,0,0,0,3.83-3.46,33.14,33.14,0,0,0,3.9-5c.3-.47.59-1,.87-1.43v6.42H182c.1,1.15.16,2.3.2,3.46,0,.58,0,1.16,0,1.74a60.72,60.72,0,0,1-38.2,56.31,4.1,4.1,0,0,1,2.36,1.72h.65a4.06,4.06,0,0,1,3.41-1.86,3.86,3.86,0,0,1,1.44.3,64.14,64.14,0,0,0,33.8-56.47c0-.58,0-1.16,0-1.74h0V77.72a32,32,0,0,0,0-14.82v-27H178.8V26.35h-1.73v9.53h-7.36V26.35H168v9.53h-7.37V26.35h-1.73v9.53h-22.5a63.39,63.39,0,0,0-29.5,0H83.52V26.35H81.78v9.53H74.42V26.35H72.69v9.53H65.33V26.35H63.59v9.53H57.53V96.51h0c0,.58,0,1.16,0,1.74a64.16,64.16,0,0,0,34,56.59,3.92,3.92,0,0,1,1.74-.42A4.07,4.07,0,0,1,96.72,156.28Zm24.91-64.39-3-4A33.79,33.79,0,0,0,121,83.7l.68-1.14,3.11,5.18Zm60.64-52.55V54a33.27,33.27,0,0,0-17.12-14.65Zm-32.15,1.5a30.75,30.75,0,0,1,3.35-.2,29.54,29.54,0,0,1,28.8,36.66l0,.11a29.2,29.2,0,0,1-1.94,5.48,29.86,29.86,0,0,1-7.81,10.16,29.66,29.66,0,0,1-38.05,0,29.66,29.66,0,0,1,15.68-52.21Zm-42.85-1.5a60.46,60.46,0,0,1,28.72,0c1.19.29,2.36.6,3.52,1a33.29,33.29,0,0,0-17.45,19.51A33.2,33.2,0,0,0,104.3,40.15C105.28,39.85,106.27,39.59,107.27,39.34ZM61,39.34H79A33.33,33.33,0,0,0,61,55.65Zm29.67,1.3c.89,0,1.76.06,2.62.13a29.62,29.62,0,0,1,27.05,29.54A29.18,29.18,0,0,1,114.4,88a29.88,29.88,0,0,1-4.71,5,29.63,29.63,0,0,1-38,0,29.65,29.65,0,0,1,19-52.41Z" style="fill:#030303"/><path d="M83.85,63.6a8.11,8.11,0,0,0,3.59-15.4,8,8,0,0,0-3.59-.87,9,9,0,0,0-1.27.13,8.28,8.28,0,0,0-6.86,8,7.9,7.9,0,0,0,.49,2.67A8.1,8.1,0,0,0,83.85,63.6ZM82.11,50.24a3.49,3.49,0,1,1-3.14,5,3.4,3.4,0,0,1-.35-1.49A3.48,3.48,0,0,1,82.11,50.24Z" style="fill:#030303"/><path d="M144.69,63.6a8.14,8.14,0,1,0-8.14-8.13A8.13,8.13,0,0,0,144.69,63.6Zm1.74-13.36a3.49,3.49,0,1,1-3.49,3.48A3.48,3.48,0,0,1,146.43,50.24Z" style="fill:#030303"/><path d="M197.86,156.28h-37a4,4,0,0,0-6.81,0h-.12a4.08,4.08,0,0,0-2-1.56,3.86,3.86,0,0,0-1.44-.3,4.06,4.06,0,0,0-3.41,1.86h-.65a4.1,4.1,0,0,0-2.36-1.72,4,4,0,0,0-1-.14,4,4,0,0,0-3.27,1.7c0,.06-.1.1-.14.16h-.43a60.53,60.53,0,0,1-35.1,0h-.43c0-.06-.1-.1-.14-.16a4,4,0,0,0-3.27-1.7,4.07,4.07,0,0,0-3.41,1.86h-.11a4.07,4.07,0,0,0-3.41-1.86,3.92,3.92,0,0,0-1.74.42,4.17,4.17,0,0,0-1.67,1.44h-.64a4.06,4.06,0,0,0-6.82,0h-37a7.8,7.8,0,0,0,0,15.6H82.15a4.05,4.05,0,0,0,7.4,0h.06a4,4,0,0,0,7.17.43,4,4,0,0,0,7.16-.43h35.38a4.05,4.05,0,0,0,7.4,0h.07a4,4,0,0,0,7.16.43,4,4,0,0,0,7.16-.43h36.75a7.8,7.8,0,0,0,0-15.6ZM81.78,168.41H45.4a4.33,4.33,0,1,1,0-8.66H81.78Zm6.4-8.66v10.46a2.33,2.33,0,0,1-4.66,0V158.48a2.31,2.31,0,0,1,1.67-2.2h1.32a2.31,2.31,0,0,1,1.67,2.2Zm7.46,0v10.46a2.33,2.33,0,0,1-4.66,0V158.48a2.31,2.31,0,0,1,1.67-2.2H94a2.31,2.31,0,0,1,1.67,2.2Zm6.93-.29v10.75a2.33,2.33,0,0,1-4.66,0V158.48a2.35,2.35,0,0,1,1.67-2.2h1.32a2.31,2.31,0,0,1,1.67,2.2ZM139,168.41H104.31V160A63.73,63.73,0,0,0,139,160Zm6.39-8.66v10.46a2.33,2.33,0,0,1-4.66,0V158.48a2.31,2.31,0,0,1,1.67-2.2h1.32a2.36,2.36,0,0,1,1.56,1.54,2.08,2.08,0,0,1,.11.66Zm7.47,0v10.46a2.35,2.35,0,0,1-.71,1.67,2.33,2.33,0,0,1-3.25,0,2.35,2.35,0,0,1-.71-1.67V158.48a2.32,2.32,0,0,1,1.67-2.2,1.77,1.77,0,0,1,1.33,0,2.32,2.32,0,0,1,1.67,2.2Zm6.93,0v10.46a2.35,2.35,0,0,1-.71,1.67,2.33,2.33,0,0,1-3.25,0,2.35,2.35,0,0,1-.71-1.67V158.48a2.32,2.32,0,0,1,1.67-2.2,1.77,1.77,0,0,1,1.33,0,2.32,2.32,0,0,1,1.67,2.2Zm38.11,8.66H161.48v-8.66h36.38a4.33,4.33,0,0,1,0,8.66Z" style="fill:#030303"/><path d="M36.94,206.26H49L30,229.39l20.08,27H37.48l-16-22.54h-.13v22.54H11.55V206.26h9.77V227.4h.13Z" style="fill:#fff"/><path d="M61.81,226.73H62c1.92-2.92,5.18-4,8.51-4,8.77,0,11.3,6.18,11.3,13.76v19.95H72.45V239.1c0-3.92.2-9-5-9-5.52,0-5.59,6.19-5.59,10.11v16.16h-9.3V223.74h9.3Z" style="fill:#fff"/><path d="M120.45,240.1c0,10.1-6.91,17.35-17.15,17.35S86.15,250.2,86.15,240.1s7-17.42,17.15-17.42S120.45,229.93,120.45,240.1Zm-24.86,0c0,4.38,2.92,9.11,7.71,9.11s7.71-4.73,7.71-9.11-2.92-9.18-7.71-9.18S95.59,235.58,95.59,240.1Z" style="fill:#fff"/><path d="M146.45,253.33h-.13a10.92,10.92,0,0,1-8.78,4.12c-9.57,0-15-8.71-15-17.55,0-8.65,5.52-17.22,14.89-17.22a11.52,11.52,0,0,1,8.91,4h.13V200h9.31v56.38h-9.31Zm.93-13.3c0-4.39-2.92-9.11-7.71-9.11S132,235.64,132,240s2.92,9.18,7.71,9.18S147.38,244.42,147.38,240Z" style="fill:#fff"/><path d="M173.05,210.05a5.52,5.52,0,1,1-5.52-5.52A5.5,5.5,0,0,1,173.05,210.05Zm-.87,46.34h-9.3V223.74h9.3Z" style="fill:#fff"/><path d="M188.87,256.39h-9.31v-24.8h-3.12v-7.85h3.12v-9.57c0-8,3.33-15,12.3-15a9.6,9.6,0,0,1,4.46,1.06v8.31a8.53,8.53,0,0,0-3.79-1.13c-4.12,0-3.66,5.39-3.66,8.05v8.24h7.45v7.85h-7.45Z" style="fill:#fff"/><path d="M194.86,223.74h10.57l7.78,18.55,8.37-18.55H232L208.22,273.8H198l10.77-22.4Z" style="fill:#fff"/></g></g></svg>