<?xml version="1.0" encoding="utf-8"?>
<!-- Generator: Adobe Illustrator 16.0.0, SVG Export Plug-In . SVG Version: 6.00 Build 0)  -->
<!DOCTYPE svg PUBLIC "-//W3C//DTD SVG 1.1//EN" "http://www.w3.org/Graphics/SVG/1.1/DTD/svg11.dtd">
<svg version="1.1" id="Layer_1" xmlns="http://www.w3.org/2000/svg" xmlns:xlink="http://www.w3.org/1999/xlink" x="0px" y="0px"
	 width="15px" height="15px" viewBox="0 0 15 15" enable-background="new 0 0 15 15" xml:space="preserve">
<path fill="#FF0000" d="M7.627,0.25c0,0-0.001,0-0.002,0c-4.073,0-7.375,3.3-7.375,7.373c0,0,0,0.001,0,0.002
	C0.25,11.697,3.55,15,7.623,15c0,0,0.001,0,0.002,0C11.697,15,15,11.699,15,7.627c0,0,0-0.001,0-0.002
	C15,3.552,11.699,0.25,7.627,0.25z M11.552,11.431H9.829L7.62,8.782l-2.209,2.648H3.688l3.002-3.806L3.688,3.82h1.723L7.62,6.468
	L9.829,3.82h1.733L8.55,7.625L11.552,11.431z"/>
</svg>
