<!-- Generated by IcoMoon.io -->
<svg version="1.1" xmlns="http://www.w3.org/2000/svg" width="32" height="32" viewBox="0 0 32 32">
<title>audio-on</title>
<path d="M14.857 25.143l-6.857-4.571h-4.571v-9.143h4.571l6.857-4.571v18.286zM19.136 21.016l-1.616-1.616c1.857-1.857 1.857-4.868 0-6.726l1.616-1.616c2.75 2.75 2.75 7.208 0 9.958zM21.959 23.101l-1.616-1.616c3.009-3.009 3.009-7.888 0-10.897l1.616-1.616c3.902 3.902 3.902 10.227 0 14.129zM24.781 25.187l-1.616-1.616c4.161-4.161 4.161-10.907 0-15.068l1.616-1.616c5.053 5.053 5.053 13.247 0 18.3z"></path>
</svg>
