<!-- Generated by IcoMoon.io -->
<svg version="1.1" xmlns="http://www.w3.org/2000/svg" width="32" height="32" viewBox="0 0 32 32">
<title>calendar-gray</title>
<path fill="#727272" d="M12 13.333v2.667h-2.667v-2.667h2.667zM17.333 13.333v2.667h-2.667v-2.667h2.667zM22.667 13.333v2.667h-2.667v-2.667h2.667zM25.333 4c1.472 0 2.667 1.195 2.667 2.667v18.667c0 1.472-1.195 2.667-2.667 2.667h-18.667c-1.48 0-2.667-1.2-2.667-2.667v-18.667c0-1.472 1.195-2.667 2.667-2.667h1.333v-2.667h2.667v2.667h10.667v-2.667h2.667v2.667h1.333zM25.333 25.333v-14.667h-18.667v14.667h18.667zM12 18.667v2.667h-2.667v-2.667h2.667zM17.333 18.667v2.667h-2.667v-2.667h2.667zM22.667 18.667v2.667h-2.667v-2.667h2.667z"></path>
</svg>
