<!-- Generated by IcoMoon.io -->
<svg version="1.1" xmlns="http://www.w3.org/2000/svg" width="32" height="32" viewBox="0 0 32 32">
<title>phone_gray</title>
<path fill="#727272" d="M20 16h2.667c0-3.681-2.984-6.667-6.667-6.667v2.667c2.208 0 4 1.791 4 4zM25.333 16h2.667c0-6.667-5.372-12-12-12v2.667c5.145 0 9.333 4.173 9.333 9.333zM26.667 20.667c-1.667 0-3.267-0.267-4.76-0.76-0.467-0.145-0.987-0.039-1.36 0.333l-2.933 2.933c-3.773-1.92-6.867-5.013-8.787-8.787l2.933-2.933c0.373-0.373 0.48-0.893 0.333-1.36-0.493-1.493-0.76-3.093-0.76-4.76 0-0.736-0.597-1.333-1.333-1.333h-4.667c-0.736 0-1.333 0.597-1.333 1.333 0 12.519 10.148 22.667 22.667 22.667 0.737 0 1.333-0.596 1.333-1.333v-4.667c0-0.737-0.596-1.333-1.333-1.333z"></path>
</svg>
