<!-- Generated by IcoMoon.io -->
<svg version="1.1" xmlns="http://www.w3.org/2000/svg" width="48" height="32" viewBox="0 0 48 32">
<title>quality</title>
<path fill="none" stroke="#727272" stroke-linejoin="miter" stroke-linecap="butt" stroke-miterlimit="10" stroke-width="1.6022" d="M8.877 4.135c1.327 0 2.403 1.076 2.403 2.403s-1.076 2.403-2.403 2.403c-1.327 0-2.403-1.076-2.403-2.403s1.076-2.403 2.403-2.403M8.877 13.746c1.327 0 2.403 1.076 2.403 2.402 0 1.329-1.076 2.405-2.403 2.405s-2.403-1.076-2.403-2.405c0-1.326 1.076-2.402 2.403-2.402M8.877 23.359c1.327 0 2.403 1.076 2.403 2.405 0 1.327-1.076 2.403-2.403 2.403s-2.403-1.076-2.403-2.403c0-1.329 1.076-2.405 2.403-2.405z"></path>
<path fill="none" stroke="#727272" stroke-linejoin="miter" stroke-linecap="butt" stroke-miterlimit="10" stroke-width="2.1573" d="M14.263 7.131h27.206"></path>
<path fill="none" stroke="#727272" stroke-linejoin="miter" stroke-linecap="butt" stroke-miterlimit="10" stroke-width="2.1573" d="M14.263 16.6h27.206"></path>
<path fill="none" stroke="#727272" stroke-linejoin="miter" stroke-linecap="butt" stroke-miterlimit="10" stroke-width="2.1573" d="M14.382 26.067h27.208"></path>
</svg>
