<!-- Generated by IcoMoon.io -->
<svg version="1.1" xmlns="http://www.w3.org/2000/svg" width="32" height="32" viewBox="0 0 32 32">
<title>share</title>
<path fill="#f00" d="M8.167 20.833c-2.573 0-4.667-2.093-4.667-4.667s2.093-4.667 4.667-4.667 4.667 2.093 4.667 4.667c0 2.573-2.093 4.667-4.667 4.667zM8.167 12.833c-1.837 0-3.333 1.496-3.333 3.333 0 1.839 1.496 3.333 3.333 3.333s3.333-1.495 3.333-3.333c0-1.837-1.496-3.333-3.333-3.333z"></path>
<path fill="#f00" d="M24.113 11.333c-2.575 0-4.667-2.093-4.667-4.667s2.092-4.667 4.667-4.667 4.667 2.093 4.667 4.667-2.092 4.667-4.667 4.667zM24.113 3.333c-1.839 0-3.333 1.496-3.333 3.333s1.495 3.333 3.333 3.333 3.333-1.496 3.333-3.333-1.495-3.333-3.333-3.333z"></path>
<path fill="#f00" d="M23.947 30.081c-2.575 0-4.667-2.092-4.667-4.667 0-2.573 2.092-4.667 4.667-4.667s4.667 2.093 4.667 4.667c0 2.573-2.092 4.667-4.667 4.667zM23.947 22.081c-1.839 0-3.333 1.495-3.333 3.333s1.495 3.333 3.333 3.333 3.333-1.495 3.333-3.333-1.495-3.333-3.333-3.333z"></path>
<path fill="#f00" d="M20.497 23.913l-9.5-5.5 0.668-1.154 9.5 5.5-0.668 1.154z"></path>
<path fill="#f00" d="M11.675 14.587l-0.671-1.152 9.487-5.524 0.671 1.152-9.487 5.524z"></path>
</svg>
