<!-- Generated by IcoMoon.io -->
<svg version="1.1" xmlns="http://www.w3.org/2000/svg" width="32" height="32" viewBox="0 0 32 32">
<title>thumb-down</title>
<path d="M21.461 24.354c-0.008 0.103-0.014 0.184-0.033 0.427-0.050 0.646-0.101 1.296-0.148 1.909-0.005 0.059-0.005 0.059-0.009 0.119-0.11 1.445-0.2 2.675-0.2 2.712v1.364l-1.227 0.597c-0.176 0.086-0.42 0.184-0.726 0.275-1 0.298-2.071 0.355-3.156-0.022-1.794-0.623-2.999-2.253-3.455-4.717-0.399-2.156-0.508-4.463-0.405-6.663l-4.924-0.010-0.089-0.008c-2.277-0.192-4.18-1.447-4.18-3.976 0-0.41 0.053-0.755 0.144-1.13-0.545-0.625-0.871-1.454-0.871-2.505 0-1.399 0.583-2.408 1.489-3.063-0.034-0.268-0.034-0.374-0.034-0.572 0-1.399 0.583-2.408 1.489-3.063-0.034-0.29-0.034-0.374-0.034-0.572 0-2.529 1.903-3.784 4.18-3.976l0.089-0.008 7.054-0.016c2.961 0 4.455 0.355 6.64 1.302 1.362 0.59 1.989 0.777 3.309 0.887l2.001 0.167v11.995l-3.622 2.083-3.281 6.466zM14.652 26.622c0.842 4.552 4.237 2.899 4.237 2.899 0-0.301 0.43-5.768 0.43-5.768l3.771-7.431 3.092-1.778v-8.726c-4.364-0.364-4.077-2.181-9.768-2.181l-6.959 0.015c-0.974 0.082-2.182 0.515-2.182 1.802s1.208 1.72 2.182 1.818l-1.455 0.015c-0.974 0.082-2.182 0.515-2.182 1.802s1.208 1.72 2.182 1.818l-1.455 0.015c-0.974 0.082-2.182 0.515-2.182 1.802s1.208 1.72 2.182 1.818l0.727 0.015c-0.974 0.082-2.182 0.515-2.182 1.802s1.208 1.72 2.182 1.802l7.234 0.015c-0.14 0.591-0.577 4.542 0.145 8.443z"></path>
</svg>
