<?xml version="1.0" encoding="utf-8"?>
<!-- Generator: Adobe Illustrator 16.0.0, SVG Export Plug-In . SVG Version: 6.00 Build 0)  -->
<!DOCTYPE svg PUBLIC "-//W3C//DTD SVG 1.1//EN" "http://www.w3.org/Graphics/SVG/1.1/DTD/svg11.dtd">
<svg version="1.1" id="Layer_1" xmlns="http://www.w3.org/2000/svg" xmlns:xlink="http://www.w3.org/1999/xlink" x="0px" y="0px"
	 width="30px" height="37px" viewBox="0 0 30 37" enable-background="new 0 0 30 37" xml:space="preserve">
<g>
	<g>
		<path fill="#352B2B" d="M19.473,25.67c0,0.186-0.185,0.555-0.185,0.555l-0.369,0.37c-0.185,0.185-0.37,0.185-0.554,0.185
			c-0.186,0-0.37,0-0.555-0.186c-0.185-0.184-0.369-0.184-0.369-0.369c0-0.185-0.185-0.554-0.185-0.554v-3.694
			c0-0.185,0.185-0.554,0.185-0.554l0.369-0.37c0.186-0.184,0.371-0.184,0.555-0.184c0.185,0,0.369,0,0.554,0.186
			c0.185,0.184,0.37,0.184,0.37,0.369c0,0.184,0.184,0.553,0.184,0.553V25.67z M20.951,23.085c0-0.554,0-0.923-0.186-1.478
			c-0.185-0.553-0.185-0.924-0.554-1.107c-0.37-0.186-0.554-0.37-0.924-0.555c-0.369-0.185-0.738-0.185-1.108-0.185
			c-0.369,0-0.738,0.185-1.107,0.185c-0.37,0-0.924,0.555-0.924,0.555l-0.554,1.107c-0.185,0.371-0.185,0.924-0.185,1.478v1.293
			c0,0.554,0,0.923,0.185,1.478s0.185,0.924,0.554,1.108c0.371,0.185,0.555,0.369,0.924,0.554s0.738,0.185,1.107,0.185
			c0.37,0,0.74-0.185,1.108-0.185c0.37,0,0.924-0.554,0.924-0.554l0.554-1.108c0.186-0.369,0.186-0.924,0.186-1.478V23.085z
			 M13.194,27.702v-7.941h-0.185l-3.324,1.108v1.293l1.847-0.555v6.095H13.194z M0.45,22.162c0,8.126,6.648,14.773,14.774,14.773
			C23.35,36.936,30,30.288,30,22.162h-3.693c0,6.094-4.986,11.08-11.081,11.08c-6.095,0-11.081-4.986-11.081-11.08
			c0-6.095,4.986-11.081,11.08-11.081v7.387l9.235-9.234L15.225,0v7.387C7.1,7.387,0.451,14.036,0.45,22.162L0.45,22.162z"/>
	</g>
</g>
</svg>
