<svg xmlns="http://www.w3.org/2000/svg" width="17.566" height="18.005" viewBox="0 0 17.566 18.005">
  <g id="noun_like_1548951" transform="translate(17.566 18.005) rotate(180)">
    <g id="Group_521" data-name="Group 521" transform="translate(0 0)">
      <path id="Path_549" data-name="Path 549" d="M4.9,9.236A.591.591,0,0,0,5.5,8.642V.594A.591.591,0,0,0,4.9,0H.594A.591.591,0,0,0,0,.594v8.07a.587.587,0,0,0,.594.572Z" transform="translate(0 8.769)" fill="#fff"/>
      <path id="Path_550" data-name="Path 550" d="M7.982,2.81A2.457,2.457,0,0,0,6.574.017C5.607-.181,5.5,1.4,5.5,1.4,5.255,3.25,3.408,4.811,2.858,5.361A15.663,15.663,0,0,0,1.583,7.8,8.15,8.15,0,0,1,.418,9.209H0v7.74a8.688,8.688,0,0,0,.858.616H9.389c1.473-.22,1.033-2.155,1.033-2.155a1.941,1.941,0,0,0,.286-2.4c1.561-1.517.352-2.727.352-2.727a1.92,1.92,0,0,0,.242-2.4c-.594-1.275-3.034-.88-4.046-.924C6.223,6.922,6.135,6.526,6.42,6A19.623,19.623,0,0,0,7.982,2.81Z" transform="translate(5.937 0)" fill="#fff"/>
    </g>
  </g>
</svg>
