<svg xmlns="http://www.w3.org/2000/svg" width="17.566" height="18.005" viewBox="0 0 17.566 18.005">
  <g id="noun_like_1548951" transform="translate(0 -0.001)">
    <g id="Group_521" data-name="Group 521" transform="translate(0 0.001)">
      <path id="Path_549" data-name="Path 549" d="M11.9,55.236a.591.591,0,0,0,.594-.594V46.594A.591.591,0,0,0,11.9,46H7.594A.591.591,0,0,0,7,46.594v8.07a.587.587,0,0,0,.594.572Z" transform="translate(-7 -37.231)" fill="#fff"/>
      <path id="Path_550" data-name="Path 550" d="M41.982,8.932a2.457,2.457,0,0,0-1.407-2.793c-.967-.2-1.077,1.385-1.077,1.385-.242,1.847-2.089,3.408-2.639,3.958a15.663,15.663,0,0,0-1.275,2.441,8.15,8.15,0,0,1-1.165,1.407H34v7.74a8.688,8.688,0,0,0,.858.616h8.531c1.473-.22,1.033-2.155,1.033-2.155a1.941,1.941,0,0,0,.286-2.4c1.561-1.517.352-2.727.352-2.727a1.92,1.92,0,0,0,.242-2.4c-.594-1.275-3.034-.88-4.046-.924-1.033-.044-1.121-.44-.836-.968A19.623,19.623,0,0,0,41.982,8.932Z" transform="translate(-28.063 -6.122)" fill="#fff"/>
    </g>
  </g>
</svg>
