<svg xmlns="http://www.w3.org/2000/svg" width="31" height="37" viewBox="0 0 31 37"><g><g><path fill="#fff" d="M19.822 25.67c0 .185-.185.555-.185.555l-.369.37c-.185.184-.37.184-.554.184-.185 0-.37 0-.554-.185-.185-.184-.37-.184-.37-.37 0-.184-.184-.553-.184-.553v-3.694c0-.185.185-.554.185-.554l.369-.37c.185-.184.37-.184.554-.184.185 0 .37 0 .554.185.185.184.37.184.37.37 0 .184.184.553.184.553zm1.662-2.585c0-.554 0-.923-.184-1.477-.185-.554-.185-.924-.555-1.108-.369-.185-.554-.37-.923-.554-.37-.185-.739-.185-1.108-.185-.37 0-.739.185-1.108.185-.37 0-.924.554-.924.554l-.554 1.108c-.184.37-.184.923-.184 1.477v1.293c0 .554 0 .923.184 1.477.185.555.185.924.554 1.109.37.184.555.369.924.554.37.184.739.184 1.108.184.37 0 .739-.184 1.108-.184.37 0 .923-.554.923-.554l.555-1.109c.184-.369.184-.923.184-1.477zm-7.941-3.324h-.185l-3.324 1.108v1.293l1.847-.554v6.094h1.662zm2.031-12.374V0L6.34 9.234l9.234 9.234v-7.387c6.095 0 11.081 4.986 11.081 11.08 0 6.095-4.986 11.082-11.08 11.082-6.095 0-11.082-4.987-11.082-11.081H.8c0 8.126 6.648 14.774 14.774 14.774S30.35 30.288 30.35 22.162 23.7 7.387 15.574 7.387z"/></g></g></svg>