<?xml version="1.0" encoding="utf-8"?>
<!-- Generator: Adobe Illustrator 16.0.0, SVG Export Plug-In . SVG Version: 6.00 Build 0)  -->
<!DOCTYPE svg PUBLIC "-//W3C//DTD SVG 1.1//EN" "http://www.w3.org/Graphics/SVG/1.1/DTD/svg11.dtd">
<svg version="1.1" id="Layer_1" xmlns="http://www.w3.org/2000/svg" xmlns:xlink="http://www.w3.org/1999/xlink" x="0px" y="0px"
	 width="31px" height="37px" viewBox="0 0 31 37" enable-background="new 0 0 31 37" xml:space="preserve">
<g>
	<g>
		<path fill="#352B2B" d="M19.822,25.67c0,0.186-0.186,0.555-0.186,0.555l-0.369,0.37c-0.185,0.185-0.369,0.185-0.554,0.185
			s-0.37,0-0.554-0.186c-0.186-0.184-0.37-0.184-0.37-0.369c0-0.185-0.185-0.554-0.185-0.554v-3.694
			c0-0.185,0.186-0.554,0.186-0.554l0.369-0.37c0.185-0.184,0.37-0.184,0.554-0.184c0.185,0,0.37,0,0.554,0.186
			c0.186,0.184,0.371,0.184,0.371,0.369c0,0.184,0.184,0.553,0.184,0.553V25.67z M21.484,23.085c0-0.554,0-0.923-0.185-1.478
			c-0.185-0.553-0.185-0.924-0.555-1.107c-0.369-0.186-0.554-0.37-0.923-0.555c-0.37-0.185-0.739-0.185-1.108-0.185
			c-0.37,0-0.739,0.185-1.108,0.185S16.682,20.5,16.682,20.5l-0.554,1.107c-0.184,0.371-0.184,0.924-0.184,1.478v1.293
			c0,0.554,0,0.923,0.184,1.478c0.185,0.555,0.185,0.924,0.554,1.108c0.37,0.185,0.555,0.369,0.924,0.554
			c0.371,0.185,0.739,0.185,1.108,0.185c0.37,0,0.739-0.185,1.108-0.185s0.923-0.554,0.923-0.554l0.555-1.108
			c0.185-0.369,0.185-0.924,0.185-1.478V23.085z M13.543,19.761h-0.185l-3.324,1.108v1.293l1.847-0.555v6.095h1.662V19.761z
			 M15.574,7.387V0L6.34,9.234l9.234,9.234v-7.387c6.095,0,11.081,4.986,11.081,11.08c0,6.095-4.986,11.082-11.08,11.082
			c-6.095,0-11.082-4.987-11.082-11.081H0.8c0,8.126,6.648,14.773,14.774,14.773S30.35,30.288,30.35,22.162S23.7,7.387,15.574,7.387
			z"/>
	</g>
</g>
</svg>
