<svg xmlns="http://www.w3.org/2000/svg" width="42" height="35" viewBox="0 0 42 35"><g><g><g><path fill="#fff" d="M16.527 5.419a1.696 1.696 0 0 0-.755-.175c-.395 0-.778.131-1.096.383l-7.14 5.761H1.751C.79 11.388 0 12.177 0 13.14v8.762c0 .964.789 1.753 1.752 1.753h5.783l7.141 5.75c.318.252.712.383 1.096.383.252 0 .514-.055.755-.175.614-.296.997-.91.997-1.577V7.007c0-.68-.383-1.292-.997-1.588z"/></g><g><path fill="#fff" d="M41.948 17.521c0-6.494-2.54-12.573-7.163-17.14a1.316 1.316 0 0 0-1.862.01 1.316 1.316 0 0 0 .011 1.863c4.118 4.063 6.375 9.484 6.375 15.267 0 5.783-2.268 11.205-6.375 15.268a1.316 1.316 0 0 0-.01 1.862c.251.263.59.394.93.394.329 0 .668-.131.92-.383 4.633-4.556 7.174-10.646 7.174-17.14z"/></g><g><path fill="#fff" d="M35.092 17.521c0-4.764-1.818-9.233-5.126-12.584a1.316 1.316 0 0 0-1.862-.011 1.316 1.316 0 0 0-.01 1.862c2.814 2.859 4.37 6.67 4.37 10.744 0 4.075-1.556 7.886-4.37 10.745a1.316 1.316 0 0 0 .01 1.862c.252.252.592.383.92.383.34 0 .68-.131.931-.394 3.308-3.374 5.137-7.842 5.137-12.607z"/></g><g><path fill="#fff" d="M24.424 9.471a1.316 1.316 0 0 0-1.862-.01 1.316 1.316 0 0 0-.01 1.861c1.62 1.643 2.518 3.845 2.518 6.2a8.803 8.803 0 0 1-2.519 6.199 1.316 1.316 0 0 0 .011 1.861c.252.252.592.384.92.384.34 0 .68-.132.931-.395 2.114-2.146 3.275-4.994 3.275-8.039.01-3.055-1.15-5.914-3.264-8.06z"/></g></g></g></svg>