<?xml version="1.0" encoding="utf-8"?>
<!-- Generator: Adobe Illustrator 16.0.0, SVG Export Plug-In . SVG Version: 6.00 Build 0)  -->
<!DOCTYPE svg PUBLIC "-//W3C//DTD SVG 1.1//EN" "http://www.w3.org/Graphics/SVG/1.1/DTD/svg11.dtd">
<svg version="1.1" id="Layer_1" xmlns="http://www.w3.org/2000/svg" xmlns:xlink="http://www.w3.org/1999/xlink" x="0px" y="0px"
	 width="42px" height="35px" viewBox="0 0 42 35" enable-background="new 0 0 42 35" xml:space="preserve">
<g>
	<g>
		<g>
			<path fill="#352B2B" d="M16.527,5.419c-0.235-0.116-0.493-0.176-0.755-0.175c-0.395,0-0.778,0.131-1.096,0.383l-7.14,5.761H1.751
				C0.79,11.388,0,12.177,0,13.14v8.762c0,0.964,0.789,1.753,1.752,1.753h5.783l7.141,5.75c0.318,0.252,0.712,0.383,1.096,0.383
				c0.252,0,0.514-0.056,0.755-0.175c0.614-0.297,0.997-0.91,0.997-1.577V7.007C17.524,6.327,17.141,5.715,16.527,5.419z"/>
		</g>
		<g>
			<path fill="none" stroke="#352B2B" stroke-width="3" stroke-linecap="round" stroke-linejoin="round" stroke-miterlimit="10" d="
				M24.374,10.298l15.227,15.226"/>
			<path fill="none" stroke="#352B2B" stroke-width="3" stroke-linecap="round" stroke-linejoin="round" stroke-miterlimit="10" d="
				M39.601,10.298L24.374,25.523"/>
		</g>
	</g>
</g>
</svg>
