<?xml version="1.0" encoding="utf-8"?>
<!-- Generator: Adobe Illustrator 16.0.0, SVG Export Plug-In . SVG Version: 6.00 Build 0)  -->
<!DOCTYPE svg PUBLIC "-//W3C//DTD SVG 1.1//EN" "http://www.w3.org/Graphics/SVG/1.1/DTD/svg11.dtd">
<svg version="1.1" id="Layer_1" xmlns="http://www.w3.org/2000/svg" xmlns:xlink="http://www.w3.org/1999/xlink" x="0px" y="0px"
	 width="42px" height="35px" viewBox="0 0 42 35" enable-background="new 0 0 42 35" xml:space="preserve">
<g>
	<g>
		<g>
			<path fill="#352B2B" d="M16.527,5.419c-0.235-0.116-0.493-0.176-0.755-0.175c-0.395,0-0.778,0.131-1.096,0.383l-7.14,5.761H1.751
				C0.79,11.388,0,12.177,0,13.14v8.762c0,0.964,0.789,1.753,1.752,1.753h5.783l7.141,5.75c0.318,0.252,0.712,0.383,1.096,0.383
				c0.252,0,0.514-0.056,0.755-0.175c0.614-0.297,0.997-0.91,0.997-1.577V7.007C17.524,6.327,17.141,5.715,16.527,5.419z"/>
		</g>
		<g>
			<path fill="#352B2B" d="M41.948,17.521c0-6.494-2.54-12.573-7.163-17.14c-0.517-0.511-1.35-0.507-1.861,0.009
				c0,0,0,0-0.001,0.001c-0.511,0.516-0.507,1.35,0.009,1.861c0.001,0.001,0.002,0.001,0.002,0.002
				c4.118,4.063,6.375,9.484,6.375,15.267c0,5.784-2.268,11.206-6.375,15.268c-0.517,0.511-0.521,1.344-0.011,1.861
				c0.001,0,0.001,0,0.001,0c0.251,0.264,0.59,0.395,0.93,0.395c0.33,0,0.668-0.131,0.92-0.383
				C39.407,30.105,41.948,24.016,41.948,17.521L41.948,17.521z"/>
		</g>
		<g>
			<path fill="#352B2B" d="M35.092,17.521c0-4.764-1.818-9.233-5.126-12.584c-0.511-0.517-1.344-0.522-1.86-0.012
				c-0.001,0-0.001,0.001-0.002,0.001c-0.517,0.511-0.521,1.344-0.01,1.861c0,0,0,0,0,0.001c2.814,2.859,4.37,6.67,4.37,10.744
				c0,4.075-1.556,7.886-4.37,10.745c-0.512,0.516-0.507,1.35,0.01,1.861l0,0c0.252,0.252,0.592,0.383,0.92,0.383
				c0.341,0,0.681-0.131,0.932-0.394C33.264,26.754,35.092,22.286,35.092,17.521z"/>
		</g>
		<g>
			<path fill="#352B2B" d="M24.424,9.471c-0.511-0.517-1.344-0.522-1.861-0.011c0,0,0,0.001,0,0.001
				c-0.518,0.511-0.521,1.344-0.011,1.861c1.62,1.643,2.519,3.845,2.519,6.2c0.009,2.318-0.896,4.544-2.52,6.199
				c-0.511,0.518-0.506,1.351,0.012,1.861c0.252,0.252,0.592,0.384,0.92,0.384c0.34,0,0.68-0.132,0.931-0.396
				c2.114-2.146,3.274-4.993,3.274-8.038C27.698,14.477,26.538,11.618,24.424,9.471L24.424,9.471z"/>
		</g>
	</g>
</g>
</svg>
