<?xml version="1.0" encoding="utf-8"?>
<!-- Generator: Adobe Illustrator 16.0.0, SVG Export Plug-In . SVG Version: 6.00 Build 0)  -->
<!DOCTYPE svg PUBLIC "-//W3C//DTD SVG 1.1//EN" "http://www.w3.org/Graphics/SVG/1.1/DTD/svg11.dtd">
<svg version="1.1" id="Layer_1" xmlns="http://www.w3.org/2000/svg" xmlns:xlink="http://www.w3.org/1999/xlink" x="0px" y="0px"
	 width="42px" height="35px" viewBox="0 0 42 35" enable-background="new 0 0 42 35" xml:space="preserve">
<g>
</g>
<g>
	<g>
		<path fill="#FFFFFF" d="M16.527,5.403c-0.235-0.116-0.493-0.176-0.755-0.175c-0.395,0-0.778,0.131-1.096,0.383l-7.14,5.761H1.751
			C0.79,11.372,0,12.161,0,13.124v8.763c0,0.963,0.789,1.752,1.752,1.752h5.783l7.141,5.75c0.318,0.252,0.712,0.383,1.096,0.383
			c0.252,0,0.514-0.055,0.755-0.174c0.614-0.297,0.997-0.91,0.997-1.578V6.991C17.524,6.311,17.142,5.699,16.527,5.403z"/>
	</g>
	<g>
		<path fill="none" stroke="#FFFFFF" stroke-width="3" stroke-linecap="round" stroke-linejoin="round" d="M21.975,10.298
			l15.229,15.226"/>
		<path fill="none" stroke="#FFFFFF" stroke-width="3" stroke-linecap="round" stroke-linejoin="round" d="M37.203,10.298
			L21.975,25.523"/>
	</g>
</g>
</svg>
