<?xml version="1.0" encoding="utf-8"?>
<!-- Generator: Adobe Illustrator 16.0.0, SVG Export Plug-In . SVG Version: 6.00 Build 0)  -->
<!DOCTYPE svg PUBLIC "-//W3C//DTD SVG 1.1//EN" "http://www.w3.org/Graphics/SVG/1.1/DTD/svg11.dtd">
<svg version="1.1" id="Layer_1" xmlns="http://www.w3.org/2000/svg" xmlns:xlink="http://www.w3.org/1999/xlink" x="0px" y="0px"
	 width="25px" height="25px" viewBox="0 0 25 25" enable-background="new 0 0 25 25" xml:space="preserve">
<g>
	<g>
		<g>
			<g>
				<g>
					<path fill="#352B2B" d="M16.368,16.008l-5.507,3.672c-0.315,0.209-0.741,0.123-0.951-0.191
						c-0.075-0.113-0.114-0.244-0.115-0.379v-7.343c0.001-0.379,0.309-0.686,0.687-0.685c0.135,0,0.267,0.04,0.379,0.115l5.507,3.67
						c0.315,0.209,0.401,0.634,0.192,0.949C16.51,15.892,16.444,15.957,16.368,16.008z M23.514,6.674H1.486
						C1.107,6.674,0.8,6.981,0.8,7.36l0,0v16.154c0,0.379,0.307,0.687,0.686,0.687h22.028c0.379,0,0.687-0.308,0.687-0.687l0,0V7.36
						C24.2,6.981,23.893,6.674,23.514,6.674L23.514,6.674z"/>
				</g>
			</g>
		</g>
		<g>
			<g>
				<g>
					<path fill="#352B2B" d="M21.313,3.737H3.689C3.311,3.751,3.015,4.07,3.03,4.449c0.014,0.358,0.301,0.646,0.659,0.659h17.624
						c0.378-0.021,0.668-0.344,0.647-0.722C21.941,4.036,21.662,3.757,21.313,3.737L21.313,3.737z"/>
				</g>
			</g>
		</g>
		<g>
			<g>
				<g>
					<path fill="#352B2B" d="M19.109,0.8H5.89C5.511,0.814,5.216,1.133,5.23,1.512C5.244,1.87,5.532,2.157,5.89,2.171h13.219
						c0.379-0.021,0.669-0.344,0.648-0.722C19.739,1.099,19.46,0.82,19.109,0.8L19.109,0.8z"/>
				</g>
			</g>
		</g>
	</g>
</g>
</svg>
