<svg xmlns="http://www.w3.org/2000/svg" width="25" height="25" viewBox="0 0 25 25"><g><g><g><g><g><path fill="#fff" d="M16.368 16.008l-5.507 3.671a.686.686 0 0 1-1.066-.57v-7.343a.686.686 0 0 1 1.066-.57l5.507 3.67a.685.685 0 0 1 0 1.142zm7.146-9.334H1.486A.686.686 0 0 0 .8 7.36v16.154c0 .379.307.686.686.686h22.028a.686.686 0 0 0 .686-.686V7.36a.686.686 0 0 0-.686-.686z"/></g></g></g><g><g><g><path fill="#fff" d="M21.312 3.737H3.689a.686.686 0 0 0 0 1.371h17.623a.686.686 0 0 0 0-1.37z"/></g></g></g><g><g><g><path fill="#fff" d="M19.109.8H5.89a.686.686 0 0 0 0 1.371H19.11a.686.686 0 0 0 0-1.37z"/></g></g></g></g></g></svg>