<?xml version="1.0" encoding="utf-8"?>
<!-- Generator: Adobe Illustrator 16.0.0, SVG Export Plug-In . SVG Version: 6.00 Build 0)  -->
<!DOCTYPE svg PUBLIC "-//W3C//DTD SVG 1.1//EN" "http://www.w3.org/Graphics/SVG/1.1/DTD/svg11.dtd">
<svg version="1.1" id="Layer_1" xmlns="http://www.w3.org/2000/svg" xmlns:xlink="http://www.w3.org/1999/xlink" x="0px" y="0px"
	 width="13.861px" height="15.313px" viewBox="0 0 13.861 15.313" enable-background="new 0 0 13.861 15.313" xml:space="preserve">
<g>
	<g>
		<path fill="#352B2B" d="M4.389,14.906H1.498c-0.202,0-0.366-0.162-0.367-0.363l0,0V0.767c0-0.199,0.163-0.36,0.367-0.36h2.891
			c0.204,0,0.367,0.161,0.367,0.36v13.776C4.756,14.742,4.593,14.906,4.389,14.906z"/>
	</g>
	<g>
		<path fill="#352B2B" d="M12.363,14.906H9.472c-0.201,0-0.365-0.162-0.367-0.363l0,0V0.767c0-0.199,0.164-0.36,0.367-0.36h2.891
			c0.203,0,0.367,0.161,0.367,0.36v13.776C12.73,14.742,12.566,14.906,12.363,14.906z"/>
	</g>
</g>
</svg>
