<?xml version="1.0" encoding="utf-8"?>
<!-- Generator: Adobe Illustrator 16.0.0, SVG Export Plug-In . SVG Version: 6.00 Build 0)  -->
<!DOCTYPE svg PUBLIC "-//W3C//DTD SVG 1.1//EN" "http://www.w3.org/Graphics/SVG/1.1/DTD/svg11.dtd">
<svg version="1.1" id="Layer_1" xmlns="http://www.w3.org/2000/svg" xmlns:xlink="http://www.w3.org/1999/xlink" x="0px" y="0px"
	 width="13.862px" height="15.313px" viewBox="13.875 16.25 13.862 15.313" enable-background="new 13.875 16.25 13.862 15.313"
	 xml:space="preserve">
<g>
	<g>
		<path fill="#FFFFFF" d="M18.264,31.156h-2.891c-0.202,0.001-0.366-0.162-0.367-0.363l0,0V17.018c0-0.199,0.163-0.362,0.367-0.362
			h2.89c0.205,0,0.368,0.163,0.368,0.362v13.775C18.631,30.993,18.468,31.156,18.264,31.156z"/>
	</g>
	<g>
		<path fill="#FFFFFF" d="M26.238,31.156h-2.891c-0.201,0.001-0.365-0.161-0.367-0.363l0,0V17.018c0-0.199,0.164-0.362,0.367-0.362
			h2.891c0.203,0,0.367,0.163,0.367,0.362v13.775C26.605,30.993,26.441,31.156,26.238,31.156z"/>
	</g>
</g>
</svg>
