<?xml version="1.0" encoding="utf-8"?>
<!-- Generator: Adobe Illustrator 16.0.0, SVG Export Plug-In . SVG Version: 6.00 Build 0)  -->
<!DOCTYPE svg PUBLIC "-//W3C//DTD SVG 1.1//EN" "http://www.w3.org/Graphics/SVG/1.1/DTD/svg11.dtd">
<svg version="1.1" id="Layer_1" xmlns="http://www.w3.org/2000/svg" xmlns:xlink="http://www.w3.org/1999/xlink"  viewBox="0 0 24 24" enable-background="new 0 0 24 24" xml:space="preserve">
<path fill="#C72F31" d="M21,6h-3.2L16,4h-6v2h5.1L17,8h4v12H5v-9H3v9c0,1.1,0.9,2,2,2h16c1.1,0,2-0.9,2-2V8C23,6.9,22.1,6,21,6
	 M8,14c0,4.45,5.391,6.689,8.54,3.54S17.45,9,13,9C10.24,9,8,11.24,8,14 M13,11c1.641,0.05,2.95,1.36,3,3
	c-0.05,1.641-1.359,2.95-3,3c-1.64-0.05-2.95-1.359-3-3C10.05,12.36,11.36,11.05,13,11 M5,6h3V4H5V1H3v3H0v2h3v3h2"/>
</svg>
