<svg xmlns="http://www.w3.org/2000/svg" width="19" height="22.167" viewBox="0 0 19 22.167">
  <g id="noun_test_3499831" transform="translate(-4 -2)">
    <g id="Group_201" data-name="Group 201" transform="translate(4 2)">
      <path id="Path_157" data-name="Path 157" d="M19.042,2H7.958A3.96,3.96,0,0,0,4,5.958v14.25a3.96,3.96,0,0,0,3.958,3.958H19.042A3.96,3.96,0,0,0,23,20.208V5.958A3.96,3.96,0,0,0,19.042,2ZM11.125,5.167h4.75a.792.792,0,0,1,0,1.583h-4.75a.792.792,0,0,1,0-1.583ZM11.687,18.4,9.312,20.77a.8.8,0,0,1-1.124,0L7.4,19.979A.795.795,0,1,1,8.52,18.855l.23.238,1.813-1.821A.795.795,0,1,1,11.687,18.4Zm0-7.125L9.312,13.645a.8.8,0,0,1-1.124,0L7.4,12.854A.795.795,0,1,1,8.52,11.73l.23.238,1.813-1.821a.795.795,0,1,1,1.124,1.124Zm7.355,8.938h-4.75a.792.792,0,1,1,0-1.583h4.75a.792.792,0,1,1,0,1.583Zm0-7.125h-4.75a.792.792,0,1,1,0-1.583h4.75a.792.792,0,1,1,0,1.583Z" transform="translate(-4 -2)" fill="#fff"/>
    </g>
  </g>
</svg>
