<?xml version="1.0" encoding="utf-8"?>
<!-- Generator: Adobe Illustrator 16.0.0, SVG Export Plug-In . SVG Version: 6.00 Build 0)  -->
<!DOCTYPE svg PUBLIC "-//W3C//DTD SVG 1.1//EN" "http://www.w3.org/Graphics/SVG/1.1/DTD/svg11.dtd">
<svg version="1.1" id="Layer_1" xmlns="http://www.w3.org/2000/svg" xmlns:xlink="http://www.w3.org/1999/xlink" x="0px" y="0px"
	 width="111.949px" height="46px" viewBox="0 0 111.949 46" enable-background="new 0 0 111.949 46" xml:space="preserve">
<g>
	<g id="Group_184" transform="translate(-1458.5 -1507)">
		<g>
			<g id="Repeat_Grid_2" transform="translate(1458.5 1507)">
				<g transform="translate(-1338.5 -1622)">
					<line id="Line_128" fill="none" stroke="#FFFFFF" x1="1326.492" y1="1622.5" x2="1383.492" y2="1622.5"/>
				</g>
				<g transform="translate(-1338.5 -1618)">
					<line id="Line_128-2" fill="none" stroke="#FFFFFF" x1="1326.492" y1="1622.5" x2="1383.492" y2="1622.5"/>
				</g>
				<g transform="translate(-1338.5 -1614)">
					<line id="Line_128-3" fill="none" stroke="#FFFFFF" x1="1326.492" y1="1622.5" x2="1383.492" y2="1622.5"/>
				</g>
				<g transform="translate(-1338.5 -1610)">
					<line id="Line_128-4" fill="none" stroke="#FFFFFF" x1="1326.492" y1="1622.5" x2="1383.492" y2="1622.5"/>
				</g>
				<g transform="translate(-1338.5 -1606)">
					<line id="Line_128-5" fill="none" stroke="#FFFFFF" x1="1326.492" y1="1622.5" x2="1383.492" y2="1622.5"/>
				</g>
				<g transform="translate(-1338.5 -1602)">
					<line id="Line_128-6" fill="none" stroke="#FFFFFF" x1="1326.492" y1="1622.5" x2="1383.492" y2="1622.5"/>
				</g>
				<g transform="translate(-1338.5 -1598)">
					<line id="Line_128-7" fill="none" stroke="#FFFFFF" x1="1326.492" y1="1622.5" x2="1383.492" y2="1622.5"/>
				</g>
				<g transform="translate(-1338.5 -1594)">
					<line id="Line_128-8" fill="none" stroke="#FFFFFF" x1="1326.492" y1="1622.5" x2="1383.492" y2="1622.5"/>
				</g>
				<g transform="translate(-1338.5 -1590)">
					<line id="Line_128-9" fill="none" stroke="#FFFFFF" x1="1326.492" y1="1622.5" x2="1383.492" y2="1622.5"/>
				</g>
				<g transform="translate(-1338.5 -1586)">
					<line id="Line_128-10" fill="none" stroke="#FFFFFF" x1="1326.492" y1="1622.5" x2="1383.492" y2="1622.5"/>
				</g>
				<g transform="translate(-1338.5 -1582)">
					<line id="Line_128-11" fill="none" stroke="#FFFFFF" x1="1326.492" y1="1622.5" x2="1383.492" y2="1622.5"/>
				</g>
				<g transform="translate(-1338.5 -1578)">
					<line id="Line_128-12" fill="none" stroke="#FFFFFF" x1="1326.492" y1="1622.5" x2="1383.492" y2="1622.5"/>
				</g>
			</g>
		</g>
	</g>
</g>
<path id="Icon_awesome-image" fill="#FFFFFF" d="M106.938,43.043H63.511c-2.768,0-5.012-2.243-5.012-5.011V7.968
	c0-2.767,2.244-5.011,5.012-5.011h43.427c2.769,0,5.013,2.244,5.013,5.011l0,0v30.064C111.949,40.8,109.705,43.043,106.938,43.043z
	 M70.191,8.803c-3.229,0-5.846,2.617-5.846,5.846s2.616,5.846,5.846,5.846c3.229,0,5.848-2.617,5.848-5.846l0,0
	C76.039,11.42,73.421,8.803,70.191,8.803z M65.182,36.357h40.086V24.669l-9.138-9.136c-0.487-0.489-1.282-0.489-1.771,0
	L80.213,29.68l-5.799-5.802c-0.49-0.489-1.283-0.489-1.771,0l-7.461,7.472V36.357L65.182,36.357z"/>
</svg>
