<?xml version="1.0" encoding="utf-8"?>
<!-- Generator: Adobe Illustrator 16.0.0, SVG Export Plug-In . SVG Version: 6.00 Build 0)  -->
<!DOCTYPE svg PUBLIC "-//W3C//DTD SVG 1.1//EN" "http://www.w3.org/Graphics/SVG/1.1/DTD/svg11.dtd">
<svg version="1.1" id="Layer_1" xmlns="http://www.w3.org/2000/svg" xmlns:xlink="http://www.w3.org/1999/xlink" x="0px" y="0px"
	 width="21.9px" height="21.9px" viewBox="0 0 21.9 21.9" enable-background="new 0 0 21.9 21.9" xml:space="preserve">
<path id="Icon_ionic-ios-time" fill="#F36633" d="M10.95,0C4.902,0,0,4.902,0,10.95S4.902,21.9,10.95,21.9S21.9,16.998,21.9,10.95
	l0,0C21.901,4.903,17.001,0.001,10.954,0C10.953,0,10.951,0,10.95,0z M11.687,11.9c-0.001,0.406-0.331,0.734-0.737,0.737H5.896
	c-0.407,0-0.737-0.33-0.737-0.737s0.33-0.737,0.737-0.737h4.315V4.212c0-0.405,0.33-0.735,0.737-0.735s0.737,0.33,0.737,0.735
	L11.687,11.9L11.687,11.9z"/>
</svg>
