<?xml version="1.0" encoding="utf-8"?>
<!-- Generator: Adobe Illustrator 16.0.0, SVG Export Plug-In . SVG Version: 6.00 Build 0)  -->
<!DOCTYPE svg PUBLIC "-//W3C//DTD SVG 1.1//EN" "http://www.w3.org/Graphics/SVG/1.1/DTD/svg11.dtd">
<svg version="1.1" id="Layer_1" xmlns="http://www.w3.org/2000/svg" xmlns:xlink="http://www.w3.org/1999/xlink" x="0px" y="0px"
	 width="68px" height="68px" viewBox="0 0 68 68" enable-background="new 0 0 68 68" xml:space="preserve">
<path fill="#6CCAD3" d="M0,34C0,15.222,15.222,0,34,0c18.777,0,34,15.222,34,34c0,18.777-15.223,34-34,34C15.222,68,0,52.777,0,34z"
	/>
<path fill="#FFFFFF" d="M43.613,29.829c-0.526,0.536-1.399,0.536-1.938,0.01l-6.403-6.385v24.332c0,0.747-0.608,1.356-1.371,1.356
	c-0.758,0-1.368-0.609-1.368-1.356V23.454L26.13,29.85c-0.537,0.526-1.4,0.515-1.936-0.01c-0.529-0.535-0.524-1.396,0.01-1.926
	l8.732-8.668c0.126-0.115,0.263-0.21,0.431-0.284c0.506-0.21,1.09-0.099,1.482,0.284l8.729,8.668
	c0.537,0.509,0.563,1.357,0.051,1.895C43.627,29.815,43.619,29.822,43.613,29.829z"/>
</svg>
