<svg xmlns="http://www.w3.org/2000/svg" width="44.234" height="44.236" viewBox="0 0 44.234 44.236">
  <path id="Icon_ionic-ios-person" data-name="Icon ionic-ios-person" d="M48.713,47.619c-.829-3.663-5.564-5.449-7.2-6.025a53.68,53.68,0,0,0-6-1.152,6.1,6.1,0,0,1-2.776-1.279c-.461-.553-.184-5.679-.184-5.679a17.086,17.086,0,0,0,1.313-2.5,32.245,32.245,0,0,0,.968-4.366s.945,0,1.279-1.659c.357-1.809.922-2.511.852-3.859-.069-1.325-.795-1.29-.795-1.29a20.2,20.2,0,0,0,.783-5.91c.1-4.735-3.606-9.4-10.322-9.4-6.808,0-10.437,4.666-10.333,9.4a21.067,21.067,0,0,0,.772,5.91s-.726-.035-.795,1.29c-.069,1.348.5,2.051.852,3.859.323,1.659,1.279,1.659,1.279,1.659a32.244,32.244,0,0,0,.968,4.366,17.087,17.087,0,0,0,1.313,2.5s.276,5.126-.184,5.679a6.1,6.1,0,0,1-2.776,1.279,53.68,53.68,0,0,0-6,1.152c-1.636.576-6.37,2.362-7.2,6.025a.921.921,0,0,0,.91,1.117H47.814A.919.919,0,0,0,48.713,47.619Z" transform="translate(-4.501 -4.5)" fill="#fff"/>
</svg>
