<?xml version="1.0" encoding="utf-8"?>
<!-- Generator: Adobe Illustrator 16.0.0, SVG Export Plug-In . SVG Version: 6.00 Build 0)  -->
<!DOCTYPE svg PUBLIC "-//W3C//DTD SVG 1.1//EN" "http://www.w3.org/Graphics/SVG/1.1/DTD/svg11.dtd">
<svg version="1.1" id="Layer_1" xmlns="http://www.w3.org/2000/svg" xmlns:xlink="http://www.w3.org/1999/xlink" x="0px" y="0px"
	 width="27px" height="31px" viewBox="0 0 27 31" enable-background="new 0 0 27 31" xml:space="preserve">
<g>
	<path fill="#96D9EE" d="M26.376,7.926c-0.229-0.551-0.505-0.986-0.826-1.309l-5.37-5.371c-0.322-0.322-0.759-0.597-1.31-0.827
		c-0.552-0.229-1.056-0.343-1.515-0.343H1.931c-0.459,0-0.85,0.16-1.17,0.482c-0.315,0.307-0.49,0.73-0.482,1.17v27.543
		c0,0.459,0.16,0.851,0.482,1.17c0.32,0.322,0.711,0.481,1.17,0.481h23.137c0.459,0,0.852-0.159,1.17-0.481
		c0.322-0.319,0.484-0.711,0.484-1.17V9.441C26.723,8.981,26.605,8.477,26.376,7.926z M17.906,2.416
		c0.332,0.115,0.566,0.241,0.705,0.379l5.39,5.389c0.138,0.138,0.265,0.373,0.377,0.705h-6.472V2.416z M24.518,28.721H2.481V2.279
		h13.221v7.162c0,0.459,0.159,0.849,0.481,1.17c0.322,0.322,0.713,0.482,1.17,0.482h7.162v17.628H24.518z"/>
	<path fill="#96D9EE" d="M22.175,20.2c-0.344-0.563-1.358-0.845-3.047-0.845c-0.666,0-1.336,0.041-2.015,0.121
		c-0.502-0.289-0.985-0.611-1.444-0.963c-1.046-0.852-1.883-2.216-2.515-4.099c0.138-0.792,0.218-1.895,0.241-3.306v-0.517
		c0.002-0.047-0.004-0.093-0.018-0.138c0.033-0.04,0.057-0.087,0.07-0.137c0.102-0.54,0.05-0.931-0.156-1.171
		c-0.138-0.172-0.338-0.258-0.602-0.258h-0.38c-0.355,0-0.597,0.229-0.722,0.688c-0.15,0.574-0.188,1.307-0.112,2.195
		c0.075,0.89,0.25,1.805,0.524,2.746c-0.412,1.445-1.01,2.949-1.789,4.51c-0.563,1.158-1.178,2.289-1.843,3.391
		c0-0.023-0.012-0.046-0.034-0.068c-0.104-0.172-0.236-0.207-0.396-0.104c-0.975,0.518-1.733,1.07-2.271,1.661
		c-0.541,0.591-0.861,1.116-0.965,1.575c-0.046,0.299-0.011,0.506,0.104,0.621c0.058,0.045,0.092,0.073,0.104,0.084l0.413,0.207
		c0.149,0.08,0.31,0.121,0.481,0.121c1.021,0,2.41-1.505,4.166-4.511c1.963-0.678,4.213-1.153,6.748-1.43
		c0.725,0.38,1.471,0.684,2.238,0.913c0.77,0.229,1.43,0.344,1.98,0.344c0.744,0,1.151-0.218,1.222-0.652v-0.019l0.034-0.035
		c0.012-0.011,0.018-0.022,0.018-0.033C22.37,20.751,22.359,20.452,22.175,20.2z M5.753,25.588c0.149-0.344,0.433-0.77,0.852-1.273
		c0.449-0.534,0.955-1.02,1.507-1.445C7.136,24.406,6.349,25.313,5.753,25.588z M12.604,9.75V9.717
		c0.011-0.012,0.017-0.023,0.017-0.035c0.144,0.176,0.223,0.395,0.224,0.621c0,0.01,0.002,0.021,0.009,0.024
		c0.006,0.006,0.009,0.015,0.009,0.026s0.006,0.022,0.018,0.033c-0.033,0.041-0.057,0.088-0.069,0.139
		c-0.08,0.46-0.12,0.706-0.12,0.74c-0.07,0.425-0.11,0.677-0.12,0.758C12.421,10.99,12.431,10.233,12.604,9.75z M10.47,21.129
		c0.172-0.311,0.43-0.785,0.774-1.429c0.642-1.272,1.119-2.404,1.429-3.39c0.586,1.25,1.313,2.26,2.187,3.028
		c0.059,0.058,0.149,0.136,0.274,0.231c0.128,0.098,0.201,0.15,0.226,0.164C13.648,20.045,12.019,20.51,10.47,21.129z
		 M21.314,20.924c-0.551,0-1.264-0.162-2.137-0.482c1.332,0,2.137,0.138,2.41,0.412h0.002c0.021,0.023,0.033,0.041,0.033,0.054
		C21.521,20.922,21.418,20.928,21.314,20.924z"/>
</g>
</svg>
