<?xml version="1.0" encoding="utf-8"?>
<!-- Generator: Adobe Illustrator 16.0.0, SVG Export Plug-In . SVG Version: 6.00 Build 0)  -->
<!DOCTYPE svg PUBLIC "-//W3C//DTD SVG 1.1//EN" "http://www.w3.org/Graphics/SVG/1.1/DTD/svg11.dtd">
<svg version="1.1" id="Layer_1" xmlns="http://www.w3.org/2000/svg" xmlns:xlink="http://www.w3.org/1999/xlink" x="0px" y="0px"
	 width="12px" height="12px" viewBox="0 0 12 12" enable-background="new 0 0 12 12" xml:space="preserve">
<g>
	<path fill="#6CCAD3" d="M6.026,8.357c-1.304,0-2.361-1.058-2.361-2.36c0-1.304,1.056-2.361,2.36-2.361l0,0
		c1.303,0,2.362,1.056,2.362,2.359c0,1.303-1.058,2.36-2.361,2.36V8.357z M10.73,5.998c0-0.62,0.387-1.148,0.936-1.36
		c-0.143-0.595-0.379-1.164-0.699-1.685C10.416,3.198,9.771,3.08,9.344,2.655C8.918,2.228,8.799,1.583,9.043,1.031
		C8.523,0.71,7.955,0.474,7.359,0.332C7.143,0.895,6.604,1.267,6,1.268c-0.604,0-1.145-0.373-1.361-0.936
		c-0.595,0.143-1.164,0.379-1.685,0.7C3.28,1.766,2.95,2.626,2.216,2.953C1.838,3.121,1.408,3.121,1.031,2.952
		c-0.319,0.523-0.554,1.094-0.697,1.69C1.085,4.93,1.46,5.772,1.173,6.523C1.026,6.909,0.721,7.213,0.337,7.361
		c0.143,0.596,0.379,1.164,0.7,1.686c0.55-0.242,1.193-0.123,1.62,0.301c0.424,0.428,0.543,1.07,0.3,1.62
		c0.521,0.321,1.091,0.558,1.686,0.7c0.286-0.75,1.126-1.125,1.875-0.84c0.387,0.148,0.693,0.453,0.84,0.84
		c0.597-0.143,1.164-0.379,1.687-0.7c-0.244-0.55-0.123-1.192,0.302-1.62c0.426-0.424,1.069-0.543,1.618-0.301
		c0.322-0.521,0.558-1.09,0.701-1.686C11.102,7.143,10.732,6.602,10.73,5.998L10.73,5.998z"/>
</g>
</svg>
