<svg xmlns="http://www.w3.org/2000/svg" width="15.065" height="12.956" viewBox="0 0 15.065 12.956">
  <g id="noun_message_3729475" transform="translate(0 0)">
    <path id="Path_168" data-name="Path 168" d="M24.4,13.121H11.413a1.039,1.039,0,0,0-1.039,1.036v8.168a1.042,1.042,0,0,0,1.039,1.039h1.151v2.41a.306.306,0,0,0,.3.3.306.306,0,0,0,.214-.09L15.7,23.365h8.7a1.042,1.042,0,0,0,1.039-1.039V14.158A1.039,1.039,0,0,0,24.4,13.121ZM13.6,15.53h5.586a.3.3,0,1,1,0,.6H13.6a.3.3,0,0,1,0-.6Zm8.612,5.423H13.6a.3.3,0,0,1,0-.6h8.612a.3.3,0,1,1,0,.6Zm0-2.41H13.6a.3.3,0,0,1,0-.6h8.612a.3.3,0,1,1,0,.6Z" transform="translate(-10.373 -13.121)" fill="#fff"/>
  </g>
</svg>
