<svg xmlns="http://www.w3.org/2000/svg" width="34" height="32" viewBox="0 0 34 32">
  <g id="Group_537" data-name="Group 537" transform="translate(-1408 -1558)">
    <ellipse id="Ellipse_473" data-name="Ellipse 473" cx="17" cy="16" rx="17" ry="16" transform="translate(1408 1558)" fill="#29b46c"/>
    <g id="noun_clock_1933964_1_" data-name="noun_clock_1933964 (1)" transform="translate(1418 1567)">
      <g id="Group_447" data-name="Group 447" transform="translate(0 0)">
        <path id="Path_411" data-name="Path 411" d="M8.345,1A7.345,7.345,0,1,0,15.69,8.345,7.327,7.327,0,0,0,8.345,1ZM2.591,8.651H2.041a.289.289,0,0,1-.306-.306.307.307,0,0,1,.306-.306h.551a.306.306,0,1,1,0,.612ZM8.039,2.041a.306.306,0,1,1,.612,0v.551a.306.306,0,1,1-.612,0ZM4.489,12.63l-.4.4a.3.3,0,0,1-.428-.428l.4-.4a.3.3,0,1,1,.428.428Zm0-8.141a.3.3,0,0,1-.428,0l-.4-.4a.3.3,0,0,1,.428-.428l.4.4A.3.3,0,0,1,4.489,4.489ZM8.651,14.649a.306.306,0,0,1-.612,0V14.1a.306.306,0,0,1,.612,0ZM11.1,11.1a.3.3,0,0,1-.428,0L8.712,9.141a.815.815,0,0,1-.367.092.888.888,0,0,1-.888-.888.865.865,0,0,1,.581-.826V4.213a.306.306,0,1,1,.612,0V7.519a.9.9,0,0,1,.581.826.815.815,0,0,1-.092.367L11.1,10.671A.3.3,0,0,1,11.1,11.1ZM13,13a.3.3,0,0,1-.428,0L12.2,12.63a.3.3,0,1,1,.428-.428l.4.4A.288.288,0,0,1,13,13Zm0-8.906-.367.4A.3.3,0,1,1,12.2,4.06l.4-.4a.3.3,0,0,1,.428,0A.325.325,0,0,1,13,4.091Zm1.1,3.948h.551a.306.306,0,0,1,0,.612H14.1a.306.306,0,0,1,0-.612Z" transform="translate(-1 -1)" fill="#fff"/>
      </g>
    </g>
  </g>
</svg>
