<?xml version="1.0" encoding="utf-8"?>
<!-- Generator: Adobe Illustrator 16.0.0, SVG Export Plug-In . SVG Version: 6.00 Build 0)  -->
<!DOCTYPE svg PUBLIC "-//W3C//DTD SVG 1.1//EN" "http://www.w3.org/Graphics/SVG/1.1/DTD/svg11.dtd">
<svg version="1.1" id="Layer_1" xmlns="http://www.w3.org/2000/svg" xmlns:xlink="http://www.w3.org/1999/xlink" x="0px" y="0px"
	 width="33px" height="41px" viewBox="0 0 33 41" enable-background="new 0 0 33 41" xml:space="preserve">
<g>
	<g opacity="0">
		<g>
		</g>
	</g>
</g>
<path fill="#FFFFFF" d="M3.598,6.707h25.47c0.936,0,1.695,0.759,1.695,1.695s-0.76,1.695-1.695,1.695H3.598
	c-0.936,0-1.695-0.759-1.695-1.695S2.662,6.707,3.598,6.707z M10.305,3.645c-0.013-1.001,0.789-1.823,1.791-1.835
	c0.018,0,0.036,0,0.054,0h8.364c1.002-0.018,1.828,0.78,1.846,1.782c0.001,0.018,0.001,0.036,0,0.054v1.178H10.305V3.645z
	 M7.422,38.261c-1.61,0-2.863-1.384-2.863-3.155V11.981h23.548v23.125c0,1.771-1.254,3.155-2.863,3.155H7.422z M2.675,11.898v23.208
	c0,1.371,0.503,2.66,1.382,3.584c0.874,0.926,2.091,1.453,3.365,1.455h17.822c1.273-0.002,2.49-0.528,3.365-1.455
	c0.879-0.924,1.382-2.213,1.382-3.584V11.898c1.92-0.511,3.063-2.482,2.552-4.402c-0.42-1.575-1.846-2.671-3.475-2.672h-4.823V3.645
	c0.011-2.043-1.637-3.709-3.681-3.72c-0.016,0-0.033,0-0.049,0h-8.365c-2.043-0.017-3.713,1.626-3.73,3.67c0,0.017,0,0.034,0,0.05
	v1.178H3.598C1.61,4.829,0.003,6.444,0.009,8.432C0.013,10.057,1.106,11.477,2.675,11.898z"/>
<g>
	<path fill="#FFFFFF" d="M10.776,14.496c-0.52,0-0.942,0.422-0.942,0.942l0,0v17.803c0,0.521,0.422,0.941,0.942,0.941
		s0.941-0.422,0.941-0.941V15.438C11.718,14.918,11.296,14.496,10.776,14.496L10.776,14.496z"/>
</g>
<g>
	<path fill="#FFFFFF" d="M16.333,14.496c-0.52,0-0.942,0.422-0.942,0.942l0,0v17.803c0,0.521,0.422,0.941,0.942,0.941
		c0.52,0,0.942-0.422,0.942-0.941V15.438C17.275,14.918,16.853,14.496,16.333,14.496z"/>
</g>
<g>
	<path fill="#FFFFFF" d="M21.891,14.496c-0.521,0-0.942,0.422-0.942,0.942v17.803c0,0.521,0.421,0.942,0.942,0.942
		c0.52,0,0.941-0.422,0.941-0.942V15.438C22.832,14.918,22.41,14.496,21.891,14.496z"/>
</g>
</svg>
