<svg xmlns="http://www.w3.org/2000/svg" width="18.603" height="18.603" viewBox="0 0 18.603 18.603">
  <g id="Group_249" data-name="Group 249" transform="translate(-1367 -186.067)">
    <g id="Group_246" data-name="Group 246" transform="translate(1367 186)">
      <circle id="Ellipse_337" data-name="Ellipse 337" cx="8" cy="8" r="8" transform="translate(0 2)" fill="#fff"/>
      <path id="Icon_awesome-check-circle" data-name="Icon awesome-check-circle" d="M19.165,9.864a9.3,9.3,0,1,1-9.3-9.3A9.3,9.3,0,0,1,19.165,9.864ZM8.788,14.789l6.9-6.9a.6.6,0,0,0,0-.849l-.849-.849a.6.6,0,0,0-.849,0L8.364,11.819,5.736,9.191a.6.6,0,0,0-.849,0l-.849.849a.6.6,0,0,0,0,.849l3.9,3.9a.6.6,0,0,0,.849,0Z" transform="translate(-0.563 -0.496)" fill="#3ce514"/>
    </g>
  </g>
</svg>
