<?xml version="1.0" encoding="utf-8"?>
<!-- Generator: Adobe Illustrator 16.0.0, SVG Export Plug-In . SVG Version: 6.00 Build 0)  -->
<!DOCTYPE svg PUBLIC "-//W3C//DTD SVG 1.1//EN" "http://www.w3.org/Graphics/SVG/1.1/DTD/svg11.dtd">
<svg version="1.1" id="Layer_1" xmlns="http://www.w3.org/2000/svg" xmlns:xlink="http://www.w3.org/1999/xlink" x="0px" y="0px"
	 width="11.333px" height="14.732px" viewBox="0 0 11.333 14.732" enable-background="new 0 0 11.333 14.732" xml:space="preserve">
<path id="Icon_ionic-ios-unlock" fill="#6CCAD3" d="M9.917,5.101H3.258v-1.7c0-1.33,1.079-2.408,2.409-2.408
	c1.33,0,2.408,1.078,2.408,2.408l0,0C8.11,3.675,8.36,3.868,8.633,3.834C8.86,3.805,9.038,3.627,9.067,3.401l0,0
	C9.054,1.524,7.522,0.01,5.644,0.024C3.766,0.037,2.254,1.57,2.267,3.447l0,0v1.654h-0.85C0.636,5.103,0.003,5.736,0,6.517v6.8
	c0.002,0.782,0.635,1.415,1.417,1.417h8.5c0.783-0.002,1.416-0.635,1.418-1.417v-6.8C11.331,5.736,10.698,5.103,9.917,5.101z
	 M6.162,9.521v2.438c0.001,0.271-0.204,0.49-0.471,0.51C5.415,12.48,5.182,12.265,5.17,11.99c0-0.007,0-0.015,0-0.021V9.52
	C4.607,9.246,4.374,8.568,4.647,8.005C4.92,7.442,5.6,7.209,6.162,7.483c0.563,0.271,0.795,0.952,0.522,1.515
	C6.575,9.225,6.389,9.409,6.162,9.521L6.162,9.521z"/>
</svg>
