<svg xmlns="http://www.w3.org/2000/svg" width="14.416" height="12.01" viewBox="0 0 14.416 12.01">
  <path id="Icon_ionic-ios-share-alt" data-name="Icon ionic-ios-share-alt" d="M18.79,11.794l-5.3-4.954a.271.271,0,0,0-.21-.09c-.165.008-.375.124-.375.3V9.535a.16.16,0,0,1-.135.154C7.507,10.5,5.289,14.437,4.5,18.528c-.03.161.188.312.289.184a9.572,9.572,0,0,1,7.957-4.031.186.186,0,0,1,.158.18V17.3a.322.322,0,0,0,.544.2l5.334-5.041a.414.414,0,0,0,.131-.315A.5.5,0,0,0,18.79,11.794Z" transform="translate(-4.502 -6.749)" fill="#fff"/>
</svg>
