<svg xmlns="http://www.w3.org/2000/svg" width="23.794" height="23.8" viewBox="0 0 23.794 23.8">
  <path id="Video_resolution" data-name="Video resolution" d="M26.33,16.4a3.062,3.062,0,0,1,1.964-2.857A12.136,12.136,0,0,0,26.825,10a3.1,3.1,0,0,1-1.245.266,3.055,3.055,0,0,1-2.795-4.3A12.1,12.1,0,0,0,19.253,4.5a3.059,3.059,0,0,1-5.713,0A12.136,12.136,0,0,0,10,5.969a3.055,3.055,0,0,1-2.795,4.3A3,3,0,0,1,5.962,10,12.4,12.4,0,0,0,4.5,13.547a3.061,3.061,0,0,1,.006,5.713A12.136,12.136,0,0,0,5.975,22.8a3.056,3.056,0,0,1,4.034,4.034A12.207,12.207,0,0,0,13.547,28.3a3.054,3.054,0,0,1,5.7,0,12.136,12.136,0,0,0,3.538-1.469A3.059,3.059,0,0,1,26.819,22.8a12.207,12.207,0,0,0,1.469-3.538A3.076,3.076,0,0,1,26.33,16.4Zm-9.877,4.951a4.957,4.957,0,1,1,4.957-4.957A4.956,4.956,0,0,1,16.453,21.348Z" transform="translate(-4.5 -4.5)" fill="#fff"/>
</svg>
