<svg xmlns="http://www.w3.org/2000/svg" width="24" height="25" viewBox="0 0 24 25">
  <g id="noun_Add_Document_1942152" data-name="noun_Add Document_1942152" transform="translate(-12 -6.5)">
    <g id="Group_68" data-name="Group 68" transform="translate(12 6.5)">
      <path id="Path_121" data-name="Path 121" d="M60.667,62.5a4.667,4.667,0,1,0,4.667,4.667A4.667,4.667,0,0,0,60.667,62.5ZM62,67.833h-.667V68.5A.667.667,0,1,1,60,68.5v-.667h-.667a.667.667,0,1,1,0-1.333H60v-.667a.667.667,0,0,1,1.333,0V66.5H62a.667.667,0,0,1,0,1.333Z" transform="translate(-41.333 -46.833)" fill="#fff"/>
      <path id="Path_122" data-name="Path 122" d="M60,7.672v3.609h3.609Z" transform="translate(-44 -7.281)" fill="#fff"/>
      <path id="Path_123" data-name="Path 123" d="M31.333,21.667a6.691,6.691,0,0,1,.667.059V11.167H27.333A.718.718,0,0,1,26.862,11a.549.549,0,0,1-.2-.413V6.5h-14a.718.718,0,0,0-.472.171.549.549,0,0,0-.2.413V26.917a.549.549,0,0,0,.2.413.718.718,0,0,0,.472.171H25.4a4.519,4.519,0,0,1-.067-.583c0-2.9,2.688-5.247,6-5.25Zm-14.667-10.5h6.667a.589.589,0,1,1,0,1.167H16.667a.589.589,0,1,1,0-1.167Zm0,3.5H27.333a.589.589,0,1,1,0,1.167H16.667a.589.589,0,1,1,0-1.167Zm0,3.5H27.333a.589.589,0,1,1,0,1.167H16.667a.589.589,0,1,1,0-1.167Zm6.667,4.667H16.667a.589.589,0,1,1,0-1.167h6.667a.589.589,0,1,1,0,1.167Z" transform="translate(-12 -6.5)" fill="#fff"/>
    </g>
  </g>
</svg>
