<?xml version="1.0" encoding="utf-8"?>
<!-- Generator: Adobe Illustrator 16.0.0, SVG Export Plug-In . SVG Version: 6.00 Build 0)  -->
<!DOCTYPE svg PUBLIC "-//W3C//DTD SVG 1.1//EN" "http://www.w3.org/Graphics/SVG/1.1/DTD/svg11.dtd">
<svg version="1.1" id="Layer_1" xmlns="http://www.w3.org/2000/svg" xmlns:xlink="http://www.w3.org/1999/xlink" x="0px" y="0px"
	 width="32px" height="26px" viewBox="0 0 32 26" enable-background="new 0 0 32 26" xml:space="preserve">
<g>
	<g opacity="0">
	</g>
</g>
<path fill="#FFFFFF" d="M19.2,17.6l-4.8-4.8L8,19.2L6.4,17.6l-3.2,3.2V22.4h16V17.6z M3.2,12.8c0,0.884,0.715,1.601,1.599,1.601
	s1.6-0.715,1.601-1.599c0,0,0-0.001,0-0.001c0-0.883-0.717-1.6-1.6-1.6C3.917,11.201,3.2,11.917,3.2,12.8z M22.4,9.6V24
	c0,0.884-0.717,1.6-1.601,1.6l0,0H1.6C0.716,25.6,0,24.884,0,24l0,0V9.6C0,8.716,0.716,8,1.6,8l0,0h19.2
	C21.684,8,22.4,8.716,22.4,9.6L22.4,9.6z M29.2,3.65c0-0.249-0.202-0.45-0.45-0.45l0,0h-1.5c-0.248,0-0.45,0.201-0.45,0.45l0,0v1.5
	c0,0.249,0.201,0.45,0.45,0.45h1.5c0.248,0,0.45-0.202,0.45-0.45l0,0V3.65z M29.2,8.85c0-0.249-0.202-0.45-0.45-0.45l0,0h-1.5
	c-0.248,0-0.45,0.202-0.45,0.45l0,0v1.5c0,0.249,0.201,0.45,0.45,0.45h1.5c0.248,0,0.45-0.201,0.45-0.45l0,0V8.85z M29.2,14.05
	c0-0.249-0.202-0.45-0.45-0.45l0,0h-1.5c-0.248,0-0.45,0.201-0.45,0.45l0,0v1.5c0,0.249,0.201,0.45,0.45,0.45h1.5
	c0.248,0,0.45-0.201,0.45-0.45l0,0V14.05z M11.6,3.65c0-0.249-0.202-0.45-0.45-0.45h-1.5C9.401,3.2,9.2,3.401,9.2,3.65v1.5
	c0,0.249,0.201,0.45,0.45,0.45h1.5c0.249,0,0.45-0.202,0.45-0.45V3.65z M30.4,0C31.283,0,32,0.716,32,1.6l0,0v16
	c0,0.884-0.717,1.601-1.6,1.601l0,0H24v-16h-9.6v3.2h-8V1.6C6.4,0.716,7.116,0,8,0l0,0H30.4z"/>
</svg>
