<?xml version="1.0" encoding="utf-8"?>
<!-- Generator: Adobe Illustrator 16.0.0, SVG Export Plug-In . SVG Version: 6.00 Build 0)  -->
<!DOCTYPE svg PUBLIC "-//W3C//DTD SVG 1.1//EN" "http://www.w3.org/Graphics/SVG/1.1/DTD/svg11.dtd">
<svg version="1.1" id="Layer_1" xmlns="http://www.w3.org/2000/svg" xmlns:xlink="http://www.w3.org/1999/xlink" x="0px" y="0px"
	 width="15px" height="18px" viewBox="0 0 15 18" enable-background="new 0 0 15 18" xml:space="preserve">
<g>
	<g opacity="0">
	</g>
	<g opacity="0">
	</g>
	<g opacity="0">
	</g>
	<g opacity="0">
	</g>
</g>
<path fill="#65696C" d="M14.24,3.797c-0.182-0.692-0.809-1.174-1.524-1.173h-2.11V2.11c0.006-0.894-0.715-1.623-1.609-1.628
	c-0.007,0-0.014,0-0.021,0H5.316C4.422,0.475,3.691,1.194,3.684,2.088c0,0.007,0,0.015,0,0.022v0.515h-2.11
	c-0.87-0.001-1.575,0.703-1.576,1.572c0,0.715,0.481,1.341,1.173,1.524H1.17v10.152c0,0.6,0.22,1.163,0.604,1.568
	c0.383,0.404,0.916,0.635,1.473,0.636h7.796c0.557-0.001,1.09-0.231,1.473-0.636c0.385-0.405,0.604-0.969,0.604-1.568V5.72
	C13.961,5.499,14.463,4.637,14.24,3.797z M4.509,2.11C4.503,1.672,4.854,1.313,5.292,1.307c0.008,0,0.016,0,0.024,0h3.661
	C9.414,1.3,9.775,1.649,9.783,2.088c0,0.007,0,0.015,0,0.022v0.515H4.509V2.11z M12.296,15.873c0,0.775-0.548,1.38-1.252,1.38H3.248
	c-0.705,0-1.253-0.604-1.253-1.38V5.757h10.301V15.873z M12.771,4.933c-0.018,0-0.036,0-0.055,0H1.575
	c-0.41,0-0.742-0.332-0.742-0.742c0-0.41,0.332-0.742,0.742-0.742c0,0,0,0,0,0V3.45h11.142c0.41-0.015,0.754,0.305,0.77,0.714
	C13.501,4.574,13.182,4.918,12.771,4.933z"/>
<path fill="#65696C" d="M9.577,6.857c-0.228,0-0.412,0.185-0.412,0.412v7.788c0,0.229,0.185,0.412,0.412,0.412
	s0.411-0.184,0.411-0.412V7.27C9.988,7.042,9.805,6.858,9.577,6.857L9.577,6.857z"/>
<path fill="#65696C" d="M7.146,6.857c-0.228,0-0.412,0.185-0.412,0.412l0,0v7.788c0,0.229,0.185,0.412,0.412,0.412
	s0.412-0.185,0.412-0.412V7.27C7.558,7.042,7.374,6.858,7.146,6.857L7.146,6.857L7.146,6.857z"/>
<path fill="#65696C" d="M4.715,6.857c-0.228,0-0.412,0.185-0.412,0.412l0,0v7.788c0,0.229,0.185,0.412,0.412,0.412
	c0.227,0,0.412-0.185,0.412-0.412V7.27C5.127,7.042,4.942,6.858,4.715,6.857L4.715,6.857L4.715,6.857z"/>
</svg>
