<svg xmlns="http://www.w3.org/2000/svg" width="49" height="64.474" viewBox="0 0 49 64.474">
  <g id="Icon_ionic-ios-document" data-name="Icon ionic-ios-document" transform="translate(-7.313 -3.938)">
    <path id="Path_134" data-name="Path 134" d="M23.664,19.886H38.332a.8.8,0,0,0,.806-.806h0a4.77,4.77,0,0,0-1.725-3.691L25.115,5.137a5.177,5.177,0,0,0-3.32-1.193h0A1.19,1.19,0,0,0,20.6,5.137V16.823A3.061,3.061,0,0,0,23.664,19.886Z" transform="translate(17.175 0.009)" fill="#fff"/>
    <path id="Path_135" data-name="Path 135" d="M33.586,16.832V3.938H12.47A5.173,5.173,0,0,0,7.313,9.1V63.253a5.173,5.173,0,0,0,5.158,5.158H51.155a5.173,5.173,0,0,0,5.158-5.158V24.086H40.839A7.264,7.264,0,0,1,33.586,16.832Z" transform="translate(0)" fill="#fff"/>
  </g>
</svg>
