<svg xmlns="http://www.w3.org/2000/svg" width="15.125" height="15.125" viewBox="0 0 15.125 15.125">
  <g id="Icon_ionic-ios-expand" data-name="Icon ionic-ios-expand" transform="translate(-4.5 -4.5)">
    <path id="Path_163" data-name="Path 163" d="M6.406,5.6h3.06a.546.546,0,0,0,.547-.547V5.047A.546.546,0,0,0,9.467,4.5H5.047a.546.546,0,0,0-.547.547V9.467a.546.546,0,0,0,.547.547h.008A.546.546,0,0,0,5.6,9.467V6.406l4.612,4.581a.542.542,0,0,0,.386.158.53.53,0,0,0,.386-.161.547.547,0,0,0,0-.772Z" transform="translate(0 0)"/>
    <path id="Path_164" data-name="Path 164" d="M25.734,4.5H21.315a.546.546,0,0,0-.547.547v.008a.546.546,0,0,0,.547.547h3.06l-4.581,4.612a.547.547,0,0,0,.772.776l4.612-4.585v3.06a.546.546,0,0,0,.547.547h.008a.546.546,0,0,0,.547-.547V5.047A.546.546,0,0,0,25.734,4.5Z" transform="translate(-6.657)"/>
    <path id="Path_165" data-name="Path 165" d="M10.6,19.631a.542.542,0,0,0-.386.158L5.6,24.374v-3.06a.546.546,0,0,0-.547-.547H5.047a.546.546,0,0,0-.547.547v4.419a.546.546,0,0,0,.547.547H9.467a.546.546,0,0,0,.547-.547v-.008a.546.546,0,0,0-.547-.547H6.406l4.581-4.612a.547.547,0,0,0-.386-.933Z" transform="translate(0 -6.655)"/>
    <path id="Path_166" data-name="Path 166" d="M25.734,20.769h-.008a.546.546,0,0,0-.547.547v3.06L20.566,19.8a.542.542,0,0,0-.386-.158.53.53,0,0,0-.386.161.547.547,0,0,0,0,.772l4.581,4.608h-3.06a.546.546,0,0,0-.547.547v.008a.546.546,0,0,0,.547.547h4.419a.546.546,0,0,0,.547-.547V21.316A.546.546,0,0,0,25.734,20.769Z" transform="translate(-6.657 -6.658)"/>
  </g>
</svg>
