<svg xmlns="http://www.w3.org/2000/svg" width="77.15" height="44.086" viewBox="0 0 77.15 44.086">
  <g id="Icon_ionic-ios-videocam" data-name="Icon ionic-ios-videocam" transform="translate(-2.25 -9)">
    <path id="Path_117" data-name="Path 117" d="M41.852,10.8a2.942,2.942,0,0,0-1.6.465l-14.9,9.4a1.473,1.473,0,0,0-.689,1.24V35a1.473,1.473,0,0,0,.689,1.24l14.9,9.4a3.1,3.1,0,0,0,1.6.465h3.582a1.466,1.466,0,0,0,1.481-1.464V12.264A1.477,1.477,0,0,0,45.434,10.8Z" transform="translate(32.485 2.609)" fill="#fff"/>
    <path id="Path_118" data-name="Path 118" d="M43.839,53.086H11.119A8.9,8.9,0,0,1,2.25,44.234V17.852A8.882,8.882,0,0,1,11.1,9h32.72a8.882,8.882,0,0,1,8.852,8.852V44.217A8.86,8.86,0,0,1,43.839,53.086Z" fill="#fff"/>
  </g>
</svg>
