<svg xmlns="http://www.w3.org/2000/svg" width="24" height="24" viewBox="0 0 24 24"><g><g><path fill="#fff" d="M3.488 8.262a.69.69 0 1 1-.001 1.378.69.69 0 0 1 .001-1.378zm5.508 2.754a.69.69 0 1 1-.002 1.378.69.69 0 0 1 .002-1.378zm5.508-5.508a.69.69 0 1 1-.002 1.379.69.69 0 0 1 .002-1.38zm5.508-4.131a.69.69 0 1 1-.002 1.379.69.69 0 0 1 .002-1.379zM3.488 11.016c.556 0 1.061-.221 1.433-.58l2.026 1.013a2.068 2.068 0 0 0 2.05 2.32 2.068 2.068 0 0 0 1.863-2.955l2.754-2.754a2.068 2.068 0 0 0 2.861-2.481l2.393-1.795c.327.219.72.347 1.144.347a2.068 2.068 0 0 0 2.065-2.066A2.068 2.068 0 0 0 20.012 0a2.068 2.068 0 0 0-1.971 2.683l-2.393 1.795a2.053 2.053 0 0 0-1.144-.347 2.068 2.068 0 0 0-1.864 2.955L9.886 9.841a2.058 2.058 0 0 0-2.322.378L5.537 9.204a2.068 2.068 0 0 0-2.05-2.32A2.068 2.068 0 0 0 1.424 8.95c0 1.139.926 2.066 2.065 2.066z"/></g><g><path fill="#fff" d="M2.8 15.146h1.377v6.977H2.8zM8.308 17.9h1.377v4.223H8.308zm5.507-5.507h1.377v9.73h-1.377zm5.508-4.131H20.7v13.861h-1.377zm2.754 13.861V7.573a.688.688 0 0 0-.688-.688h-2.754a.688.688 0 0 0-.689.688v14.55H16.57V11.704a.688.688 0 0 0-.688-.688h-2.754a.688.688 0 0 0-.689.688v10.419h-1.376v-4.911a.688.688 0 0 0-.689-.689H7.619a.688.688 0 0 0-.688.689v4.911H5.554v-7.665a.688.688 0 0 0-.689-.688H2.111a.688.688 0 0 0-.688.688v7.665H.688a.688.688 0 1 0 0 1.377h22.123a.688.688 0 1 0 0-1.377z"/></g></g></svg>