<?xml version="1.0" encoding="utf-8"?>
<!-- Generator: Adobe Illustrator 16.0.0, SVG Export Plug-In . SVG Version: 6.00 Build 0)  -->
<!DOCTYPE svg PUBLIC "-//W3C//DTD SVG 1.1//EN" "http://www.w3.org/Graphics/SVG/1.1/DTD/svg11.dtd">
<svg version="1.1" id="Layer_1" xmlns="http://www.w3.org/2000/svg" xmlns:xlink="http://www.w3.org/1999/xlink" x="0px" y="0px"
	 width="111.949px" height="46px" viewBox="0 0 111.949 46" enable-background="new 0 0 111.949 46" xml:space="preserve">
<g id="Group_184" transform="translate(-1458.5 -1507)">
	<path id="Icon_awesome-image" fill="#020000" d="M1565.438,1550.043h-43.427c-2.768,0-5.012-2.243-5.012-5.011v-30.064
		c0-2.767,2.244-5.011,5.012-5.011h43.427c2.769,0,5.013,2.244,5.013,5.011l0,0v30.064
		C1570.449,1547.8,1568.205,1550.043,1565.438,1550.043z M1528.691,1515.803c-3.229,0-5.846,2.617-5.846,5.846
		s2.616,5.846,5.846,5.846c3.229,0,5.848-2.617,5.848-5.846l0,0C1534.539,1518.42,1531.921,1515.803,1528.691,1515.803z
		 M1523.682,1543.357h40.086v-11.688l-9.138-9.136c-0.487-0.489-1.282-0.489-1.771,0l-14.146,14.146l-5.799-5.802
		c-0.49-0.489-1.283-0.489-1.771,0l-7.461,7.472V1543.357L1523.682,1543.357z"/>
	<g>
		<g>
			<g>
				<defs>
					<rect id="SVGID_1_" x="4375.5" y="4521" width="45" height="46"/>
				</defs>
				<clipPath id="SVGID_2_">
					<use xlink:href="#SVGID_1_"  overflow="visible"/>
				</clipPath>
				<g id="Repeat_Grid_2" transform="translate(1458.5 1507)" clip-path="url(#SVGID_2_)">
					<g transform="translate(-1338.5 -1622)">
						<line id="Line_128" fill="none" stroke="#000000" x1="1338.5" y1="1622.5" x2="1395.5" y2="1622.5"/>
					</g>
					<g transform="translate(-1338.5 -1618)">
						<line id="Line_128-2" fill="none" stroke="#000000" x1="1338.5" y1="1622.5" x2="1395.5" y2="1622.5"/>
					</g>
					<g transform="translate(-1338.5 -1614)">
						<line id="Line_128-3" fill="none" stroke="#000000" x1="1338.5" y1="1622.5" x2="1395.5" y2="1622.5"/>
					</g>
					<g transform="translate(-1338.5 -1610)">
						<line id="Line_128-4" fill="none" stroke="#000000" x1="1338.5" y1="1622.5" x2="1395.5" y2="1622.5"/>
					</g>
					<g transform="translate(-1338.5 -1606)">
						<line id="Line_128-5" fill="none" stroke="#000000" x1="1338.5" y1="1622.5" x2="1395.5" y2="1622.5"/>
					</g>
					<g transform="translate(-1338.5 -1602)">
						<line id="Line_128-6" fill="none" stroke="#000000" x1="1338.5" y1="1622.5" x2="1395.5" y2="1622.5"/>
					</g>
					<g transform="translate(-1338.5 -1598)">
						<line id="Line_128-7" fill="none" stroke="#000000" x1="1338.5" y1="1622.5" x2="1395.5" y2="1622.5"/>
					</g>
					<g transform="translate(-1338.5 -1594)">
						<line id="Line_128-8" fill="none" stroke="#000000" x1="1338.5" y1="1622.5" x2="1395.5" y2="1622.5"/>
					</g>
					<g transform="translate(-1338.5 -1590)">
						<line id="Line_128-9" fill="none" stroke="#000000" x1="1338.5" y1="1622.5" x2="1395.5" y2="1622.5"/>
					</g>
					<g transform="translate(-1338.5 -1586)">
						<line id="Line_128-10" fill="none" stroke="#000000" x1="1338.5" y1="1622.5" x2="1395.5" y2="1622.5"/>
					</g>
					<g transform="translate(-1338.5 -1582)">
						<line id="Line_128-11" fill="none" stroke="#000000" x1="1338.5" y1="1622.5" x2="1395.5" y2="1622.5"/>
					</g>
					<g transform="translate(-1338.5 -1578)">
						<line id="Line_128-12" fill="none" stroke="#000000" x1="1338.5" y1="1622.5" x2="1395.5" y2="1622.5"/>
					</g>
				</g>
			</g>
		</g>
	</g>
</g>
<g>
	<g>
		<defs>
			<rect id="SVGID_3_" x="1344.5" y="1507" width="45" height="46"/>
		</defs>
		<clipPath id="SVGID_4_">
			<use xlink:href="#SVGID_3_"  overflow="visible"/>
		</clipPath>
		<g id="Repeat_Grid_1" transform="translate(1344.5 1507)" clip-path="url(#SVGID_4_)">
			<g transform="translate(-1338.5 -1622)">
				<line id="Line_128_1_" fill="none" stroke="#171616" x1="-6" y1="115.5" x2="51" y2="115.5"/>
			</g>
			<g transform="translate(-1338.5 -1618)">
				<line id="Line_128-2_1_" fill="none" stroke="#171616" x1="-6" y1="115.5" x2="51" y2="115.5"/>
			</g>
			<g transform="translate(-1338.5 -1614)">
				<line id="Line_128-3_1_" fill="none" stroke="#171616" x1="-6" y1="115.5" x2="51" y2="115.5"/>
			</g>
			<g transform="translate(-1338.5 -1610)">
				<line id="Line_128-4_1_" fill="none" stroke="#171616" x1="-6" y1="115.5" x2="51" y2="115.5"/>
			</g>
			<g transform="translate(-1338.5 -1606)">
				<line id="Line_128-5_1_" fill="none" stroke="#171616" x1="-6" y1="115.5" x2="51" y2="115.5"/>
			</g>
			<g transform="translate(-1338.5 -1602)">
				<line id="Line_128-6_1_" fill="none" stroke="#171616" x1="-6" y1="115.5" x2="51" y2="115.5"/>
			</g>
			<g transform="translate(-1338.5 -1598)">
				<line id="Line_128-7_1_" fill="none" stroke="#171616" x1="-6" y1="115.5" x2="51" y2="115.5"/>
			</g>
			<g transform="translate(-1338.5 -1594)">
				<line id="Line_128-8_1_" fill="none" stroke="#171616" x1="-6" y1="115.5" x2="51" y2="115.5"/>
			</g>
			<g transform="translate(-1338.5 -1590)">
				<line id="Line_128-9_1_" fill="none" stroke="#171616" x1="-6" y1="115.5" x2="51" y2="115.5"/>
			</g>
			<g transform="translate(-1338.5 -1586)">
				<line id="Line_128-10_1_" fill="none" stroke="#171616" x1="-6" y1="115.5" x2="51" y2="115.5"/>
			</g>
			<g transform="translate(-1338.5 -1582)">
				<line id="Line_128-11_1_" fill="none" stroke="#171616" x1="-6" y1="115.5" x2="51" y2="115.5"/>
			</g>
			<g transform="translate(-1338.5 -1578)">
				<line id="Line_128-12_1_" fill="none" stroke="#171616" x1="-6" y1="115.5" x2="51" y2="115.5"/>
			</g>
		</g>
	</g>
</g>
<g>
	<g id="Group_184_1_" transform="translate(-1458.5 -1507)">
		<g>
			<g id="Repeat_Grid_2_1_" transform="translate(1458.5 1507)">
				<g transform="translate(-1338.5 -1622)">
					<line id="Line_128_2_" fill="none" stroke="#000000" x1="1326.492" y1="1622.5" x2="1383.492" y2="1622.5"/>
				</g>
				<g transform="translate(-1338.5 -1618)">
					<line id="Line_128-2_2_" fill="none" stroke="#000000" x1="1326.492" y1="1622.5" x2="1383.492" y2="1622.5"/>
				</g>
				<g transform="translate(-1338.5 -1614)">
					<line id="Line_128-3_2_" fill="none" stroke="#000000" x1="1326.492" y1="1622.5" x2="1383.492" y2="1622.5"/>
				</g>
				<g transform="translate(-1338.5 -1610)">
					<line id="Line_128-4_2_" fill="none" stroke="#000000" x1="1326.492" y1="1622.5" x2="1383.492" y2="1622.5"/>
				</g>
				<g transform="translate(-1338.5 -1606)">
					<line id="Line_128-5_2_" fill="none" stroke="#000000" x1="1326.492" y1="1622.5" x2="1383.492" y2="1622.5"/>
				</g>
				<g transform="translate(-1338.5 -1602)">
					<line id="Line_128-6_2_" fill="none" stroke="#000000" x1="1326.492" y1="1622.5" x2="1383.492" y2="1622.5"/>
				</g>
				<g transform="translate(-1338.5 -1598)">
					<line id="Line_128-7_2_" fill="none" stroke="#000000" x1="1326.492" y1="1622.5" x2="1383.492" y2="1622.5"/>
				</g>
				<g transform="translate(-1338.5 -1594)">
					<line id="Line_128-8_2_" fill="none" stroke="#000000" x1="1326.492" y1="1622.5" x2="1383.492" y2="1622.5"/>
				</g>
				<g transform="translate(-1338.5 -1590)">
					<line id="Line_128-9_2_" fill="none" stroke="#000000" x1="1326.492" y1="1622.5" x2="1383.492" y2="1622.5"/>
				</g>
				<g transform="translate(-1338.5 -1586)">
					<line id="Line_128-10_2_" fill="none" stroke="#000000" x1="1326.492" y1="1622.5" x2="1383.492" y2="1622.5"/>
				</g>
				<g transform="translate(-1338.5 -1582)">
					<line id="Line_128-11_2_" fill="none" stroke="#000000" x1="1326.492" y1="1622.5" x2="1383.492" y2="1622.5"/>
				</g>
				<g transform="translate(-1338.5 -1578)">
					<line id="Line_128-12_2_" fill="none" stroke="#000000" x1="1326.492" y1="1622.5" x2="1383.492" y2="1622.5"/>
				</g>
			</g>
		</g>
	</g>
</g>
</svg>
