<?xml version="1.0" encoding="utf-8"?>
<!-- Generator: Adobe Illustrator 16.0.0, SVG Export Plug-In . SVG Version: 6.00 Build 0)  -->
<!DOCTYPE svg PUBLIC "-//W3C//DTD SVG 1.1//EN" "http://www.w3.org/Graphics/SVG/1.1/DTD/svg11.dtd">
<svg version="1.1" id="Layer_1" xmlns="http://www.w3.org/2000/svg" xmlns:xlink="http://www.w3.org/1999/xlink" x="0px" y="0px"
	 width="50px" height="50px" viewBox="0 0 50 50" enable-background="new 0 0 50 50" xml:space="preserve">
<g>
	<path fill-rule="evenodd" clip-rule="evenodd" fill="#FFFFFF" d="M39.497,21.931c-0.981,1.004-1.881,1.941-2.8,2.858
		c-2.264,2.261-4.533,4.516-6.806,6.769c-1.531,1.516-3.75,1.936-5.678,1.025c-0.535-0.253-1.045-0.614-1.474-1.021
		c-1.432-1.363-2.827-2.764-4.226-4.16c-2.023-2.021-2.031-5.162-0.009-7.194c2.702-2.716,5.416-5.419,8.124-8.127
		c0.479-0.479,0.959-0.956,1.5-1.495c-0.151-0.126-0.295-0.23-0.42-0.354c-1.679-1.674-3.36-3.348-5.031-5.03
		C22.3,4.823,21.931,4.43,21.602,4.008c-0.603-0.772-0.424-1.278,0.534-1.439c0.627-0.105,1.272-0.138,1.909-0.14
		c6.183-0.01,12.366-0.012,18.549,0c0.939,0.001,1.886,0.026,2.815,0.138c1.388,0.167,1.944,0.734,2.044,2.146
		c0.102,1.462,0.116,2.932,0.119,4.398c0.012,5.666,0.008,11.332,0,16.998c-0.001,0.581-0.061,1.163-0.104,1.744
		c-0.011,0.147-0.056,0.296-0.104,0.437c-0.185,0.533-0.502,0.684-0.972,0.383c-0.433-0.276-0.84-0.608-1.204-0.969
		c-1.788-1.765-3.56-3.547-5.335-5.327C39.742,22.265,39.654,22.129,39.497,21.931z"/>
	<path fill-rule="evenodd" clip-rule="evenodd" fill="#FFFFFF" d="M22.065,11.21c-0.125,0.095-0.264,0.176-0.374,0.286
		c-1.514,1.508-3.027,3.016-4.53,4.535c-0.209,0.211-0.418,0.294-0.715,0.292c-1.816-0.012-3.633-0.007-5.449,0
		c-1.72,0.005-3.061,1.101-3.313,2.75c-0.078,0.506-0.042,1.032-0.042,1.55c-0.002,6.127-0.003,12.254,0,18.381
		c0.001,1.953,1.417,3.364,3.371,3.365c6.429,0,12.856-0.001,19.285-0.004c1.973-0.001,3.384-1.411,3.385-3.379
		c0.001-1.827-0.001-3.652,0.009-5.479c0-0.133,0.049-0.305,0.139-0.395c1.617-1.632,3.242-3.255,4.866-4.879
		c0.044-0.042,0.095-0.079,0.195-0.161c0,0.187,0,0.313,0,0.44c-0.002,3.558,0.006,7.115-0.008,10.674
		c-0.014,4.071-3.002,7.602-7.015,8.254c-0.802,0.131-1.631,0.129-2.447,0.132c-6.184,0.01-12.368,0.011-18.551,0.002
		c-3.486-0.005-6.598-2.147-7.869-5.393c-0.414-1.057-0.579-2.153-0.578-3.287c0.006-5.289,0.002-10.578,0.003-15.868
		c0.001-1.308-0.035-2.618,0.025-3.924c0.175-3.761,2.872-6.966,6.553-7.765c0.819-0.178,1.68-0.22,2.521-0.226
		c3.397-0.024,6.795-0.008,10.193-0.007c0.09,0,0.18,0.008,0.27,0.011C22.015,11.146,22.04,11.178,22.065,11.21z"/>
</g>
</svg>
