<svg xmlns="http://www.w3.org/2000/svg" width="35" height="35" viewBox="0 0 35 35"><g><g><path fill="#fff" d="M25.302 16.512h-6.148v-6.148c0-.727-.595-1.32-1.321-1.32s-1.32.593-1.32 1.32v6.148h-6.15c-.726 0-1.32.496-1.32 1.321s.62 1.32 1.32 1.32h6.15v6.15c0 .783.577 1.32 1.32 1.32.743 0 1.32-.594 1.32-1.32v-6.15h6.15c.726 0 1.32-.594 1.32-1.32 0-.726-.594-1.32-1.32-1.32z"/></g><g><path fill="#fff" d="M35 17.833C35 27.316 27.316 35 17.833 35S.666 27.316.666 17.833 8.35.666 17.833.666 35 8.35 35 17.833zM17.833 2.977c-3.97 0-7.7 1.543-10.507 4.35a14.758 14.758 0 0 0-4.35 10.506c0 3.97 1.544 7.7 4.35 10.507a14.758 14.758 0 0 0 10.507 4.35c3.97 0 7.7-1.544 10.507-4.35a14.758 14.758 0 0 0 4.349-10.507c0-3.97-1.543-7.7-4.35-10.507a14.758 14.758 0 0 0-10.506-4.349"/></g></g></svg>