<?xml version="1.0" encoding="utf-8"?>
<!-- Generator: Adobe Illustrator 16.0.0, SVG Export Plug-In . SVG Version: 6.00 Build 0)  -->
<!DOCTYPE svg PUBLIC "-//W3C//DTD SVG 1.1//EN" "http://www.w3.org/Graphics/SVG/1.1/DTD/svg11.dtd">
<svg version="1.1" id="Layer_1" xmlns="http://www.w3.org/2000/svg" xmlns:xlink="http://www.w3.org/1999/xlink" x="0px" y="0px"
	 width="26px" height="27px" viewBox="0 0 26 27" enable-background="new 0 0 26 27" xml:space="preserve">
<g>
	<g opacity="0">
	</g>
	<g opacity="0">
	</g>
	<g opacity="0">
	</g>
</g>
<path fill="none" stroke="#FFFFFF" stroke-width="3" stroke-linecap="round" stroke-linejoin="round" stroke-miterlimit="20" d="
	M7.23,2.332h11.468c3.166,0,5.732,2.567,5.733,5.733v11.467c0,3.166-2.567,5.733-5.733,5.733H7.23c-3.167,0-5.734-2.566-5.734-5.733
	l0,0V8.065C1.497,4.898,4.063,2.332,7.23,2.332z"/>
<path fill="none" stroke="#FFFFFF" stroke-width="3" stroke-linecap="round" stroke-linejoin="round" stroke-miterlimit="20" d="
	M17.551,13.076c0.403,2.501-1.298,4.855-3.799,5.258c-2.501,0.403-4.855-1.298-5.258-3.799c-0.006-0.037-0.012-0.075-0.017-0.113
	c-0.34-2.51,1.418-4.821,3.929-5.162C14.872,8.926,17.155,10.619,17.551,13.076z"/>
<path fill="none" stroke="#FFFFFF" stroke-width="3" stroke-linecap="round" stroke-linejoin="round" stroke-miterlimit="20" d="
	M19.271,7.492L19.271,7.492"/>
</svg>
