<?xml version="1.0" encoding="utf-8"?>
<!-- Generator: Adobe Illustrator 16.0.0, SVG Export Plug-In . SVG Version: 6.00 Build 0)  -->
<!DOCTYPE svg PUBLIC "-//W3C//DTD SVG 1.1//EN" "http://www.w3.org/Graphics/SVG/1.1/DTD/svg11.dtd">
<svg version="1.1" id="Layer_1" xmlns="http://www.w3.org/2000/svg" xmlns:xlink="http://www.w3.org/1999/xlink" x="0px" y="0px"
	 width="19px" height="18px" viewBox="0 0 19 18" enable-background="new 0 0 19 18" xml:space="preserve">
<g>
	<g opacity="0">
	</g>
</g>
<path fill="#FFFFFF" d="M18.087,16.093l-7.681-15.31v0.001c-0.295-0.523-0.682-0.785-1.07-0.785c-0.388,0-0.776,0.262-1.07,0.785
	L0.585,16.092c-0.588,1.047-0.088,1.902,1.112,1.902h15.278C18.175,17.994,18.676,17.139,18.087,16.093z M1.795,16.66L9.336,1.629
	l7.541,15.031H1.795z"/>
<path fill="#FFFFFF" d="M9.336,12.372c-0.621,0-1.125-0.504-1.125-1.125V7.873c0-0.621,0.504-1.125,1.125-1.125
	c0.622,0,1.125,0.504,1.125,1.125v3.374C10.461,11.868,9.957,12.372,9.336,12.372z M10.461,14.622c0,0.621-0.503,1.125-1.125,1.125
	c-0.621,0-1.125-0.504-1.125-1.125c0-0.622,0.504-1.125,1.125-1.125C9.958,13.497,10.461,14,10.461,14.622z"/>
</svg>
