<svg xmlns="http://www.w3.org/2000/svg" width="14.478" height="14.478" viewBox="0 0 14.478 14.478">
  <g id="Icon_feather-image" data-name="Icon feather-image" transform="translate(-4 -4)">
    <path id="Path_147" data-name="Path 147" d="M5.975,4.5H16.3a1.475,1.475,0,0,1,1.475,1.475V16.3A1.475,1.475,0,0,1,16.3,17.771H5.975A1.475,1.475,0,0,1,4.5,16.3V5.975A1.475,1.475,0,0,1,5.975,4.5Z" fill="none" stroke="#fff" stroke-linecap="round" stroke-linejoin="round" stroke-width="1"/>
    <path id="Path_148" data-name="Path 148" d="M12.712,11.606A1.106,1.106,0,1,1,11.606,10.5,1.106,1.106,0,0,1,12.712,11.606Z" transform="translate(-3.051 -3.051)" fill="none" stroke="#fff" stroke-linecap="round" stroke-linejoin="round" stroke-width="1"/>
    <path id="Path_149" data-name="Path 149" d="M19.3,18.686,15.61,15,7.5,23.11" transform="translate(-1.525 -5.339)" fill="none" stroke="#fff" stroke-linecap="round" stroke-linejoin="round" stroke-width="1"/>
  </g>
</svg>
