<svg xmlns="http://www.w3.org/2000/svg" width="21.99" height="18.853" viewBox="0 0 21.99 18.853">
  <g id="Icon_ionic-ios-eye-off" data-name="Icon ionic-ios-eye-off" transform="translate(-2.252 -4.499)">
    <path id="Path_154" data-name="Path 154" d="M5.695,4.7a.7.7,0,0,0-.987.987L22.16,23.15a.692.692,0,0,0,.673.177.68.68,0,0,0,.314-.182.7.7,0,0,0,0-.982Z" transform="translate(-0.68 0)" fill="#fff"/>
    <g id="Group_193" data-name="Group 193" transform="translate(2.252 6.856)">
      <path id="Path_155" data-name="Path 155" d="M13.454,20.461a4.414,4.414,0,0,1-4.2-6.3L6.635,11.531a34.437,34.437,0,0,0-4.178,3.991.776.776,0,0,0,0,1.046c3.186,3.52,5.994,6.549,10.786,6.549a9.453,9.453,0,0,0,4.04-.943l-2.136-2.136A4.461,4.461,0,0,1,13.454,20.461Z" transform="translate(-2.252 -8.978)" fill="#fff"/>
      <path id="Path_156" data-name="Path 156" d="M27.047,15.435a.77.77,0,0,0,.025-1.016C24.5,11.3,20.944,7.875,16.246,7.875a9.19,9.19,0,0,0-4.026.933l2.145,2.145a4.326,4.326,0,0,1,1.684-.422,4.414,4.414,0,0,1,4.2,6.3l2.626,2.626A32.474,32.474,0,0,0,27.047,15.435Z" transform="translate(-5.26 -7.875)" fill="#fff"/>
      <path id="Path_157" data-name="Path 157" d="M13.51,17.846A3.154,3.154,0,0,0,16.4,20.737a3.069,3.069,0,0,0,1.149-.128l-3.918-3.918A3.211,3.211,0,0,0,13.51,17.846Z" transform="translate(-5.647 -10.536)" fill="#fff"/>
      <path id="Path_158" data-name="Path 158" d="M22.046,17.917c0-.064,0-.128,0-.191a2.177,2.177,0,0,1-.894.191c-.054,0-.1,0-.152,0l.913.918A3.139,3.139,0,0,0,22.046,17.917Z" transform="translate(-7.908 -10.848)" fill="#fff"/>
      <path id="Path_159" data-name="Path 159" d="M17.607,14.335a2.307,2.307,0,0,1,.152-.83c-.049,0-.1,0-.152,0a3.106,3.106,0,0,0-.908.137l.918.918C17.612,14.482,17.607,14.408,17.607,14.335Z" transform="translate(-6.612 -9.573)" fill="#fff"/>
    </g>
  </g>
</svg>
