<svg xmlns="http://www.w3.org/2000/svg" width="21.99" height="14.135" viewBox="0 0 21.99 14.135">
  <g id="Icon_ionic-ios-eye" data-name="Icon ionic-ios-eye" transform="translate(-2.252 -7.875)">
    <path id="Path_152" data-name="Path 152" d="M13.235,7.875c-3.946,0-7.058,2.483-10.778,6.542a.776.776,0,0,0,0,1.045c3.185,3.519,5.993,6.547,10.783,6.547,4.731,0,8.28-3.814,10.8-6.577a.77.77,0,0,0,.025-1.016C21.49,11.3,17.932,7.875,13.235,7.875Zm.216,11.48a4.417,4.417,0,1,1,4.206-4.206A4.419,4.419,0,0,1,13.451,19.355Z" transform="translate(0)" fill="#fff"/>
    <path id="Path_153" data-name="Path 153" d="M16.641,14.334a2.306,2.306,0,0,1,.152-.829c-.049,0-.1,0-.152,0a3.141,3.141,0,1,0,3.141,3.141c0-.064,0-.128,0-.191a2.176,2.176,0,0,1-.893.191A2.279,2.279,0,0,1,16.641,14.334Z" transform="translate(-3.397 -1.699)" fill="#fff"/>
  </g>
</svg>
