<svg xmlns="http://www.w3.org/2000/svg" width="28" height="23" viewBox="0 0 28 23"><g><g><path fill="#fff" d="M25.147 6.194c.018.244.018.488.018.733 0 7.456-5.676 16.048-16.048 16.048a15.94 15.94 0 0 1-8.662-2.532c.454.052.89.07 1.362.07 2.637 0 5.064-.89 7.003-2.41a5.65 5.65 0 0 1-5.274-3.912c.35.053.699.088 1.065.088.507 0 1.013-.07 1.485-.192A5.641 5.641 0 0 1 1.573 8.55v-.07a5.68 5.68 0 0 0 2.55.716A5.636 5.636 0 0 1 1.607 4.5c0-1.048.28-2.009.768-2.847a16.033 16.033 0 0 0 11.63 5.903 6.368 6.368 0 0 1-.14-1.293 5.638 5.638 0 0 1 5.64-5.64c1.625 0 3.092.681 4.122 1.781a11.105 11.105 0 0 0 3.58-1.362 5.625 5.625 0 0 1-2.48 3.108 11.307 11.307 0 0 0 3.248-.873 12.125 12.125 0 0 1-2.829 2.916z"/></g></g></svg>