<?xml version="1.0" encoding="utf-8"?>
<!-- Generator: Adobe Illustrator 25.3.1, SVG Export Plug-In . SVG Version: 6.00 Build 0)  -->
<svg version="1.1" id="Layer_1" xmlns="http://www.w3.org/2000/svg" xmlns:xlink="http://www.w3.org/1999/xlink" x="0px" y="0px"
	 viewBox="0 0 68 68" style="enable-background:new 0 0 68 68;" xml:space="preserve">
<style type="text/css">
	.st0{fill:#A3D7BC;}
	.st1{fill:#FFFFFF;}
</style>
<path class="st0" d="M0,34C0,15.2,15.2,0,34,0s34,15.2,34,34S52.8,68,34,68S0,52.8,0,34z"/>
<path class="st1" d="M43.6,29.8c-0.5,0.5-1.4,0.5-1.9,0l-6.4-6.4v24.3c0,0.8-0.6,1.4-1.4,1.4s-1.4-0.6-1.4-1.4V23.4l-6.4,6.4
	c-0.5,0.5-1.4,0.5-1.9,0s-0.5-1.4,0-1.9l8.7-8.7c0.1-0.1,0.3-0.2,0.4-0.3c0.5-0.2,1.1-0.1,1.5,0.3l8.7,8.7
	C44.1,28.4,44.1,29.3,43.6,29.8L43.6,29.8z"/>
</svg>
