<svg xmlns="http://www.w3.org/2000/svg" width="22.157" height="26.293" viewBox="0 0 22.157 26.293">
  <g id="noun_Document_1212460" transform="translate(791.5 -629.5)">
    <path id="Path_156" data-name="Path 156" d="M31.555,8.454h-.443A3.112,3.112,0,0,0,28.01,5.5H18.527a.74.74,0,0,0-.532.236l-5.288,5.377a.692.692,0,0,0-.207.5V25.146a3.112,3.112,0,0,0,2.954,3.1v.443a3.1,3.1,0,0,0,3.1,3.1h13a3.1,3.1,0,0,0,3.1-3.1V11.556A3.1,3.1,0,0,0,31.555,8.454ZM26.681,19.533a.731.731,0,0,1-.739.739H17.67a.739.739,0,1,1,0-1.477h8.272A.731.731,0,0,1,26.681,19.533Zm0,3.545a.731.731,0,0,1-.739.739H17.67a.739.739,0,1,1,0-1.477h8.272A.731.731,0,0,1,26.681,23.078Zm-6.056-7.829a.739.739,0,1,1,0,1.477H17.67a.739.739,0,1,1,0-1.477Zm-5.85-4.136,3.043-3.1V10.67a.454.454,0,0,1-.443.443ZM33.18,28.691a1.639,1.639,0,0,1-1.625,1.625h-13a1.639,1.639,0,0,1-1.625-1.625v-.443H28.01a3.1,3.1,0,0,0,3.1-3.1V9.931h.443a1.639,1.639,0,0,1,1.625,1.625Z" transform="translate(-804 624)" fill="#fff"/>
  </g>
</svg>
