<svg xmlns="http://www.w3.org/2000/svg" width="21" height="21" viewBox="0 0 21 21">
  <g id="Icon_ionic-ios-person-add" data-name="Icon ionic-ios-person-add" transform="translate(-4.501 -4.5)">
    <path id="Path_144" data-name="Path 144" d="M22.071,22.109a25.483,25.483,0,0,0-2.849-.547,2.9,2.9,0,0,1-1.318-.607,10,10,0,0,1-.093-2.581.567.567,0,0,1,.06-.208,8.071,8.071,0,0,0,.563-1.094,12.413,12.413,0,0,0,.416-1.821.426.426,0,0,1,.219-.306,1,1,0,0,0,.427-.733,7.748,7.748,0,0,0,.4-1.832.773.773,0,0,0-.175-.52.413.413,0,0,1-.109-.4A11.532,11.532,0,0,0,19.9,8.963C19.949,6.715,18.188,4.5,15.006,4.5c-3.232,0-4.949,2.215-4.9,4.462a12.028,12.028,0,0,0,.279,2.494.435.435,0,0,1-.109.4.746.746,0,0,0-.175.52,7.748,7.748,0,0,0,.4,1.832,1.008,1.008,0,0,0,.427.733.436.436,0,0,1,.219.306,12.413,12.413,0,0,0,.416,1.821,8.382,8.382,0,0,0,.563,1.094.385.385,0,0,1,.06.208,9.989,9.989,0,0,1-.093,2.581,2.9,2.9,0,0,1-1.318.607,25.483,25.483,0,0,0-2.849.547c-.777.273-3.024,1.121-3.418,2.86a.437.437,0,0,0,.432.53h20.12a.436.436,0,0,0,.427-.53C25.1,23.23,22.848,22.383,22.071,22.109Z" transform="translate(0)" fill="#fff"/>
    <path id="Path_145" data-name="Path 145" d="M29.426,20.051H27.949V18.574A.574.574,0,0,0,27.375,18h0a.574.574,0,0,0-.574.574v1.477H25.324a.574.574,0,0,0-.574.574h0a.574.574,0,0,0,.574.574H26.8v1.477a.574.574,0,0,0,.574.574h0a.574.574,0,0,0,.574-.574V21.2h1.477A.574.574,0,0,0,30,20.625h0A.574.574,0,0,0,29.426,20.051Z" transform="translate(-4.5 -3)" fill="#fff"/>
  </g>
</svg>
