<svg xmlns="http://www.w3.org/2000/svg" width="15" height="15" viewBox="0 0 15 15">
  <path id="floppy-disk" d="M14.268,1.886,13.114.733A2.5,2.5,0,0,0,11.346,0H1.719A1.719,1.719,0,0,0,0,1.719V13.281A1.719,1.719,0,0,0,1.719,15H13.281A1.719,1.719,0,0,0,15,13.281V3.654a2.5,2.5,0,0,0-.733-1.768ZM2.5,3.906V2.344a.469.469,0,0,1,.469-.469H9.531A.469.469,0,0,1,10,2.344V3.906a.469.469,0,0,1-.469.469H2.969A.469.469,0,0,1,2.5,3.906Zm5,8.594a2.813,2.813,0,1,1,2.813-2.812A2.813,2.813,0,0,1,7.5,12.5Zm0,0" transform="translate(0)" fill="#fff"/>
</svg>
