<svg xmlns="http://www.w3.org/2000/svg" width="4.999" height="13.164" viewBox="0 0 4.999 13.164">
  <g id="noun_Info_73316" transform="translate(32 -59.5)">
    <g id="Group_213" data-name="Group 213" transform="translate(-32 59.5)">
      <path id="Path_171" data-name="Path 171" d="M39.512,14.159a1.486,1.486,0,0,0,0-2.2,1.733,1.733,0,0,0-2.348,0,1.482,1.482,0,0,0,0,2.2,1.746,1.746,0,0,0,2.348,0Zm-.749,10.1c.586-.274.9-.79.592-1.025-.175-.136-.405.089-.573.089a1.229,1.229,0,0,1-.76-.178.826.826,0,0,1-.218-.669,3.561,3.561,0,0,1,.065-.576,6.951,6.951,0,0,1,.153-.68l.7-2.466a4.117,4.117,0,0,0,.14-.746c.024-.273.037-.462.037-.569a1.623,1.623,0,0,0-.547-1.268,2.254,2.254,0,0,0-1.553-.488,3.6,3.6,0,0,0-1.187.2c-.816.286-.635,1-.454,1a1.1,1.1,0,0,1,.745.187.89.89,0,0,1,.2.66,3.1,3.1,0,0,1-.065.581c-.043.211-.093.437-.157.674l-.7,2.475q-.09.39-.134.7a4.52,4.52,0,0,0-.041.607,1.6,1.6,0,0,0,.562,1.258,2.5,2.5,0,0,0,1.628.64A4.119,4.119,0,0,0,38.763,24.261Z" transform="translate(-35 -11.5)"/>
    </g>
  </g>
</svg>
