<svg xmlns="http://www.w3.org/2000/svg" width="11.982" height="14.835" viewBox="0 0 11.982 14.835">
  <path id="Icon_ionic-md-copy" data-name="Icon ionic-md-copy" d="M13.6,3.375H9.343A1.426,1.426,0,0,0,7.9,4.784v.3H7.632A1.426,1.426,0,0,0,6.188,6.5v10.27A1.457,1.457,0,0,0,7.632,18.21h7.417a1.426,1.426,0,0,0,1.409-1.444V16.5h.3a1.426,1.426,0,0,0,1.409-1.444V7.94Zm0,1.59L16.579,7.94H13.6Zm1.712,11.8a.288.288,0,0,1-.267.3H7.632a.318.318,0,0,1-.3-.3V6.5a.288.288,0,0,1,.3-.267H7.9v9.111A1.012,1.012,0,0,0,9.058,16.5h6.258Zm1.712-1.712a.288.288,0,0,1-.267.3H9.343a.318.318,0,0,1-.3-.3V4.784a.288.288,0,0,1,.3-.267h3.12V9.081h4.565Z" transform="translate(-6.188 -3.375)" fill="#fff"/>
</svg>
