<svg xmlns="http://www.w3.org/2000/svg" width="13.6" height="17" viewBox="0 0 13.6 17">
  <g id="download" transform="translate(-48)">
    <g id="Group_64" data-name="Group 64" transform="translate(49.752)">
      <g id="Group_63" data-name="Group 63">
        <path id="Path_118" data-name="Path 118" d="M107.435,7.6l-.747-.85a.568.568,0,0,0-.8-.052l-2.227,1.952V.567A.567.567,0,0,0,103.1,0h-1.133a.567.567,0,0,0-.567.567V8.653L99.169,6.7a.568.568,0,0,0-.8.052l-.747.849a.567.567,0,0,0,.052.8l4.481,3.922a.567.567,0,0,0,.747,0l4.48-3.922A.566.566,0,0,0,107.435,7.6Z" transform="translate(-97.482)" fill="#fff"/>
      </g>
    </g>
    <g id="Group_66" data-name="Group 66" transform="translate(48 14.733)">
      <g id="Group_65" data-name="Group 65">
        <path id="Path_119" data-name="Path 119" d="M61.033,416H48.567a.567.567,0,0,0-.567.567V417.7a.567.567,0,0,0,.567.567H61.033a.567.567,0,0,0,.567-.567v-1.133A.567.567,0,0,0,61.033,416Z" transform="translate(-48 -416)" fill="#fff"/>
      </g>
    </g>
  </g>
</svg>
