<svg xmlns="http://www.w3.org/2000/svg" width="24.858" height="24.858" viewBox="0 0 24.858 24.858">
  <path id="www" d="M21.216,3.642a12.426,12.426,0,1,0,0,17.574A12.42,12.42,0,0,0,21.216,3.642Zm-.519,15.8a12.456,12.456,0,0,0-1.856-1.375,20.1,20.1,0,0,0,.75-4.849h3.653A10.744,10.744,0,0,1,20.7,19.444ZM1.615,13.221H5.268a20.1,20.1,0,0,0,.75,4.849,12.456,12.456,0,0,0-1.856,1.375A10.745,10.745,0,0,1,1.615,13.221ZM4.162,5.413A12.456,12.456,0,0,0,6.018,6.788a20.1,20.1,0,0,0-.75,4.849H1.615A10.745,10.745,0,0,1,4.162,5.413Zm7.476,1.538a10.758,10.758,0,0,1-3.691-.935c.671-1.729,1.909-3.8,3.691-4.316Zm0,1.587v3.1H6.853a18.658,18.658,0,0,1,.6-4.106A12.343,12.343,0,0,0,11.637,8.538Zm0,4.682v3.1a12.343,12.343,0,0,0-4.184,1.007,18.658,18.658,0,0,1-.6-4.106Zm0,4.685v5.252c-1.782-.514-3.02-2.587-3.691-4.316A10.758,10.758,0,0,1,11.637,17.906Zm1.584,0a10.758,10.758,0,0,1,3.691.935c-.671,1.729-1.909,3.8-3.691,4.316Zm0-1.587v-3.1h4.784a18.658,18.658,0,0,1-.6,4.106,12.343,12.343,0,0,0-4.184-1.007Zm0-4.682v-3.1a12.343,12.343,0,0,0,4.184-1.007,18.658,18.658,0,0,1,.6,4.106Zm0-4.685V1.7c1.782.514,3.02,2.588,3.691,4.316A10.759,10.759,0,0,1,13.221,6.952Zm3.557-4.461a10.8,10.8,0,0,1,2.807,1.793,10.884,10.884,0,0,1-1.274.967,11.922,11.922,0,0,0-1.533-2.759ZM6.547,5.25a10.888,10.888,0,0,1-1.274-.967A10.8,10.8,0,0,1,8.08,2.491,11.926,11.926,0,0,0,6.547,5.25Zm0,14.357a11.923,11.923,0,0,0,1.533,2.759,10.8,10.8,0,0,1-2.807-1.793A10.884,10.884,0,0,1,6.547,19.607Zm11.764,0a10.889,10.889,0,0,1,1.274.967,10.8,10.8,0,0,1-2.807,1.793,11.922,11.922,0,0,0,1.533-2.759Zm1.279-7.971a20.1,20.1,0,0,0-.75-4.849A12.458,12.458,0,0,0,20.7,5.413a10.745,10.745,0,0,1,2.547,6.224Z" transform="translate(0 0)" fill="#fff"/>
</svg>
