<svg xmlns="http://www.w3.org/2000/svg" width="14.999" height="15" viewBox="0 0 14.999 15">
  <path id="Icon_ionic-ios-person" data-name="Icon ionic-ios-person" d="M19.492,19.121c-.281-1.242-1.887-1.848-2.441-2.043a18.2,18.2,0,0,0-2.035-.391,2.068,2.068,0,0,1-.941-.434,8.228,8.228,0,0,1-.062-1.926,5.794,5.794,0,0,0,.445-.848A10.934,10.934,0,0,0,14.785,12s.32,0,.434-.562a5.534,5.534,0,0,0,.289-1.309c-.023-.449-.27-.438-.27-.438a6.849,6.849,0,0,0,.266-2A3.218,3.218,0,0,0,12,4.5,3.2,3.2,0,0,0,8.5,7.687a7.144,7.144,0,0,0,.262,2s-.246-.012-.27.438a5.534,5.534,0,0,0,.289,1.309c.109.563.434.563.434.563a10.934,10.934,0,0,0,.328,1.48,5.794,5.794,0,0,0,.445.848,8.228,8.228,0,0,1-.062,1.926,2.068,2.068,0,0,1-.941.434,18.2,18.2,0,0,0-2.035.391c-.555.2-2.16.8-2.441,2.043a.312.312,0,0,0,.309.379H19.188A.312.312,0,0,0,19.492,19.121Z" transform="translate(-4.501 -4.5)" fill="#fff"/>
</svg>
