<svg xmlns="http://www.w3.org/2000/svg" width="22.785" height="22.791" viewBox="0 0 22.785 22.791">
  <g id="Icon_ionic-ios-timer" data-name="Icon ionic-ios-timer" transform="translate(-3.938 -3.938)">
    <path id="Path_141" data-name="Path 141" d="M15.333,26.729a11.4,11.4,0,0,1-7.908-19.6A.915.915,0,1,1,8.7,8.444a9.564,9.564,0,1,0,7.55-2.632V9.379a.917.917,0,1,1-1.835,0V4.855a.917.917,0,0,1,.917-.917,11.4,11.4,0,0,1,.006,22.791Z" transform="translate(0 0)" fill="#fff"/>
    <path id="Path_142" data-name="Path 142" d="M12.156,11.359l5.669,4.074a1.715,1.715,0,1,1-1.994,2.792,1.656,1.656,0,0,1-.4-.4l-4.074-5.669a.572.572,0,0,1,.8-.8Z" transform="translate(-1.387 -1.387)" fill="#fff"/>
  </g>
</svg>
