<?xml version="1.0" encoding="utf-8"?>
<!-- Generator: Adobe Illustrator 16.0.0, SVG Export Plug-In . SVG Version: 6.00 Build 0)  -->
<!DOCTYPE svg PUBLIC "-//W3C//DTD SVG 1.1//EN" "http://www.w3.org/Graphics/SVG/1.1/DTD/svg11.dtd">
<svg version="1.1" id="Layer_1" xmlns="http://www.w3.org/2000/svg" xmlns:xlink="http://www.w3.org/1999/xlink" x="0px" y="0px"
	 width="24px" height="24px" viewBox="0 0 24 24" enable-background="new 0 0 24 24" xml:space="preserve">
<g>
	<g>
		<path d="M23.727,12.28c0-6.552-5.311-11.864-11.862-11.864C5.31,0.416,0,5.728,0,12.28C0,18.202,4.338,23.109,10.01,24v-8.29
			H6.998v-3.43h3.012V9.667c0-2.974,1.771-4.616,4.481-4.616c1.298,0,2.655,0.232,2.655,0.232v2.92H15.65
			c-1.475,0-1.935,0.914-1.935,1.852v2.225h3.29l-0.525,3.43h-2.765V24C19.389,23.109,23.727,18.202,23.727,12.28L23.727,12.28z"/>
	</g>
</g>
</svg>
