<?xml version="1.0" encoding="utf-8"?>
<!-- Generator: Adobe Illustrator 16.0.0, SVG Export Plug-In . SVG Version: 6.00 Build 0)  -->
<!DOCTYPE svg PUBLIC "-//W3C//DTD SVG 1.1//EN" "http://www.w3.org/Graphics/SVG/1.1/DTD/svg11.dtd">
<svg version="1.1" id="Layer_1" xmlns="http://www.w3.org/2000/svg" xmlns:xlink="http://www.w3.org/1999/xlink" x="0px" y="0px"
	 width="62px" height="85px" viewBox="0 0 62 85" enable-background="new 0 0 62 85" xml:space="preserve">
<g>
	<g>
		<g>
			<g>
				<path fill="#6CCAD3" d="M52.32,36.42c-0.272,0.272-0.637,0.363-1.182,0.363H44.68v4.184h5.459c2,0,2,2.456,0,2.456H44.68v5.367
					c0,2.364-2.092,2.364-2.82,1.546c-0.271-0.363-0.453-0.91-0.453-1.546V36.237c0-1.455,0.637-2,2-2h7.732
					C52.958,34.237,52.958,35.874,52.32,36.42L52.32,36.42z M38.313,44.97c-0.545,2.819-2.364,4.911-5.274,5.366l-6.276,0.182
					c-1.729,0-2.092-0.728-2.092-2.365V36.237c0-1.455,0.636-2,2-2c2.002,0,5.458-0.183,7.186,0.272
					C38.04,35.601,39.223,40.876,38.313,44.97L38.313,44.97z M20.303,42.877c-1,0.91-2.455,1.273-4.547,1.273h-3.002v4.64
					c0,2.728-3.274,2.728-3.274,0V36.237c0-1.455,0.636-2,2.092-2c1.819,0,5.64-0.092,7.094,0.272
					C22.669,35.601,22.669,40.967,20.303,42.877L20.303,42.877z M51.139,18.046c-3.729,0-6.73-3.093-6.73-6.73V0.763H3.021
					C1.748,0.764,0.657,1.855,0.657,3.129v78.77c0,1.273,1.091,2.365,2.365,2.365h56.302c1.273,0,2.273-1.092,2.273-2.365V18.046
					H51.139z"/>
			</g>
			<g>
				<path fill="#6CCAD3" d="M15.028,36.692h-2.183v5.003h-0.09c2.364,0,5.82,0.455,5.82-2.547
					C18.575,37.147,17.211,36.692,15.028,36.692z"/>
			</g>
			<g>
				<path fill="#6CCAD3" d="M30.127,36.965h-2.183v11.006c1.364,0,3.638,0.09,4.73-0.272c3.092-1.091,2.91-7.095,1.819-8.914
					C33.493,37.147,32.037,36.965,30.127,36.965z"/>
			</g>
			<g>
				<path fill="#6CCAD3" d="M51.139,14.044h7.639L48.318,3.584v7.64C48.318,12.861,49.592,14.044,51.139,14.044z"/>
			</g>
		</g>
	</g>
</g>
</svg>
