<svg xmlns="http://www.w3.org/2000/svg" width="21.68" height="30" viewBox="0 0 21.68 30">
  <g id="document" transform="translate(-71)">
    <g id="Group_67" data-name="Group 67" transform="translate(71)">
      <path id="Path_120" data-name="Path 120" d="M91.8,0H76.288a.879.879,0,0,0-.621.257L71.257,4.666A.879.879,0,0,0,71,5.287V29.121a.879.879,0,0,0,.879.879H91.8a.879.879,0,0,0,.879-.879V.879A.879.879,0,0,0,91.8,0ZM78.747,7.439a.879.879,0,0,1,1.243,0l1.024,1.024L83.69,5.787A.879.879,0,0,1,84.933,7.03l-3.3,3.3a.879.879,0,0,1-1.243,0L78.747,8.682A.879.879,0,0,1,78.747,7.439Zm9.538,17.815H75.395a.879.879,0,0,1,0-1.758H88.285a.879.879,0,0,1,0,1.758Zm0-4.395H75.395a.879.879,0,0,1,0-1.758H88.285a.879.879,0,0,1,0,1.758Zm0-4.395H75.395a.879.879,0,0,1,0-1.758H88.285a.879.879,0,0,1,0,1.758Z" transform="translate(-71)" fill="#6ccad3"/>
    </g>
  </g>
</svg>
