<?xml version="1.0" encoding="utf-8"?>
<!-- Generator: Adobe Illustrator 16.0.0, SVG Export Plug-In . SVG Version: 6.00 Build 0)  -->
<!DOCTYPE svg PUBLIC "-//W3C//DTD SVG 1.1//EN" "http://www.w3.org/Graphics/SVG/1.1/DTD/svg11.dtd">
<svg version="1.1" id="Layer_1" xmlns="http://www.w3.org/2000/svg" xmlns:xlink="http://www.w3.org/1999/xlink" x="0px" y="0px"
	 width="44.234px" height="44.236px" viewBox="0 0 44.234 44.236" enable-background="new 0 0 44.234 44.236" xml:space="preserve">
<path id="Icon_ionic-ios-person" fill="#001489" d="M44.212,43.119c-0.829-3.663-5.563-5.449-7.199-6.025
	c-1.977-0.497-3.98-0.882-6-1.151c-1.02-0.184-1.975-0.624-2.776-1.279c-0.461-0.553-0.185-5.679-0.185-5.679
	c0.507-0.796,0.945-1.632,1.313-2.5c0.423-1.432,0.747-2.891,0.968-4.366c0,0,0.945,0,1.279-1.659
	c0.356-1.809,0.922-2.511,0.852-3.858c-0.068-1.325-0.795-1.29-0.795-1.29c0.552-1.921,0.816-3.912,0.783-5.91
	C32.552,4.665,28.846,0,22.13,0c-6.808,0-10.437,4.666-10.333,9.4c-0.023,1.996,0.236,3.986,0.772,5.91c0,0-0.727-0.035-0.795,1.29
	c-0.069,1.348,0.5,2.051,0.852,3.858c0.323,1.659,1.279,1.659,1.279,1.659c0.221,1.476,0.545,2.935,0.968,4.366
	c0.368,0.868,0.808,1.704,1.313,2.5c0,0,0.275,5.126-0.185,5.679c-0.802,0.655-1.757,1.096-2.775,1.279
	c-2.021,0.27-4.023,0.654-6,1.151c-1.637,0.576-6.37,2.362-7.2,6.025c-0.108,0.497,0.207,0.987,0.704,1.096
	c0.067,0.015,0.137,0.022,0.206,0.021h42.377c0.507,0.001,0.92-0.41,0.92-0.918C44.234,43.252,44.226,43.184,44.212,43.119z"/>
</svg>
