<svg xmlns="http://www.w3.org/2000/svg" width="19.395" height="18.908" viewBox="0 0 19.395 18.908">
  <g id="noun_Share_1955702" transform="translate(-46.546 -893.649)">
    <path id="Path_551" data-name="Path 551" d="M64.025,80.107a.718.718,0,0,1,.718.718v5.363a2.541,2.541,0,0,1-2.538,2.538H49.084a2.541,2.541,0,0,1-2.538-2.538V73.068a2.541,2.541,0,0,1,2.538-2.538h7.279a.718.718,0,1,1,0,1.437H49.084a1.1,1.1,0,0,0-1.1,1.1V86.189a1.1,1.1,0,0,0,1.1,1.1H62.205a1.1,1.1,0,0,0,1.1-1.1V80.826a.718.718,0,0,1,.718-.718Zm1.665-6.048a.71.71,0,0,1,0,1.083l-4.03,4.029a.718.718,0,0,1-1.016-1.016l2.773-2.774c-6.239.414-8.729,3.121-8.729,9.275a.718.718,0,0,1-1.437,0c0-7.023,3.1-10.3,10.281-10.725l-2.887-2.886a.718.718,0,1,1,1.015-1.016l4.03,4.03Z" transform="translate(0 823.831)" fill="#fff"/>
  </g>
</svg>
