<svg xmlns="http://www.w3.org/2000/svg" width="22" height="22" viewBox="0 0 22 22">
  <g id="Group_94" data-name="Group 94" transform="translate(-1216 -655)">
    <g id="Path_144" data-name="Path 144" transform="translate(1217 657)" fill="#fff">
      <path d="M 10 17.5 C 4.761680126190186 17.5 0.5 13.68692016601562 0.5 9 C 0.5 4.313079833984375 4.761680126190186 0.5 10 0.5 C 15.23832035064697 0.5 19.5 4.313079833984375 19.5 9 C 19.5 13.68692016601562 15.23832035064697 17.5 10 17.5 Z" stroke="none"/>
      <path d="M 10 1 C 5.037380218505859 1 1 4.588789939880371 1 9 C 1 13.41121006011963 5.037380218505859 17 10 17 C 14.96261978149414 17 19 13.41121006011963 19 9 C 19 4.588789939880371 14.96261978149414 1 10 1 M 10 0 C 15.52285003662109 0 20 4.029439926147461 20 9 C 20 13.97056007385254 15.52285003662109 18 10 18 C 4.477149963378906 18 0 13.97056007385254 0 9 C 0 4.029439926147461 4.477149963378906 0 10 0 Z" stroke="none" fill="#707070"/>
    </g>
    <path id="Icon_ionic-ios-add-circle" data-name="Icon ionic-ios-add-circle" d="M14.375,3.375a11,11,0,1,0,11,11A11,11,0,0,0,14.375,3.375Zm4.786,11.846h-3.94v3.94a.846.846,0,0,1-1.692,0v-3.94H9.589a.846.846,0,1,1,0-1.692h3.94V9.589a.846.846,0,1,1,1.692,0v3.94h3.94a.846.846,0,1,1,0,1.692Z" transform="translate(1212.625 651.625)" fill="#f36633"/>
  </g>
</svg>
