<?xml version="1.0" encoding="utf-8"?>
<!-- Generator: Adobe Illustrator 16.0.0, SVG Export Plug-In . SVG Version: 6.00 Build 0)  -->
<!DOCTYPE svg PUBLIC "-//W3C//DTD SVG 1.1//EN" "http://www.w3.org/Graphics/SVG/1.1/DTD/svg11.dtd">
<svg version="1.1" id="Layer_1" xmlns="http://www.w3.org/2000/svg" xmlns:xlink="http://www.w3.org/1999/xlink" x="0px" y="0px"
	 width="111.5px" height="46px" viewBox="0 0 111.5 46" enable-background="new 0 0 111.5 46" xml:space="preserve">
<g id="Group_183" transform="translate(-1278 -1507)">
	<path id="Icon_awesome-image" fill="#FFFFFF" d="M1326.437,1549.086h-43.426c-2.768,0-5.011-2.243-5.011-5.011v-30.064
		c0-2.767,2.244-5.011,5.011-5.011h43.426c2.768,0,5.011,2.244,5.011,5.011l0,0v30.064
		C1331.448,1546.843,1329.205,1549.086,1326.437,1549.086z M1289.692,1514.846c-3.229,0-5.846,2.617-5.846,5.846
		s2.617,5.846,5.846,5.846s5.846-2.617,5.846-5.846l0,0C1295.538,1517.463,1292.921,1514.846,1289.692,1514.846z M1284.681,1542.4
		h40.086v-11.688l-9.136-9.136c-0.489-0.489-1.283-0.489-1.771,0l-14.146,14.146l-5.8-5.802c-0.489-0.489-1.283-0.489-1.772,0
		l-7.46,7.472L1284.681,1542.4L1284.681,1542.4z"/>
	<g>
		<defs>
			<rect id="SVGID_1_" x="1344.5" y="1507" width="45" height="46"/>
		</defs>
		<clipPath id="SVGID_2_">
			<use xlink:href="#SVGID_1_"  overflow="visible"/>
		</clipPath>
		<g id="Repeat_Grid_1_2_" transform="translate(1344.5 1507)" clip-path="url(#SVGID_2_)">
			<g transform="translate(-1338.5 -1622)">
				<line id="Line_128_2_" fill="none" stroke="#FFFFFF" x1="1338.5" y1="1622.5" x2="1395.5" y2="1622.5"/>
			</g>
			<g transform="translate(-1338.5 -1618)">
				<line id="Line_128-2_2_" fill="none" stroke="#FFFFFF" x1="1338.5" y1="1622.5" x2="1395.5" y2="1622.5"/>
			</g>
			<g transform="translate(-1338.5 -1614)">
				<line id="Line_128-3_2_" fill="none" stroke="#FFFFFF" x1="1338.5" y1="1622.5" x2="1395.5" y2="1622.5"/>
			</g>
			<g transform="translate(-1338.5 -1610)">
				<line id="Line_128-4_2_" fill="none" stroke="#FFFFFF" x1="1338.5" y1="1622.5" x2="1395.5" y2="1622.5"/>
			</g>
			<g transform="translate(-1338.5 -1606)">
				<line id="Line_128-5_2_" fill="none" stroke="#FFFFFF" x1="1338.5" y1="1622.5" x2="1395.5" y2="1622.5"/>
			</g>
			<g transform="translate(-1338.5 -1602)">
				<line id="Line_128-6_2_" fill="none" stroke="#FFFFFF" x1="1338.5" y1="1622.5" x2="1395.5" y2="1622.5"/>
			</g>
			<g transform="translate(-1338.5 -1598)">
				<line id="Line_128-7_2_" fill="none" stroke="#FFFFFF" x1="1338.5" y1="1622.5" x2="1395.5" y2="1622.5"/>
			</g>
			<g transform="translate(-1338.5 -1594)">
				<line id="Line_128-8_2_" fill="none" stroke="#FFFFFF" x1="1338.5" y1="1622.5" x2="1395.5" y2="1622.5"/>
			</g>
			<g transform="translate(-1338.5 -1590)">
				<line id="Line_128-9_2_" fill="none" stroke="#FFFFFF" x1="1338.5" y1="1622.5" x2="1395.5" y2="1622.5"/>
			</g>
			<g transform="translate(-1338.5 -1586)">
				<line id="Line_128-10_2_" fill="none" stroke="#FFFFFF" x1="1338.5" y1="1622.5" x2="1395.5" y2="1622.5"/>
			</g>
			<g transform="translate(-1338.5 -1582)">
				<line id="Line_128-11_2_" fill="none" stroke="#FFFFFF" x1="1338.5" y1="1622.5" x2="1395.5" y2="1622.5"/>
			</g>
			<g transform="translate(-1338.5 -1578)">
				<line id="Line_128-12_2_" fill="none" stroke="#FFFFFF" x1="1338.5" y1="1622.5" x2="1395.5" y2="1622.5"/>
			</g>
		</g>
	</g>
</g>
<g>
	<g>
		<g id="Repeat_Grid_1_1_" transform="translate(1344.5 1507)">
			<g transform="translate(-1338.5 -1622)">
				<line id="Line_128_1_" fill="none" stroke="#FFFFFF" x1="60.5" y1="115.5" x2="117.5" y2="115.5"/>
			</g>
			<g transform="translate(-1338.5 -1618)">
				<line id="Line_128-2_1_" fill="none" stroke="#FFFFFF" x1="60.5" y1="115.5" x2="117.5" y2="115.5"/>
			</g>
			<g transform="translate(-1338.5 -1614)">
				<line id="Line_128-3_1_" fill="none" stroke="#FFFFFF" x1="60.5" y1="115.5" x2="117.5" y2="115.5"/>
			</g>
			<g transform="translate(-1338.5 -1610)">
				<line id="Line_128-4_1_" fill="none" stroke="#FFFFFF" x1="60.5" y1="115.5" x2="117.5" y2="115.5"/>
			</g>
			<g transform="translate(-1338.5 -1606)">
				<line id="Line_128-5_1_" fill="none" stroke="#FFFFFF" x1="60.5" y1="115.5" x2="117.5" y2="115.5"/>
			</g>
			<g transform="translate(-1338.5 -1602)">
				<line id="Line_128-6_1_" fill="none" stroke="#FFFFFF" x1="60.5" y1="115.5" x2="117.5" y2="115.5"/>
			</g>
			<g transform="translate(-1338.5 -1598)">
				<line id="Line_128-7_1_" fill="none" stroke="#FFFFFF" x1="60.5" y1="115.5" x2="117.5" y2="115.5"/>
			</g>
			<g transform="translate(-1338.5 -1594)">
				<line id="Line_128-8_1_" fill="none" stroke="#FFFFFF" x1="60.5" y1="115.5" x2="117.5" y2="115.5"/>
			</g>
			<g transform="translate(-1338.5 -1590)">
				<line id="Line_128-9_1_" fill="none" stroke="#FFFFFF" x1="60.5" y1="115.5" x2="117.5" y2="115.5"/>
			</g>
			<g transform="translate(-1338.5 -1586)">
				<line id="Line_128-10_1_" fill="none" stroke="#FFFFFF" x1="60.5" y1="115.5" x2="117.5" y2="115.5"/>
			</g>
			<g transform="translate(-1338.5 -1582)">
				<line id="Line_128-11_1_" fill="none" stroke="#FFFFFF" x1="60.5" y1="115.5" x2="117.5" y2="115.5"/>
			</g>
			<g transform="translate(-1338.5 -1578)">
				<line id="Line_128-12_1_" fill="none" stroke="#FFFFFF" x1="60.5" y1="115.5" x2="117.5" y2="115.5"/>
			</g>
		</g>
	</g>
</g>
</svg>
