<?xml version="1.0" encoding="utf-8"?>
<!-- Generator: Adobe Illustrator 16.0.0, SVG Export Plug-In . SVG Version: 6.00 Build 0)  -->
<!DOCTYPE svg PUBLIC "-//W3C//DTD SVG 1.1//EN" "http://www.w3.org/Graphics/SVG/1.1/DTD/svg11.dtd">
<svg version="1.1" id="Layer_1" xmlns="http://www.w3.org/2000/svg" xmlns:xlink="http://www.w3.org/1999/xlink" x="0px" y="0px"
	 width="24px" height="22px" viewBox="0 0 24 22" enable-background="new 0 0 24 22" xml:space="preserve">
<g>
	<g>
		<path fill="#FFFFFF" d="M23.25,21.5h-12c-0.414,0-0.75-0.336-0.75-0.75v-1.5c0-0.414,0.336-0.75,0.75-0.75h12
			c0.414,0,0.75,0.336,0.75,0.75v1.5C24,21.164,23.664,21.5,23.25,21.5z M17.25,9.5h-6c-0.414,0-0.75-0.336-0.75-0.75v-1.5
			c0-0.414,0.336-0.75,0.75-0.75h6C17.664,6.5,18,6.836,18,7.25v1.5C18,9.164,17.664,9.5,17.25,9.5z M20.25,15.5h-9
			c-0.414,0-0.75-0.336-0.75-0.75v-1.5c0-0.414,0.336-0.75,0.75-0.75h9c0.414,0,0.75,0.336,0.75,0.75v1.5
			C21,15.164,20.664,15.5,20.25,15.5z M0.221,5.219l3.75-4.5c0.292-0.292,0.767-0.292,1.06,0l3.75,4.5
			c0.293,0.294,0.292,0.769,0,1.062C8.64,6.42,8.45,6.499,8.251,6.499h-2.25v14.25c0,0.414-0.336,0.75-0.75,0.75h-1.5
			c-0.414,0-0.75-0.336-0.75-0.75V6.499h-2.25C0.084,6.499-0.249,5.69,0.221,5.219z M14.25,3.5h-3c-0.414,0-0.75-0.336-0.75-0.75
			v-1.5c0-0.414,0.336-0.75,0.75-0.75h3C14.664,0.5,15,0.836,15,1.25v1.5C15,3.164,14.664,3.5,14.25,3.5z"/>
	</g>
</g>
</svg>
