<?xml version="1.0" encoding="utf-8"?>
<!-- Generator: Adobe Illustrator 16.0.0, SVG Export Plug-In . SVG Version: 6.00 Build 0)  -->
<!DOCTYPE svg PUBLIC "-//W3C//DTD SVG 1.1//EN" "http://www.w3.org/Graphics/SVG/1.1/DTD/svg11.dtd">
<svg version="1.1" id="Layer_1" xmlns="http://www.w3.org/2000/svg" xmlns:xlink="http://www.w3.org/1999/xlink" x="0px" y="0px"
	 width="87px" height="78px" viewBox="0 0 87 78" enable-background="new 0 0 87 78" xml:space="preserve">
<g id="Group_186" transform="translate(-1653.5 -1490)">
	<path id="Icon_awesome-image" d="M1719.438,1536.09h-43.426c-2.768,0-5.011-2.243-5.011-5.011v-30.064
		c0-2.767,2.244-5.011,5.011-5.011h43.426c2.768,0,5.011,2.244,5.011,5.011l0,0v30.064
		C1724.448,1533.847,1722.205,1536.09,1719.438,1536.09z M1682.692,1501.85c-3.229,0-5.846,2.617-5.846,5.846
		c0,3.229,2.617,5.846,5.846,5.846c3.229,0,5.846-2.617,5.846-5.846l0,0C1688.538,1504.467,1685.921,1501.85,1682.692,1501.85z
		 M1677.681,1529.404h40.086v-11.688l-9.137-9.136c-0.489-0.489-1.283-0.489-1.771,0l-14.146,14.147l-5.8-5.8
		c-0.489-0.489-1.283-0.489-1.772,0l-7.46,7.47V1529.404z"/>
	<g id="Group_185">
		<line id="Line_128" fill="none" stroke="#000000" x1="1653.5" y1="1543.5" x2="1740.5" y2="1543.5"/>
		<line id="Line_128-2" fill="none" stroke="#000000" x1="1653.5" y1="1547.5" x2="1740.5" y2="1547.5"/>
		<line id="Line_128-3" fill="none" stroke="#000000" x1="1653.5" y1="1551.5" x2="1740.5" y2="1551.5"/>
		<line id="Line_128-4" fill="none" stroke="#000000" x1="1653.5" y1="1555.5" x2="1740.5" y2="1555.5"/>
		<line id="Line_128-5" fill="none" stroke="#000000" x1="1653.5" y1="1559.5" x2="1740.5" y2="1559.5"/>
		<line id="Line_128-6" fill="none" stroke="#000000" x1="1653.5" y1="1563.5" x2="1740.5" y2="1563.5"/>
		<line id="Line_128-7" fill="none" stroke="#000000" x1="1653.5" y1="1567.5" x2="1740.5" y2="1567.5"/>
	</g>
</g>
</svg>
