<svg xmlns="http://www.w3.org/2000/svg" xmlns:xlink="http://www.w3.org/1999/xlink" width="111.5" height="46" viewBox="0 0 111.5 46">
  <defs>
    <clipPath id="clip-path">
      <rect width="45" height="46" fill="none"/>
    </clipPath>
  </defs>
  <g id="Group_183" data-name="Group 183" transform="translate(-1278 -1507)">
    <path id="Icon_awesome-image" data-name="Icon awesome-image" d="M48.437,44.586H5.011A5.011,5.011,0,0,1,0,39.575V9.511A5.011,5.011,0,0,1,5.011,4.5H48.437a5.011,5.011,0,0,1,5.011,5.011V39.575A5.011,5.011,0,0,1,48.437,44.586ZM11.692,10.346a5.846,5.846,0,1,0,5.846,5.846A5.846,5.846,0,0,0,11.692,10.346ZM6.681,37.9H46.767V26.213l-9.136-9.136a1.253,1.253,0,0,0-1.772,0L21.713,31.224l-5.8-5.8a1.253,1.253,0,0,0-1.772,0L6.681,32.894Z" transform="translate(1278 1504.5)" fill="#0e0e0e"/>
    <g id="Repeat_Grid_1" data-name="Repeat Grid 1" transform="translate(1344.5 1507)" clip-path="url(#clip-path)">
      <g transform="translate(-1338.5 -1622)">
        <line id="Line_128" data-name="Line 128" x2="57" transform="translate(1338.5 1622.5)" fill="none" stroke="#171616" stroke-width="1"/>
      </g>
      <g transform="translate(-1338.5 -1618)">
        <line id="Line_128-2" data-name="Line 128" x2="57" transform="translate(1338.5 1622.5)" fill="none" stroke="#171616" stroke-width="1"/>
      </g>
      <g transform="translate(-1338.5 -1614)">
        <line id="Line_128-3" data-name="Line 128" x2="57" transform="translate(1338.5 1622.5)" fill="none" stroke="#171616" stroke-width="1"/>
      </g>
      <g transform="translate(-1338.5 -1610)">
        <line id="Line_128-4" data-name="Line 128" x2="57" transform="translate(1338.5 1622.5)" fill="none" stroke="#171616" stroke-width="1"/>
      </g>
      <g transform="translate(-1338.5 -1606)">
        <line id="Line_128-5" data-name="Line 128" x2="57" transform="translate(1338.5 1622.5)" fill="none" stroke="#171616" stroke-width="1"/>
      </g>
      <g transform="translate(-1338.5 -1602)">
        <line id="Line_128-6" data-name="Line 128" x2="57" transform="translate(1338.5 1622.5)" fill="none" stroke="#171616" stroke-width="1"/>
      </g>
      <g transform="translate(-1338.5 -1598)">
        <line id="Line_128-7" data-name="Line 128" x2="57" transform="translate(1338.5 1622.5)" fill="none" stroke="#171616" stroke-width="1"/>
      </g>
      <g transform="translate(-1338.5 -1594)">
        <line id="Line_128-8" data-name="Line 128" x2="57" transform="translate(1338.5 1622.5)" fill="none" stroke="#171616" stroke-width="1"/>
      </g>
      <g transform="translate(-1338.5 -1590)">
        <line id="Line_128-9" data-name="Line 128" x2="57" transform="translate(1338.5 1622.5)" fill="none" stroke="#171616" stroke-width="1"/>
      </g>
      <g transform="translate(-1338.5 -1586)">
        <line id="Line_128-10" data-name="Line 128" x2="57" transform="translate(1338.5 1622.5)" fill="none" stroke="#171616" stroke-width="1"/>
      </g>
      <g transform="translate(-1338.5 -1582)">
        <line id="Line_128-11" data-name="Line 128" x2="57" transform="translate(1338.5 1622.5)" fill="none" stroke="#171616" stroke-width="1"/>
      </g>
      <g transform="translate(-1338.5 -1578)">
        <line id="Line_128-12" data-name="Line 128" x2="57" transform="translate(1338.5 1622.5)" fill="none" stroke="#171616" stroke-width="1"/>
      </g>
    </g>
  </g>
</svg>
