<svg xmlns="http://www.w3.org/2000/svg" width="58.781" height="44.086" viewBox="0 0 58.781 44.086">
  <path id="Icon_awesome-image" data-name="Icon awesome-image" d="M53.27,48.586H5.511A5.511,5.511,0,0,1,0,43.075V10.011A5.511,5.511,0,0,1,5.511,4.5H53.27a5.511,5.511,0,0,1,5.511,5.511V43.075A5.511,5.511,0,0,1,53.27,48.586ZM12.858,10.929a6.429,6.429,0,1,0,6.429,6.429A6.429,6.429,0,0,0,12.858,10.929ZM7.348,41.238H51.433V28.38L41.386,18.332a1.378,1.378,0,0,0-1.948,0L23.88,33.89l-6.373-6.373a1.378,1.378,0,0,0-1.948,0l-8.21,8.21Z" transform="translate(0 -4.5)" fill="#fff"/>
</svg>
