<?xml version="1.0" encoding="utf-8"?>
<!-- Generator: Adobe Illustrator 16.0.0, SVG Export Plug-In . SVG Version: 6.00 Build 0)  -->
<!DOCTYPE svg PUBLIC "-//W3C//DTD SVG 1.1//EN" "http://www.w3.org/Graphics/SVG/1.1/DTD/svg11.dtd">
<svg version="1.1" id="Layer_1" xmlns="http://www.w3.org/2000/svg" xmlns:xlink="http://www.w3.org/1999/xlink" x="0px" y="0px"
	 width="28px" height="23px" viewBox="0 0 28 23" enable-background="new 0 0 28 23" xml:space="preserve">
<g>
	<g>
		<path d="M25.146,6.194c0.019,0.244,0.019,0.488,0.019,0.733c0,7.456-5.676,16.048-16.048,16.048
			c-3.071,0.008-6.079-0.871-8.662-2.531c0.454,0.052,0.89,0.07,1.362,0.07c2.637,0,5.064-0.891,7.003-2.41
			c-2.413-0.045-4.532-1.615-5.274-3.912c0.35,0.053,0.699,0.088,1.065,0.088c0.507,0,1.013-0.07,1.485-0.192
			c-2.634-0.532-4.527-2.85-4.523-5.537V8.48c0.781,0.436,1.655,0.682,2.55,0.716C2.551,8.151,1.606,6.388,1.607,4.5
			c0-1.048,0.28-2.009,0.768-2.847C5.24,5.18,9.467,7.325,14.005,7.556c-0.091-0.425-0.138-0.858-0.14-1.293
			c-0.001-3.114,2.521-5.639,5.636-5.64c0.001,0,0.003,0,0.004,0c1.625,0,3.093,0.681,4.122,1.781
			c1.264-0.243,2.475-0.704,3.58-1.362c-0.421,1.303-1.303,2.408-2.48,3.108c1.121-0.127,2.215-0.421,3.248-0.873
			C27.203,4.401,26.246,5.387,25.146,6.194L25.146,6.194z"/>
	</g>
</g>
</svg>
