<svg id="Group_212" data-name="Group 212" xmlns="http://www.w3.org/2000/svg" width="9.072" height="11.745" viewBox="0 0 9.072 11.745">
  <g id="noun_Document_1952280" transform="translate(0 0)">
    <g id="Group_211" data-name="Group 211" transform="translate(0 0)">
      <g id="Group_208" data-name="Group 208" transform="translate(6.4 0.382)">
        <g id="Group_207" data-name="Group 207" transform="translate(0 0)">
          <path id="Path_169" data-name="Path 169" d="M316.8,81.745h1.526L316,79.3v1.644A.8.8,0,0,0,316.8,81.745Z" transform="translate(-316 -79.3)" fill="#fff"/>
        </g>
      </g>
      <g id="Group_210" data-name="Group 210" transform="translate(0 0)">
        <g id="Group_209" data-name="Group 209" transform="translate(0 0)">
          <path id="Path_170" data-name="Path 170" d="M115.9,69.026V67h-4.772A1.136,1.136,0,0,0,110,68.128v9.489a1.136,1.136,0,0,0,1.131,1.128h6.811a1.136,1.136,0,0,0,1.131-1.128V70.325h-1.867A1.3,1.3,0,0,1,115.9,69.026Zm-3.356,4.048a.25.25,0,0,1,.351.012l1.389,1.491V71.03a.249.249,0,1,1,.5,0v3.551l1.389-1.491a.248.248,0,1,1,.364.339l-1.821,1.954a.249.249,0,0,1-.183.078.254.254,0,0,1-.183-.078l-1.821-1.954A.26.26,0,0,1,112.548,73.074Zm4.794,3.775a.249.249,0,0,1-.249.249h-5.114a.249.249,0,0,1,0-.5H117.1A.247.247,0,0,1,117.342,76.849Z" transform="translate(-110 -67)" fill="#fff"/>
        </g>
      </g>
      <rect id="Rectangle_1647" data-name="Rectangle 1647" width="5.872" height="6.799" transform="translate(1.545 3.709)" fill="#fff"/>
    </g>
  </g>
</svg>
