<?xml version="1.0" encoding="utf-8"?>
<!-- Generator: Adobe Illustrator 16.0.0, SVG Export Plug-In . SVG Version: 6.00 Build 0)  -->
<!DOCTYPE svg PUBLIC "-//W3C//DTD SVG 1.1//EN" "http://www.w3.org/Graphics/SVG/1.1/DTD/svg11.dtd">
<svg version="1.1" id="Layer_1" xmlns="http://www.w3.org/2000/svg" xmlns:xlink="http://www.w3.org/1999/xlink" x="0px" y="0px"
	 width="19px" height="18px" viewBox="0 0 19 18" enable-background="new 0 0 19 18" xml:space="preserve">
<g>
	<g opacity="0">
	</g>
</g>
<g>
	<path fill="#FFFFFF" d="M15.246,1.671c0.439-0.436,1.15-0.433,1.586,0.007c0.208,0.209,0.324,0.491,0.326,0.785
		c0,0.3-0.117,0.58-0.328,0.792l-9.134,9.136l-1.979,0.396l0.395-1.979L15.246,1.671z M8.036,13.008H8.027 M4.86,14.313
		c0.044,0,0.089-0.004,0.132-0.013l3.167-0.634c0.13-0.025,0.25-0.09,0.343-0.184l9.277-9.277c0.464-0.461,0.724-1.088,0.722-1.742
		c0-0.658-0.256-1.276-0.72-1.741c-0.963-0.961-2.521-0.961-3.484,0L5.018,9.999c-0.094,0.094-0.157,0.213-0.183,0.343L4.2,13.51
		c-0.074,0.363,0.161,0.717,0.523,0.79C4.768,14.309,4.813,14.313,4.86,14.313L4.86,14.313z"/>
</g>
<g>
	<path fill="#FFFFFF" d="M15.953,18.001H2.963C1.604,18,0.501,16.897,0.5,15.538V2.548c0.001-1.36,1.104-2.462,2.464-2.463h7.614
		c0.371,0,0.672,0.301,0.672,0.672s-0.301,0.672-0.672,0.672l0,0H2.964c-0.618,0-1.12,0.502-1.12,1.12v12.989
		c0,0.617,0.502,1.12,1.12,1.12h12.99c0.616,0,1.119-0.503,1.119-1.12V7.923c0-0.371,0.301-0.672,0.672-0.671
		c0.371,0,0.672,0.301,0.672,0.671v7.615C18.414,16.897,17.313,17.999,15.953,18.001L15.953,18.001z"/>
</g>
<g>
	<path fill="#FFFFFF" d="M16.038,5.67c-0.179,0-0.35-0.071-0.476-0.198l-2.533-2.534c-0.269-0.255-0.28-0.681-0.025-0.95
		c0.256-0.269,0.681-0.281,0.95-0.026c0.009,0.009,0.018,0.017,0.026,0.026l2.533,2.534c0.263,0.263,0.263,0.688,0,0.95
		C16.388,5.599,16.217,5.669,16.038,5.67L16.038,5.67z"/>
</g>
</svg>
