<svg xmlns="http://www.w3.org/2000/svg" width="100" height="100" viewBox="0 0 100 100">
  <g id="Group_630" data-name="Group 630" transform="translate(18100 19372)">
    <circle id="Ellipse_763" data-name="Ellipse 763" cx="50" cy="50" r="50" transform="translate(-18100 -19372)" fill="#505151"/>
    <g id="random-arrows" transform="translate(-18073 -19343.629)">
      <path id="Path_148" data-name="Path 148" d="M37.236,25.578,46,32.135l-8.764,6.554V35.01H28.648a11.525,11.525,0,0,1-8.763-4.043A11.531,11.531,0,0,1,11.12,35.01H0V28.98H11.117a5.544,5.544,0,0,0,5.538-5.538V18.309a5.544,5.544,0,0,0-5.538-5.535H0V6.743H11.117a11.529,11.529,0,0,1,8.764,4.041,11.534,11.534,0,0,1,8.764-4.041h8.585V3.629L46,10.186l-8.764,6.557V12.775H28.646a5.544,5.544,0,0,0-5.538,5.535v5.134a5.544,5.544,0,0,0,5.538,5.538h8.585v-3.4h0Z" transform="translate(0 0)" fill="#fff"/>
    </g>
  </g>
</svg>
