<?xml version="1.0" encoding="utf-8"?>
<!-- Generator: Adobe Illustrator 16.0.0, SVG Export Plug-In . SVG Version: 6.00 Build 0)  -->
<!DOCTYPE svg PUBLIC "-//W3C//DTD SVG 1.1//EN" "http://www.w3.org/Graphics/SVG/1.1/DTD/svg11.dtd">
<svg version="1.1" id="Layer_1" focusable="false" xmlns="http://www.w3.org/2000/svg" xmlns:xlink="http://www.w3.org/1999/xlink"
	 x="0px" y="0px" width="200px" height="320px" viewBox="0 0 200 320" enable-background="new 0 0 200 320" xml:space="preserve">
<path fill="#FFFFFF" d="M185.715,138.571h-64.286V74.286c0-7.888-6.397-14.286-14.286-14.286H92.857
	c-7.888,0-14.286,6.397-14.286,14.286v64.286H14.286C6.397,138.571,0,144.969,0,152.857v14.286c0,7.889,6.397,14.286,14.286,14.286
	h64.286v64.286c0,7.888,6.397,14.285,14.286,14.285h14.286c7.889,0,14.286-6.397,14.286-14.285v-64.286h64.286
	c7.888,0,14.285-6.397,14.285-14.286v-14.286C200,144.969,193.603,138.571,185.715,138.571z"/>
</svg>
