<svg xmlns="http://www.w3.org/2000/svg" width="23.25" height="23.25" viewBox="0 0 23.25 23.25">
  <path id="Icon_awesome-check-circle" data-name="Icon awesome-check-circle" d="M23.813,12.188A11.625,11.625,0,1,1,12.188.563,11.625,11.625,0,0,1,23.813,12.188Zm-12.97,6.155,8.625-8.625a.75.75,0,0,0,0-1.061L18.407,7.6a.75.75,0,0,0-1.061,0L13.1,11.842l-2.789,2.789L7.028,11.347a.75.75,0,0,0-1.061,0L4.907,12.407a.75.75,0,0,0,0,1.061l4.875,4.875a.75.75,0,0,0,1.061,0Z" transform="translate(-0.563 -0.563)" fill="#3bb218"/>
</svg>
