<svg xmlns="http://www.w3.org/2000/svg" xmlns:xlink="http://www.w3.org/1999/xlink" width="32" height="32" viewBox="0 0 32 32">
  <defs>
    <filter id="Ellipse_632">
      <feOffset dy="7" input="SourceAlpha"/>
      <feGaussianBlur stdDeviation="5.5" result="blur"/>
      <feFlood flood-opacity="0.161" result="color"/>
      <feComposite operator="out" in="SourceGraphic" in2="blur"/>
      <feComposite operator="in" in="color"/>
      <feComposite operator="in" in2="SourceGraphic"/>
    </filter>
  </defs>
  <g id="Group_533" data-name="Group 533" transform="translate(-483 -363)">
    <g data-type="innerShadowGroup">
      <circle id="Ellipse_632-2" data-name="Ellipse 632" cx="16" cy="16" r="16" transform="translate(483 363)"/>
      <g transform="matrix(1, 0, 0, 1, 483, 363)" filter="url(#Ellipse_632)">
        <circle id="Ellipse_632-3" data-name="Ellipse 632" cx="16" cy="16" r="16" fill="#fff"/>
      </g>
    </g>
    <g id="noun_Trash_4027630" transform="translate(489.5 369.5)">
      <g id="Group_532" data-name="Group 532">
        <g id="Group_531" data-name="Group 531">
          <rect id="Rectangle_3054" data-name="Rectangle 3054" width="18" height="18" transform="translate(0.5 0.5)" fill="none"/>
          <g id="Group_525" data-name="Group 525" transform="translate(3.375 3.375)">
            <path id="Path_554" data-name="Path 554" d="M333.151,8.292,333.638,19a.563.563,0,0,0,.562.537h6.85a.563.563,0,0,0,.562-.537l.028-.614a.563.563,0,0,1,1.124.051c-.01.222-.02.428-.028.614a1.687,1.687,0,0,1-1.686,1.611H334.2a1.687,1.687,0,0,1-1.686-1.611c-.137-3.009-.514-11.3-.514-11.3a.563.563,0,0,1,.562-.588h10.125a.563.563,0,0,1,.562.588s-.219,4.814-.384,8.437a.562.562,0,1,1-1.124-.051l.357-7.849Z" transform="translate(-332 -7.167)" fill="#fff" fill-rule="evenodd"/>
          </g>
          <g id="Group_526" data-name="Group 526" transform="translate(6.188 1.125)">
            <path id="Path_555" data-name="Path 555" d="M347.625,7.687A1.688,1.688,0,0,0,345.938,6h-2.25A1.688,1.688,0,0,0,342,7.687V8.812a.563.563,0,0,0,.563.562h4.5a.563.563,0,0,0,.563-.562ZM346.5,8.25V7.687a.563.563,0,0,0-.562-.562h-2.25a.563.563,0,0,0-.562.562V8.25Z" transform="translate(-342 -6)" fill="#fff" fill-rule="evenodd"/>
          </g>
          <g id="Group_527" data-name="Group 527" transform="translate(5.906 6.187)">
            <path id="Path_556" data-name="Path 556" d="M341,14.586l.281,6.75a.562.562,0,1,0,1.124-.047l-.281-6.75a.562.562,0,1,0-1.124.047Z" transform="translate(-341 -14)" fill="#fff" fill-rule="evenodd"/>
          </g>
          <g id="Group_528" data-name="Group 528" transform="translate(10.688 6.187)">
            <path id="Path_557" data-name="Path 557" d="M342.282,14.539,342,21.289a.562.562,0,1,0,1.124.047l.281-6.75a.562.562,0,1,0-1.124-.047Z" transform="translate(-342 -14)" fill="#fff" fill-rule="evenodd"/>
          </g>
          <g id="Group_529" data-name="Group 529" transform="translate(8.438 6.188)">
            <path id="Path_558" data-name="Path 558" d="M342,14.562v6.75a.563.563,0,0,0,1.125,0v-6.75a.562.562,0,0,0-1.125,0Z" transform="translate(-342 -14)" fill="#fff" fill-rule="evenodd"/>
          </g>
          <g id="Group_530" data-name="Group 530" transform="translate(2.25 3.375)">
            <path id="Path_559" data-name="Path 559" d="M328.563,17.125h12.375a.563.563,0,0,0,0-1.125H328.563a.563.563,0,0,0,0,1.125Z" transform="translate(-328 -16)" fill="#fff" fill-rule="evenodd"/>
          </g>
        </g>
      </g>
    </g>
  </g>
</svg>
