<?xml version="1.0" encoding="utf-8"?>
<!-- Generator: Adobe Illustrator 16.0.0, SVG Export Plug-In . SVG Version: 6.00 Build 0)  -->
<!DOCTYPE svg PUBLIC "-//W3C//DTD SVG 1.1//EN" "http://www.w3.org/Graphics/SVG/1.1/DTD/svg11.dtd">
<svg version="1.1" id="Layer_1" xmlns="http://www.w3.org/2000/svg" xmlns:xlink="http://www.w3.org/1999/xlink" x="0px" y="0px"
	 width="30px" height="30px" viewBox="0 0 30 30" enable-background="new 0 0 30 30" xml:space="preserve">
<g>
	<g>
		<path fill="#6CCAD3" d="M0,6c0-3,3-6,6-6h18c3,0,6,3,6,6v18c0,3-3,6-6,6H6c-3,0-6-3-6-6V6z"/>
	</g>
	<g>
		<path fill="#FFFFFF" d="M11,9.302v11.058c0,0.233,0.237,0.384,0.426,0.267l8.766-5.53c0.146-0.096,0.187-0.291,0.086-0.434
			c-0.021-0.034-0.051-0.063-0.086-0.085l-8.766-5.53C11.236,8.923,11,9.069,11,9.302z"/>
	</g>
</g>
</svg>
