<?xml version="1.0" encoding="utf-8"?>
<!-- Generated by IcoMoon.io -->
<svg version="1.1" xmlns="http://www.w3.org/2000/svg" xmlns:xlink="http://www.w3.org/1999/xlink" viewBox="0 0 752 80">
<svg id="icon-calendar-gray" viewBox="0 0 32 32" x="0" y="0">
<path fill="#727272" d="M12 13.333v2.667h-2.667v-2.667h2.667zM17.333 13.333v2.667h-2.667v-2.667h2.667zM22.667 13.333v2.667h-2.667v-2.667h2.667zM25.333 4c1.472 0 2.667 1.195 2.667 2.667v18.667c0 1.472-1.195 2.667-2.667 2.667h-18.667c-1.48 0-2.667-1.2-2.667-2.667v-18.667c0-1.472 1.195-2.667 2.667-2.667h1.333v-2.667h2.667v2.667h10.667v-2.667h2.667v2.667h1.333zM25.333 25.333v-14.667h-18.667v14.667h18.667zM12 18.667v2.667h-2.667v-2.667h2.667zM17.333 18.667v2.667h-2.667v-2.667h2.667zM22.667 18.667v2.667h-2.667v-2.667h2.667z"></path>
</svg>
<svg id="icon-full-screen"  viewBox="0 0 33 32" x="0" y="0">
<path fill="currentColor" d="M29.818 11.556h-1.455v-8.162h-9.535v-1.455h10.99z"></path>
<path fill="currentColor" d="M3.293 11.567h-1.455v-9.617h10.99v1.455h-9.535z"></path>
<path fill="currentColor" d="M12.797 28.838h-10.99v-9.617h1.455v8.162h9.535z"></path>
<path fill="currentColor" d="M29.788 28.828h-10.991v-1.455h9.536v-8.161h1.455z"></path>
</svg>
<svg id="icon-heart" viewBox="0 0 32 32" x="0" y="0">
<path fill="none" stroke="#f00" stroke-linejoin="miter" stroke-linecap="butt" stroke-miterlimit="10" stroke-width="1.3333" d="M22 4c-2.32 0-4.547 1.080-6 2.773-1.453-1.693-3.68-2.773-6-2.773-4.107 0-7.333 3.213-7.333 7.333 0 5.027 4.533 9.145 11.4 15.373l1.933 1.76 1.933-1.757c6.867-6.231 11.4-10.349 11.4-15.376 0-4.12-3.227-7.333-7.333-7.333z"></path>
</svg>
<svg id="icon-maximize"  viewBox="0 0 46 32" x="0" y="0">
<path fill="currentColor" d="M44.225 29.843h-42.067v-27.326h42.067v27.326zM4.315 27.685h37.753v-23.011h-37.753v23.011z"></path>
</svg>
<svg id="icon-message_gray" viewBox="0 0 32 32" x="0" y="0">
<path fill="#727272" d="M22.667 16v-12c0-0.736-0.596-1.333-1.333-1.333h-17.333c-0.736 0-1.333 0.597-1.333 1.333v18.667l5.333-5.333h13.333c0.737 0 1.333-0.596 1.333-1.333zM28 8h-2.667v12h-17.333v2.667c0 0.737 0.597 1.333 1.333 1.333h14.667l5.333 5.333v-20c0-0.736-0.596-1.333-1.333-1.333z"></path>
</svg>
<svg id="icon-phone_gray" viewBox="0 0 32 32" x="0" y="0">
<path fill="#727272" d="M20 16h2.667c0-3.681-2.984-6.667-6.667-6.667v2.667c2.208 0 4 1.791 4 4zM25.333 16h2.667c0-6.667-5.372-12-12-12v2.667c5.145 0 9.333 4.173 9.333 9.333zM26.667 20.667c-1.667 0-3.267-0.267-4.76-0.76-0.467-0.145-0.987-0.039-1.36 0.333l-2.933 2.933c-3.773-1.92-6.867-5.013-8.787-8.787l2.933-2.933c0.373-0.373 0.48-0.893 0.333-1.36-0.493-1.493-0.76-3.093-0.76-4.76 0-0.736-0.597-1.333-1.333-1.333h-4.667c-0.736 0-1.333 0.597-1.333 1.333 0 12.519 10.148 22.667 22.667 22.667 0.737 0 1.333-0.596 1.333-1.333v-4.667c0-0.737-0.596-1.333-1.333-1.333z"></path>
</svg>
<svg id="icon-play" viewBox="0 0 28 32" x="0" y="0">
<path fill="#727272" d="M2.876 29.873l-0.118-27.875 22.049 14.004-21.931 13.871zM4.194 4.595l0.096 22.701 17.858-11.297-17.955-11.403z"></path>
</svg>
<svg id="icon-quality"  viewBox="0 0 48 32" x="0" y="0">
<path stroke="currentColor" stroke-linejoin="miter" stroke-linecap="butt" stroke-miterlimit="10" stroke-width="1.6022" d="M8.877 4.135c1.327 0 2.403 1.076 2.403 2.403s-1.076 2.403-2.403 2.403c-1.327 0-2.403-1.076-2.403-2.403s1.076-2.403 2.403-2.403M8.877 13.746c1.327 0 2.403 1.076 2.403 2.402 0 1.329-1.076 2.405-2.403 2.405s-2.403-1.076-2.403-2.405c0-1.326 1.076-2.402 2.403-2.402M8.877 23.359c1.327 0 2.403 1.076 2.403 2.405 0 1.327-1.076 2.403-2.403 2.403s-2.403-1.076-2.403-2.403c0-1.329 1.076-2.405 2.403-2.405z"></path>
<path  stroke="currentColor" stroke-linejoin="miter" stroke-linecap="butt" stroke-miterlimit="10" stroke-width="2.1573" d="M14.263 7.131h27.206"></path>
<path  stroke="currentColor" stroke-linejoin="miter" stroke-linecap="butt" stroke-miterlimit="10" stroke-width="2.1573" d="M14.263 16.6h27.206"></path>
<path  stroke="currentColor" stroke-linejoin="miter" stroke-linecap="butt" stroke-miterlimit="10" stroke-width="2.1573" d="M14.382 26.067h27.208"></path>
</svg>
<svg id="icon-share" viewBox="0 0 32 32" x="0" y="0">
<path fill="#f00" d="M8.167 20.833c-2.573 0-4.667-2.093-4.667-4.667s2.093-4.667 4.667-4.667 4.667 2.093 4.667 4.667c0 2.573-2.093 4.667-4.667 4.667zM8.167 12.833c-1.837 0-3.333 1.496-3.333 3.333 0 1.839 1.496 3.333 3.333 3.333s3.333-1.495 3.333-3.333c0-1.837-1.496-3.333-3.333-3.333z"></path>
<path fill="#f00" d="M24.113 11.333c-2.575 0-4.667-2.093-4.667-4.667s2.092-4.667 4.667-4.667 4.667 2.093 4.667 4.667-2.092 4.667-4.667 4.667zM24.113 3.333c-1.839 0-3.333 1.496-3.333 3.333s1.495 3.333 3.333 3.333 3.333-1.496 3.333-3.333-1.495-3.333-3.333-3.333z"></path>
<path fill="#f00" d="M23.947 30.081c-2.575 0-4.667-2.092-4.667-4.667 0-2.573 2.092-4.667 4.667-4.667s4.667 2.093 4.667 4.667c0 2.573-2.092 4.667-4.667 4.667zM23.947 22.081c-1.839 0-3.333 1.495-3.333 3.333s1.495 3.333 3.333 3.333 3.333-1.495 3.333-3.333-1.495-3.333-3.333-3.333z"></path>
<path fill="#f00" d="M20.497 23.913l-9.5-5.5 0.668-1.154 9.5 5.5-0.668 1.154z"></path>
<path fill="#f00" d="M11.675 14.587l-0.671-1.152 9.487-5.524 0.671 1.152-9.487 5.524z"></path>
</svg>
<svg id="icon-info-circle-solid" viewBox="0 0 32 32" x="0" y="0">
<path d="M16 0.5c-8.56 0-15.5 6.943-15.5 15.5 0 8.562 6.94 15.5 15.5 15.5s15.5-6.938 15.5-15.5c0-8.557-6.94-15.5-15.5-15.5zM16 7.375c1.45 0 2.625 1.175 2.625 2.625s-1.175 2.625-2.625 2.625-2.625-1.175-2.625-2.625 1.175-2.625 2.625-2.625zM19.5 23.25c0 0.414-0.336 0.75-0.75 0.75h-5.5c-0.414 0-0.75-0.336-0.75-0.75v-1.5c0-0.414 0.336-0.75 0.75-0.75h0.75v-4h-0.75c-0.414 0-0.75-0.336-0.75-0.75v-1.5c0-0.414 0.336-0.75 0.75-0.75h4c0.414 0 0.75 0.336 0.75 0.75v6.25h0.75c0.414 0 0.75 0.336 0.75 0.75v1.5z"></path>
</svg>
<svg id="icon-plus-solid" viewBox="0 0 28 32" x="0" y="0">
<path d="M26 13h-9v-9c0-1.104-0.896-2-2-2h-2c-1.104 0-2 0.896-2 2v9h-9c-1.104 0-2 0.896-2 2v2c0 1.104 0.896 2 2 2h9v9c0 1.104 0.896 2 2 2h2c1.104 0 2-0.896 2-2v-9h9c1.104 0 2-0.896 2-2v-2c0-1.104-0.896-2-2-2z"></path>
</svg>
<svg id="icon-play-solid" viewBox="0 0 28 32" x="0" y="0">
<path d="M26.525 13.419l-22-13.006c-1.788-1.056-4.525-0.031-4.525 2.581v26.006c0 2.344 2.544 3.756 4.525 2.581l22-13c1.962-1.156 1.969-4.006 0-5.162z"></path>
</svg>
<svg id="icon-menu-icon" viewBox="0 0 32 32" x="0" y="0">
<path d="M4 10h24c1.104 0 2-0.896 2-2s-0.896-2-2-2h-24c-1.104 0-2 0.896-2 2s0.896 2 2 2zM28 14h-24c-1.104 0-2 0.896-2 2s0.896 2 2 2h24c1.104 0 2-0.896 2-2s-0.896-2-2-2zM28 22h-24c-1.104 0-2 0.896-2 2s0.896 2 2 2h24c1.104 0 2-0.896 2-2s-0.896-2-2-2z"></path>
</svg>
<svg id="icon-mylist-add" viewBox="0 0 32 32" x="0" y="0">
<path d="M14.467 14.467v-14.467h3.067v14.467h14.467v3.067h-14.467v14.467h-3.067v-14.467h-14.467v-3.067z"></path>
</svg>
<svg id="icon-mylist-added" viewBox="0 0 32 32" x="0" y="0">
<path d="M12.533 26.233l-9.833-9.867-2.7 2.7 12.933 12.933 22.3-29.7-3.067-2.267z"></path>
</svg>
<svg id="icon-play-btn"  viewBox="0 0 29 32" x="0" y="0">
<path fill="#c83232" d="M0.744 0.744l27.014 15.777-27.014 14.884v-30.66z"></path>
</svg>
<svg id="icon-thumb-up" viewBox="0 0 32 32" x="0" y="0">
<path d="M10.539 7.646c0.008-0.103 0.014-0.184 0.033-0.427 0.050-0.646 0.101-1.296 0.148-1.909 0.005-0.059 0.005-0.059 0.009-0.119 0.11-1.444 0.2-2.675 0.2-2.712v-1.364l1.227-0.597c0.176-0.086 0.42-0.184 0.726-0.275 1-0.298 2.071-0.355 3.156 0.022 1.794 0.623 2.999 2.253 3.455 4.717 0.399 2.156 0.508 4.463 0.405 6.663l4.924 0.010 0.089 0.008c2.277 0.192 4.18 1.447 4.18 3.976 0 0.41-0.053 0.755-0.144 1.13 0.545 0.625 0.871 1.454 0.871 2.505 0 1.399-0.583 2.408-1.489 3.063 0.034 0.268 0.034 0.374 0.034 0.572 0 1.399-0.583 2.408-1.489 3.063 0.034 0.29 0.034 0.374 0.034 0.572 0 2.529-1.903 3.784-4.18 3.976l-0.089 0.008-7.054 0.016c-2.961 0-4.455-0.355-6.64-1.302-1.362-0.59-1.989-0.777-3.309-0.887l-2.001-0.167v-11.995l3.622-2.083 3.281-6.466zM17.348 5.378c-0.842-4.552-4.237-2.899-4.237-2.899 0 0.301-0.43 5.769-0.43 5.769l-3.771 7.431-3.092 1.778v8.726c4.364 0.364 4.077 2.181 9.768 2.181l6.959-0.015c0.974-0.082 2.182-0.515 2.182-1.802s-1.208-1.72-2.182-1.818l1.455-0.015c0.974-0.082 2.182-0.515 2.182-1.802s-1.208-1.72-2.182-1.818l1.455-0.015c0.974-0.082 2.182-0.515 2.182-1.802s-1.208-1.72-2.182-1.818l-0.727-0.015c0.974-0.082 2.182-0.515 2.182-1.802s-1.208-1.72-2.182-1.802l-7.234-0.015c0.14-0.591 0.577-4.542-0.145-8.443z"></path>
</svg>
<svg id="icon-thumb-down" viewBox="0 0 32 32" x="0" y="0">
<path d="M21.461 24.354c-0.008 0.103-0.014 0.184-0.033 0.427-0.050 0.646-0.101 1.296-0.148 1.909-0.005 0.059-0.005 0.059-0.009 0.119-0.11 1.445-0.2 2.675-0.2 2.712v1.364l-1.227 0.597c-0.176 0.086-0.42 0.184-0.726 0.275-1 0.298-2.071 0.355-3.156-0.022-1.794-0.623-2.999-2.253-3.455-4.717-0.399-2.156-0.508-4.463-0.405-6.663l-4.924-0.010-0.089-0.008c-2.277-0.192-4.18-1.447-4.18-3.976 0-0.41 0.053-0.755 0.144-1.13-0.545-0.625-0.871-1.454-0.871-2.505 0-1.399 0.583-2.408 1.489-3.063-0.034-0.268-0.034-0.374-0.034-0.572 0-1.399 0.583-2.408 1.489-3.063-0.034-0.29-0.034-0.374-0.034-0.572 0-2.529 1.903-3.784 4.18-3.976l0.089-0.008 7.054-0.016c2.961 0 4.455 0.355 6.64 1.302 1.362 0.59 1.989 0.777 3.309 0.887l2.001 0.167v11.995l-3.622 2.083-3.281 6.466zM14.652 26.622c0.842 4.552 4.237 2.899 4.237 2.899 0-0.301 0.43-5.768 0.43-5.768l3.771-7.431 3.092-1.778v-8.726c-4.364-0.364-4.077-2.181-9.768-2.181l-6.959 0.015c-0.974 0.082-2.182 0.515-2.182 1.802s1.208 1.72 2.182 1.818l-1.455 0.015c-0.974 0.082-2.182 0.515-2.182 1.802s1.208 1.72 2.182 1.818l-1.455 0.015c-0.974 0.082-2.182 0.515-2.182 1.802s1.208 1.72 2.182 1.818l0.727 0.015c-0.974 0.082-2.182 0.515-2.182 1.802s1.208 1.72 2.182 1.802l7.234 0.015c-0.14 0.591-0.577 4.542 0.145 8.443z"></path>
</svg>
<svg id="icon-audio-off" viewBox="0 0 32 32" x="0" y="0">
<path d="M14.857 25.143l-6.857-4.571h-4.571v-9.143h4.571l6.857-4.571z"></path>
<path stroke="#444" stroke-linejoin="miter" stroke-linecap="square" stroke-miterlimit="4" stroke-width="2.2857" fill="#000" d="M18.649 12.363l7.273 7.273"></path>
<path stroke="#444" stroke-linejoin="miter" stroke-linecap="square" stroke-miterlimit="4" stroke-width="2.2857" fill="#000" d="M25.922 12.363l-7.273 7.273"></path>
</svg>
<svg id="icon-audio-on" viewBox="0 0 32 32" x="0" y="0">
<path d="M14.857 25.143l-6.857-4.571h-4.571v-9.143h4.571l6.857-4.571v18.286zM19.136 21.016l-1.616-1.616c1.857-1.857 1.857-4.868 0-6.726l1.616-1.616c2.75 2.75 2.75 7.208 0 9.958zM21.959 23.101l-1.616-1.616c3.009-3.009 3.009-7.888 0-10.897l1.616-1.616c3.902 3.902 3.902 10.227 0 14.129zM24.781 25.187l-1.616-1.616c4.161-4.161 4.161-10.907 0-15.068l1.616-1.616c5.053 5.053 5.053 13.247 0 18.3z"></path>
</svg>
<svg id="icon-arrow-down"  viewBox="0 0 101 32" x="0" y="0">
<path d="M100.314 4.114l-47.784 25.632c-0.738 0.422-1.582 0.738-1.899 0.738s-0.738-0.105-0.844-0.105c-0.211-0.105-0.949-0.527-1.688-0.844l-47.256-25.421c-0.527-0.211-0.844-0.844-0.844-1.371 0-0.211 0.105-0.422 0.211-0.738l0.633-1.16c0.316-0.527 0.844-0.844 1.371-0.844 0.316 0 0.527 0 0.738 0.211l46.202 24.788c0.316 0.211 0.844 0.316 1.371 0.316s1.055-0.105 1.371-0.316l46.202-24.788c0.738-0.422 1.688-0.211 2.11 0.633l0.633 1.16c0.422 0.738 0.211 1.688-0.527 2.11z"></path>
</svg>
<svg id="icon-close" viewBox="0 0 32 32" x="0" y="0">
<path fill="#fff" d="M18.83 16l12.584-12.584c0.782-0.781 0.782-2.049 0-2.83s-2.048-0.782-2.83 0l-12.584 12.584-12.584-12.584c-0.782-0.782-2.048-0.782-2.83 0s-0.782 2.049 0 2.83l12.584 12.584-12.584 12.584c-0.782 0.781-0.782 2.049 0 2.83 0.391 0.39 0.903 0.586 1.415 0.586s1.024-0.195 1.415-0.586l12.584-12.584 12.584 12.584c0.391 0.391 0.903 0.586 1.415 0.586s1.024-0.195 1.415-0.586c0.782-0.781 0.782-2.049 0-2.83l-12.584-12.583z"></path>
</svg>
<svg id="icon-left-arrow"  viewBox="0 0 24 32" x="-4" y="-4">
<path fill="#c73032" d="M16.806 29.213l-13.166-13.166 13.166-13.166 3.094 3.094-10.050 10.072 10.050 10.050-3.094 3.116z"></path>
</svg>
<svg id="icon-magnify-white" viewBox="0 0 32 32" x="0" y="0">
<path fill="#fff" d="M12.667 4c4.787 0 8.667 3.88 8.667 8.667 0 2.147-0.787 4.12-2.081 5.64l0.361 0.36h1.053l6.667 6.667-2 2-6.667-6.667v-1.053l-0.36-0.361c-1.52 1.295-3.493 2.081-5.64 2.081-4.787 0-8.667-3.88-8.667-8.667s3.88-8.667 8.667-8.667zM12.667 6.667c-3.333 0-6 2.667-6 6s2.667 6 6 6 6-2.667 6-6-2.667-6-6-6z"></path>
</svg>
</svg>
